SplineFontDB: 3.0
FontName: FanwoodText
FullName: Fanwood Text
FamilyName: Fanwood Text
Weight: Regular
Copyright: Copyright (c) 2011, Barry Schwartz
UComments: "Spread Fanwood by using the emboldener. Set to 6, CJK, Squish." 
Version: 1.1
ItalicAngle: 0
UnderlinePosition: -100
UnderlineWidth: 50
Ascent: 690
Descent: 310
LayerCount: 3
Layer: 0 0 "Back"  1
Layer: 1 0 "Fore"  0
Layer: 2 0 "backup"  0
NeedsXUIDChange: 1
XUID: [1021 658 797806517 11107023]
FSType: 0
OS2Version: 0
OS2_WeightWidthSlopeOnly: 0
OS2_UseTypoMetrics: 1
CreationTime: 1287776574
ModificationTime: 1295315622
OS2TypoAscent: 0
OS2TypoAOffset: 1
OS2TypoDescent: 0
OS2TypoDOffset: 1
OS2TypoLinegap: 90
OS2WinAscent: 0
OS2WinAOffset: 1
OS2WinDescent: 0
OS2WinDOffset: 1
HheadAscent: 0
HheadAOffset: 1
HheadDescent: 0
HheadDOffset: 1
OS2Vendor: 'PfEd'
Lookup: 3 0 0 "'aalt' Access All Alternates lookup 0"  {"'aalt' Access All Alternates lookup 0 subtable"  } ['aalt' ('DFLT' <'dflt' > ) ]
Lookup: 3 0 0 "'aalt' Access All Alternates in Latin lookup 0"  {"'aalt' Access All Alternates in Latin lookup 0 subtable"  } ['aalt' ('latn' <'CAT ' 'ROM ' 'MOL ' 'TRK ' 'AZE ' 'CRT ' 'dflt' > ) ]
Lookup: 1 0 0 "catalan"  {"catalan subtable"  } ['locl' ('latn' <'CAT ' > ) ]
Lookup: 1 0 0 "romanian"  {"romanian subtable"  } ['locl' ('latn' <'ROM ' 'MOL ' > ) ]
Lookup: 1 0 0 "turkish"  {"turkish subtable"  } ['locl' ('latn' <'TRK ' 'AZE ' 'CRT ' > ) ]
Lookup: 1 0 0 "numerators"  {"numerators subtable"  } ['frac' ('latn' <'dflt' 'CAT ' 'ROM ' 'MOL ' 'TRK ' 'AZE ' 'CRT ' > 'DFLT' <'dflt' > ) 'numr' ('latn' <'dflt' 'CAT ' 'ROM ' 'MOL ' 'TRK ' 'AZE ' 'CRT ' > 'DFLT' <'dflt' > ) ]
Lookup: 1 0 0 "denominators"  {"denominators subtable"  } ['dnom' ('latn' <'dflt' 'CAT ' 'ROM ' 'MOL ' 'TRK ' 'AZE ' 'CRT ' > 'DFLT' <'dflt' > ) ]

StartChar: a
Encoding: 97 97 0
Width: 419
VWidth: 0
Flags: HWO
HStem: -20 57<121.331 206.696 294 350.156> 371 31<134.488 232.32>
VStem: 32 76<49.2576 131.002> 46 74<279.192 333.404> 264 71<48.5871 199.999 222.048 345.555>
AnchorPoint: "top" 201 500 basechar 0
AnchorPoint: "l;bl" 0 10 basechar 0
AnchorPoint: "l;x" 10 380 basechar 0
AnchorPoint: "l;o" 0 200 basechar 0
AnchorPoint: "r;bl" 419 10 basechar 0
AnchorPoint: "r;o" 419 200 basechar 0
LayerCount: 3
Back
SplineSet
261 200 m 0
 258 200 228 194 200 185 c 0
 153 170 108 144 108 99 c 0
 108 68 130 33 170 33 c 0
 210 33 259 54 264 59 c 1
 264 192 l 2
 264 199 263 200 261 200 c 0
111.733398438 278.549804688 m 0
 95.3193359375 266.239257812 62.990234375 250 57 250 c 0
 49.400390625 250 46 256.846679688 46 268 c 0
 46 352.37890625 135.001953125 402 201 402 c 0
 303.653320312 402 335 348.05859375 335 268 c 0
 335 216.881835938 329 85.7998046875 329 64 c 0
 329 54.4482421875 333.293945312 37.716796875 347.75 36.9873046875 c 1
 352.599609375 38.55859375 380.233398438 61 386 61 c 0
 392.376953125 61 402 50.7841796875 402 43 c 0
 402 35.21484375 356.998046875 6.0498046875 335.716796875 -8.4599609375 c 0
 328.759765625 -13.4296875 319.182617188 -20 308 -20 c 0
 274.4453125 -20 268.271484375 23.4033203125 266.12109375 34.759765625 c 1
 261.4609375 31.8134765625 255.533203125 27.4130859375 249.444335938 24.3681640625 c 0
 229.317382812 12.2919921875 176.201171875 -17 133 -17 c 0
 69.7724609375 -17 32 18.1904296875 32 71 c 0
 32 163.112304688 159.963867188 205.038085938 258.627929688 221.9765625 c 0
 263.815429688 222.625 264 226.32421875 264 235 c 0
 264 305.602539062 263.045898438 371 180 371 c 0
 170.2109375 371 159.53125 369.981445312 150.1484375 366.228515625 c 0
 123.616210938 354.857421875 120.998046875 341.901367188 120 301.962890625 c 0
 120 296.083007812 119.51953125 283.741210938 111.733398438 278.549804688 c 0
EndSplineSet
Fore
SplineSet
113 279 m 0xd8
 96 267 60 249 55 249 c 0
 50 249 46 257 46 268 c 0xd8
 46 352 135 402 201 402 c 0
 304 402 335 348 335 268 c 0
 335 217 329 86 329 64 c 0
 329 42 344 37 347 37 c 0
 355 37 385 62 387 62 c 0
 392 62 403 48 403 42 c 0
 403 40 376 21 352 3 c 0
 334 -10 317 -20 310 -20 c 0
 278 -20 274 10 268 26 c 0
 265 35 264 33 257 29 c 0
 228 11 177 -17 133 -17 c 0
 70 -17 32 18 32 71 c 0xe8
 32 163 160 205 259 222 c 0
 264 223 264 226 264 235 c 0
 264 306 263 372 180 372 c 0
 170 372 158 370 149 366 c 0
 122 355 120 340 120 299 c 0
 120 293 119 283 113 279 c 0xd8
261 200 m 0
 258 200 228 194 200 185 c 0
 153 170 108 144 108 99 c 0xe8
 108 68 130 33 170 33 c 0
 208 33 264 54 264 61 c 2
 264 192 l 2
 264 199 263 200 261 200 c 0
EndSplineSet
AlternateSubs2: "'aalt' Access All Alternates lookup 0 subtable" a.sc a.sub a.sup a.denom a.numer
AlternateSubs2: "'aalt' Access All Alternates in Latin lookup 0 subtable" a.sc a.sub a.sup a.denom a.numer
Substitution2: "'smcp' Lowercase to Small Capitals in Latin lookup 11 subtable" a.sc
Substitution2: "'subs' Subscript in Latin lookup 8 subtable" a.sub
Substitution2: "'sups' Superscript in Latin lookup 7 subtable" a.sup
Substitution2: "denominators subtable" a.denom
Substitution2: "numerators subtable" a.numer
EndChar

StartChar: b
Encoding: 98 98 1
Width: 485
VWidth: 0
Flags: HMW
HStem: -16 33<169.113 299.716> 354 35<185.148 289.806> 636 43<3.39282 75.3213>
VStem: 86 72<25.7803 344.142 361.009 421.3> 380 78<95.783 268.55>
AnchorPoint: "top" 129 780 basechar 0
AnchorPoint: "l;bl" 20 10 basechar 0
AnchorPoint: "l;x" 10 380 basechar 0
AnchorPoint: "l;hi" 0 650 basechar 0
AnchorPoint: "l;o" 20 200 basechar 0
AnchorPoint: "r;o" 485 200 basechar 0
LayerCount: 3
Back
SplineSet
9.84375 663 m 4
 57.962890625 668.012695312 146.268554688 679 152 679 c 4
 161.911132812 679 161 665.59375 161 660.975585938 c 5
 160.999023438 660.928710938 158 475.962890625 158 394 c 4
 158 377.874023438 158.076171875 364.927734375 158.333984375 360.09375 c 5
 172.227539062 366.256835938 218.586914062 389 263 389 c 4
 377.7578125 389 458 298.479492188 458 188 c 4
 458 56.966796875 349.149414062 -16 234 -16 c 4
 196.8984375 -16 171.576171875 3 145 3 c 4
 126.477539062 3 109.490234375 -15 96 -15 c 4
 86.4775390625 -15 81 -9.244140625 81 1 c 4
 81 7.2333984375 86 130.052734375 86 197 c 4
 86 229.56640625 81.3818359375 606.84375 70.7509765625 635.9296875 c 5
 59.3037109375 635.020507812 15.5673828125 630 11 630 c 4
 4.9521484375 630 2 632.952148438 2 639 c 4
 2 643.063476562 1.0771484375 663 9.84375 663 c 4
158 331.620117188 m 5
 157.985351562 228.973632812 156 97.318359375 156 64 c 4
 156 18.3935546875 208.168945312 17 237 17 c 4
 328.780273438 17 380 98.9560546875 380 187 c 4
 380 274.494140625 308.115234375 354 223 354 c 4
 191.759765625 354 161.241210938 336.155273438 158 331.620117188 c 5
EndSplineSet
Fore
SplineSet
7 663 m 0
 55 667 147 679 153 679 c 0
 160 679 161 676 161 671 c 0
 161 644 158 538 158 390 c 0
 158 373 158 361 160 361 c 0
 163 361 213 389 263 389 c 0
 378 389 458 301 458 188 c 0
 458 59 354 -16 241 -16 c 0
 196 -16 170 3 145 3 c 0
 121 3 108 -15 92 -15 c 0
 82 -15 82 -5 82 1 c 0
 82 7 86 28 86 186 c 0
 86 334 81 636 71 636 c 0
 63 636 15 630 10 630 c 0
 1 630 1 633 1 639 c 0
 1 641 2 663 7 663 c 0
158 330 m 0
 158 228 156 97 156 64 c 0
 156 18 208 17 237 17 c 0
 329 17 380 99 380 187 c 0
 380 279 308 354 223 354 c 0
 195 354 158 337 158 330 c 0
EndSplineSet
AlternateSubs2: "'aalt' Access All Alternates lookup 0 subtable" b.sc b.sub b.sup b.denom b.numer
AlternateSubs2: "'aalt' Access All Alternates in Latin lookup 0 subtable" b.sc b.sub b.sup b.denom b.numer
Substitution2: "'smcp' Lowercase to Small Capitals in Latin lookup 11 subtable" b.sc
Substitution2: "'subs' Subscript in Latin lookup 8 subtable" b.sub
Substitution2: "'sups' Superscript in Latin lookup 7 subtable" b.sup
Substitution2: "denominators subtable" b.denom
Substitution2: "numerators subtable" b.numer
EndChar

StartChar: c
Encoding: 99 99 2
Width: 412
VWidth: 0
Flags: HW
HStem: -13 50<175.412 321.439> 369 33<180.035 281.885>
VStem: 32 71<112.742 281.466> 314 63<273.798 339.022>
AnchorPoint: "cedilla" 231 -100 basechar 0
AnchorPoint: "top" 231 500 basechar 0
AnchorPoint: "l;o" 0 200 basechar 0
AnchorPoint: "r;bl" 412 10 basechar 0
AnchorPoint: "r;x" 412 380 basechar 0
AnchorPoint: "r;o" 412 200 basechar 0
LayerCount: 3
Back
SplineSet
103 202 m 4
 103 119.083007812 153.06640625 37 254 37 c 4
 322.743164062 37 364.20703125 67 375 67 c 4
 380.411132812 67 385 63.4111328125 385 56 c 4
 385 46.26171875 323.28515625 -13 224 -13 c 4
 105.471679688 -13 32 62.46875 32 177 c 4
 32 326.737304688 142.520507812 402 241 402 c 4
 306.818359375 402 377 356.643554688 377 303 c 4
 377 294.388671875 374.489257812 287.116210938 365.821289062 280.616210938 c 5
 356.563476562 273.415039062 344.178710938 267 334 267 c 4
 325.439453125 267 317.629882812 269.625 314.163085938 280.0234375 c 5
 297.838867188 325.934570312 295.595703125 369 235 369 c 4
 152.489257812 369 103 280.19921875 103 202 c 4
EndSplineSet
Fore
SplineSet
103 202 m 0
 103 119 153 37 254 37 c 0
 323 37 370 67 375 67 c 0
 382 67 385 66 385 56 c 0
 385 50 323 -13 224 -13 c 0
 105 -13 32 62 32 177 c 0
 32 327 143 402 241 402 c 0
 307 402 377 357 377 303 c 0
 377 294 375 288 366 281 c 0
 357 274 344 267 334 267 c 0
 325 267 317.353515625 270.114257812 314 280 c 0
 298.353515625 326.114257812 296 369 235 369 c 0
 152 369 103 280 103 202 c 0
EndSplineSet
AlternateSubs2: "'aalt' Access All Alternates lookup 0 subtable" c.sc c.sub c.sup c.denom c.numer
AlternateSubs2: "'aalt' Access All Alternates in Latin lookup 0 subtable" c.sc c.sub c.sup c.denom c.numer
Substitution2: "'smcp' Lowercase to Small Capitals in Latin lookup 11 subtable" c.sc
Substitution2: "'subs' Subscript in Latin lookup 8 subtable" c.sub
Substitution2: "'sups' Superscript in Latin lookup 7 subtable" c.sup
Substitution2: "denominators subtable" c.denom
Substitution2: "numerators subtable" c.numer
EndChar

StartChar: d
Encoding: 100 100 3
Width: 499
VWidth: 0
Flags: HW
AnchorPoint: "top" 362 780 basechar 0
AnchorPoint: "caron" 450 550 basechar 0
AnchorPoint: "l;o" 0 200 basechar 0
AnchorPoint: "r;bl" 499 10 basechar 0
AnchorPoint: "r;x" 499 380 basechar 0
AnchorPoint: "r;hi" 499 650 basechar 0
AnchorPoint: "r;o" 499 200 basechar 0
LayerCount: 3
Back
SplineSet
27 181 m 4
 27 295.69140625 116.448242188 382 233 382 c 4
 290.263671875 382 331.146484375 358.404296875 336.389648438 356.034179688 c 5
 338.036132812 356.576171875 339 362.661132812 339 371 c 4
 339 464.303710938 332.798828125 618.487304688 329.774414062 639.749023438 c 5
 315.658203125 637.895507812 272.313476562 631 265 631 c 4
 256.342773438 631 256.1484375 636.25390625 258.030273438 649.423828125 c 4
 258.977539062 656.05859375 260.158203125 663.567382812 268.5703125 664.969726562 c 5
 325.845703125 672.00390625 394.052734375 683 400 683 c 4
 411.309570312 683 413 677.512695312 413 657 c 4
 413 622.819335938 407 494.001953125 407 184 c 4
 407 152.0625 408 100.041015625 408.998046875 64.099609375 c 4
 410.342773438 23.7578125 415.368164062 18.111328125 429.111328125 18.111328125 c 4
 436.806640625 18.111328125 447.896484375 20.302734375 462.64453125 21.978515625 c 5
 470.485351562 22.958984375 477 23.046875 477 11 c 4
 477 -3.0830078125 475.912109375 -8.7412109375 461.421875 -10.970703125 c 5
 346.1953125 -26 l 5
 346 -26 l 4
 339.334960938 -26 337 -19.3642578125 337 -14 c 4
 337 -11.8408203125 338 18.125 338 22 c 4
 338 25.5634765625 337.57421875 28.037109375 337.438476562 28.36328125 c 5
 336.193359375 28.271484375 333.040039062 26.958984375 327.599609375 23.4619140625 c 5
 293.265625 2.255859375 249.840820312 -16 206 -16 c 4
 115.685546875 -16 27 35.349609375 27 181 c 4
339 57 m 6
 339 307 l 4
 339 316.696289062 296.377929688 356 245 356 c 4
 159.235351562 356 106 276.016601562 106 188 c 4
 106 96.037109375 148.887695312 27 255 27 c 4
 281.887695312 27 339 43.3212890625 339 57 c 6
EndSplineSet
Fore
SplineSet
27 181 m 0
 27 296 116 382 233 382 c 0
 290 382 333 357 336 357 c 0
 338 357 339 363 339 371 c 0
 339 435 334 640 328 640 c 0
 322 640 268 631 261 631 c 0
 256 631 255 636 257 649 c 0
 259 662 258 664 266 665 c 0
 332 672 392 683 408 683 c 0
 412 683 413 681 413 667 c 0
 413 633 407 494 407 184 c 0
 407 152 408 105 409 69 c 0
 410 26 414 17 431 17 c 0
 434 17 457 21 467 22 c 0
 473 23 477 23 477 16 c 0
 477 2 477 -9 468 -10 c 2
 468 -10 350 -26 345 -26 c 0
 338 -26 337 -23 337 -14 c 0
 337 -12 338 18 338 22 c 0
 338 27 335 28 327 23 c 0
 293 2 245 -16 206 -16 c 0
 116 -16 27 35 27 181 c 0
339 57 m 2
 339 307 l 2
 339 317 296 356 245 356 c 0
 159 356 106 276 106 188 c 0
 106 96 149 27 255 27 c 0
 282 27 339 43 339 57 c 2
EndSplineSet
AlternateSubs2: "'aalt' Access All Alternates lookup 0 subtable" d.sc d.sub d.sup d.denom d.numer
AlternateSubs2: "'aalt' Access All Alternates in Latin lookup 0 subtable" d.sc d.sub d.sup d.denom d.numer
Substitution2: "'smcp' Lowercase to Small Capitals in Latin lookup 11 subtable" d.sc
Substitution2: "'subs' Subscript in Latin lookup 8 subtable" d.sub
Substitution2: "'sups' Superscript in Latin lookup 7 subtable" d.sup
Substitution2: "denominators subtable" d.denom
Substitution2: "numerators subtable" d.numer
EndChar

StartChar: e
Encoding: 101 101 4
Width: 424
VWidth: 0
Flags: HW
HStem: -18 50<175.74 308.97> 227 23<108.001 310.991> 371 28<174.977 266.398>
VStem: 28 80<97.9886 283.561> 311 75<230.5 325.293>
AnchorPoint: "top" 228 500 basechar 0
AnchorPoint: "l;o" 0 200 basechar 0
AnchorPoint: "r;bl" 394 10 basechar 0
AnchorPoint: "r;o" 424 200 basechar 0
LayerCount: 3
Back
SplineSet
108 254.879882812 m 4
 108 251.239257812 109.28125 250 117 250 c 4
 121.876953125 250 223.954101562 252.000976562 273.899414062 253.998046875 c 5
 298.5 254.663085938 308.25390625 255.53515625 310.997070312 256.170898438 c 5
 310.397460938 351.7734375 252.509765625 371 222 371 c 4
 158.166992188 371 111.91015625 303.754882812 108 254.879882812 c 4
221 -18 m 4
 96.328125 -18 27 63.646484375 27 182 c 4
 27 303.4296875 111.223632812 399 234 399 c 4
 334.939453125 399 386 322.168945312 386 237 c 4
 386 224.065429688 339.014648438 222 329 222 c 4
 318.0703125 222 120.1796875 226.803710938 105.5859375 226.995117188 c 5
 103.219726562 222.123046875 103 205.598632812 103 194 c 4
 103 88.580078125 175.619140625 32 249 32 c 4
 328.373046875 32 370.268554688 97 378 97 c 4
 383.227539062 97 397 84.6484375 397 79 c 4
 397 69.7373046875 323.001953125 -18 221 -18 c 4
EndSplineSet
Fore
SplineSet
108 255 m 0
 108 251 109 250 117 250 c 0
 122 250 224 252 274 254 c 0
 299 255 311 254 311 258 c 0
 311 350 253 371 222 371 c 0
 158 371 112 304 108 255 c 0
246 32 m 0
 330 32 372 97 378 97 c 0
 381 97 398 82 398 80 c 0
 398 74 327 -18 223 -18 c 0
 97 -18 28 66 28 185 c 0
 28 305 112 399 234 399 c 0
 335 399 386 322 386 237 c 0
 386 224 339 222 329 222 c 0
 318 222 121 227 106 227 c 1
 104 222 103 206 103 194 c 0
 103 91 174 32 246 32 c 0
EndSplineSet
Layer: 2
SplineSet
246 32 m 4
 326 32 374 98 378 98 c 4
 381 98 398 83 398 79 c 4
 398 75 328 -18 221 -18 c 4
 95 -18 28 66 28 185 c 4
 28 305 112 399 234 399 c 4
 335 399 386 322 386 237 c 4
 386 224 339 222 329 222 c 4
 318 222 121 227 106 227 c 5
 104 222 103 206 103 194 c 4
 103 91 174 32 246 32 c 4
EndSplineSet
AlternateSubs2: "'aalt' Access All Alternates lookup 0 subtable" e.sc e.sub e.sup e.denom e.numer
AlternateSubs2: "'aalt' Access All Alternates in Latin lookup 0 subtable" e.sc e.sub e.sup e.denom e.numer
Substitution2: "'smcp' Lowercase to Small Capitals in Latin lookup 11 subtable" e.sc
Substitution2: "'subs' Subscript in Latin lookup 8 subtable" e.sub
Substitution2: "'sups' Superscript in Latin lookup 7 subtable" e.sup
Substitution2: "denominators subtable" e.denom
Substitution2: "numerators subtable" e.numer
EndChar

StartChar: f
Encoding: 102 102 5
Width: 306
VWidth: 0
Flags: HW
AnchorPoint: "top" 218 780 basechar 0
AnchorPoint: "l;bl" 0 10 basechar 0
AnchorPoint: "l;x" 0 380 basechar 0
AnchorPoint: "l;o" 0 200 basechar 0
AnchorPoint: "r;bl" 306 10 basechar 0
AnchorPoint: "r;x" 306 380 basechar 0
AnchorPoint: "r;k;hi" 326 650 basechar 0
AnchorPoint: "r;o" 306 200 basechar 0
LayerCount: 3
Back
SplineSet
171.696289062 28 m 5
 237 28 l 4
 250.521484375 28 253 21.638671875 253 12 c 4
 253 2.802734375 251.84765625 -5 237 -5 c 4
 217.877929688 -5 159.912109375 -3 131 -3 c 4
 106.157226562 -3 78.130859375 -5 48 -5 c 4
 33.54296875 -5 32 0.6611328125 32 12 c 4
 32 21.765625 35.3740234375 28 47 28 c 4
 85.4033203125 28 l 5
 87.2734375 35.6005859375 88 60.654296875 88 88 c 4
 88 122.962890625 87 160.896484375 87 172 c 4
 87 232 l 4
 87 266.627929688 86.8046875 331.161132812 85.6181640625 343 c 5
 55 343 l 4
 43.4140625 343 38 345.596679688 38 359 c 4
 38 371.854492188 41.9443359375 375 52 375 c 4
 79 375 l 4
 86.833984375 375 86 373.592773438 86 384 c 4
 86 432.83984375 84 427.856445312 84 481 c 4
 84 585.526367188 123.631835938 681 243 681 c 4
 282.895507812 681 329 654.432617188 329 611 c 4
 329 585.668945312 293.458984375 561 278 561 c 4
 268.701171875 561 263.2265625 563.002929688 262.026367188 572.603515625 c 4
 255.89453125 618.591796875 251.865234375 653 218 653 c 4
 165.119140625 653 162 554.543945312 162 492 c 4
 162 448.965820312 160.997070312 431.83984375 160 388.96484375 c 5
 160 375.061523438 158.614257812 375 178 375 c 4
 294 375 l 4
 298.701171875 375 304 372.453125 304 367 c 4
 304 362.739257812 301.3359375 344 293 344 c 4
 178 344 l 4
 163.435546875 344 164 343.451171875 164 335 c 4
 164 169 l 4
 164 102.2109375 166.876953125 35.7119140625 171.696289062 28 c 5
EndSplineSet
Fore
SplineSet
173 28 m 2
 241 28 l 2
 253 28 253 24 253 12 c 0
 253 0 253 -5 239 -5 c 0
 220 -5 160 -3 131 -3 c 0
 106 -3 78 -5 48 -5 c 0
 34 -5 32 1 32 12 c 0
 32 22 35 28 47 28 c 2
 84 28 l 2
 88 28 88 64 88 88 c 0
 88 123 87 161 87 172 c 2
 87 232 l 2
 87 263 87 315 86 336 c 0
 86 343 84 343 80 343 c 2
 52 343 l 2
 40 343 38 346 38 359 c 0
 38 372 40 375 49 375 c 2
 79 375 l 2
 85 375 86 375 86 384 c 0
 86 433 84 428 84 481 c 0
 84 586 124 681 243 681 c 0
 283 681 329 654 329 611 c 0
 329 586 293 561 278 561 c 0
 269 561 263 563 262 573 c 0
 256 619 252 653 218 653 c 0
 165 653 162 555 162 492 c 0
 162 449 161 432 160 389 c 0
 160 375 164 375 183 375 c 2
 294 375 l 2
 299 375 304 375 304 368 c 0
 304 366 301 344 295 344 c 2
 183 344 l 2
 168 344 164 343 164 335 c 2
 164 169 l 2
 164 102 167 28 173 28 c 2
EndSplineSet
AlternateSubs2: "'aalt' Access All Alternates lookup 0 subtable" f.sc f.sub f.sup f.denom f.numer
AlternateSubs2: "'aalt' Access All Alternates in Latin lookup 0 subtable" f.sc f.sub f.sup f.denom f.numer
Substitution2: "'smcp' Lowercase to Small Capitals in Latin lookup 11 subtable" f.sc
Substitution2: "'subs' Subscript in Latin lookup 8 subtable" f.sub
Substitution2: "'sups' Superscript in Latin lookup 7 subtable" f.sup
Substitution2: "denominators subtable" f.denom
Substitution2: "numerators subtable" f.numer
EndChar

StartChar: g
Encoding: 103 103 6
Width: 425
VWidth: 0
Flags: HMW
HStem: -293 32<125.847 289.518> -54 57<79.3284 133> 367 31<155.167 256.397>
VStem: 12 51<-217.964 -117.176> 31 70<169.319 317.88> 45 33<3.04376 39.6055> 302 68<158.361 317.858> 360 63<-201.716 -110.786>
AnchorPoint: "top" 205 500 basechar 0
AnchorPoint: "l;bl" 0 10 basechar 0
AnchorPoint: "l;x" 0 380 basechar 0
AnchorPoint: "l;o" 0 200 basechar 0
AnchorPoint: "l;lo" 0 -260 basechar 0
AnchorPoint: "r;bl" 425 10 basechar 0
AnchorPoint: "r;x" 425 380 basechar 0
AnchorPoint: "r;o" 425 200 basechar 0
AnchorPoint: "r;lo" 425 -260 basechar 0
LayerCount: 3
Back
SplineSet
413 326 m 4
 403 325 365 318 357 314 c 5
 359 307 370 284 370 243 c 4
 370 157 325 115 253 88 c 4
 207 70 147 55 80 36 c 5
 79 36 78 34 78 30 c 4
 78 20 87 5 90 3 c 5
 216 -5 423 9 423 -124 c 4
 423 -228 330 -293 200 -293 c 4
 117 -293 12 -256 12 -173 c 4
 12 -101 103 -65 151 -55 c 4
 157 -54 l 5
 156 -54 155 -54 154 -54 c 4
 97 -54 l 4
 80 -54 61 -48 54 -33 c 5
 46 -13 45 5 45 16 c 4
 45 34 50 48 65 51 c 4
 90 57 109 62 141 71 c 5
 147 73 164 77 171 79 c 5
 167 80 164 81 160 82 c 4
 88 103 31 149 31 246 c 4
 31 336 120 398 210 398 c 4
 283 398 326 352 333 347 c 5
 341 348 377 364 407 366 c 4
 407 366 l 5
 407 366 l 4
 414 366 419 346 419 335 c 4
 419 331 418 326 413 326 c 4
199 -261 m 4
 274 -261 360 -233 360 -148 c 4
 360 -94 263 -71 189 -71 c 4
 142 -71 63 -103 63 -166 c 4
 63 -229 139 -261 199 -261 c 4
205 367 m 4
 150 367 101 315 101 250 c 4
 101 153 184 98 207 98 c 4
 244 98 302 155 302 244 c 4
 302 322 264 367 205 367 c 4
EndSplineSet
Fore
SplineSet
160 82 m 0xe4
 86 103 31 151 31 246 c 0xe8
 31 336 120 398 210 398 c 0
 286 398 329 347 334 347 c 0
 338 347 377 364 407 366 c 0
 414 366 419 346 419 335 c 0
 419 331 418 326 413 326 c 0
 403 325 358 317 358 314 c 0
 358 310 370 284 370 243 c 0
 370 157 325 115 253 88 c 0
 207 70 147 55 80 36 c 0
 79 36 78 34 78 30 c 0xe6
 78 20 88 3 90 3 c 0
 217 -5 423 9 423 -124 c 0
 423 -228 330 -293 200 -293 c 0
 117 -293 12 -256 12 -173 c 0xf1
 12 -108 85 -73 135 -59 c 0
 150 -54 154 -54 133 -54 c 2
 97 -54 l 2
 80 -54 61 -48 54 -33 c 0
 46 -13 45 5 45 16 c 0
 45 34 50 48 65 51 c 0
 69 52 169 78 169 79 c 0
 169 80 165 81 160 82 c 0xe4
199 -261 m 0
 274 -261 360 -233 360 -148 c 0
 360 -94 263 -71 189 -71 c 0
 142 -71 63 -103 63 -166 c 0xf1
 63 -229 139 -261 199 -261 c 0
205 367 m 0
 150 367 101 315 101 250 c 0
 101 153 184 98 207 98 c 0
 244 98 302 155 302 244 c 0xea
 302 322 264 367 205 367 c 0
EndSplineSet
AlternateSubs2: "'aalt' Access All Alternates lookup 0 subtable" g.sc g.sub g.sup g.denom g.numer
AlternateSubs2: "'aalt' Access All Alternates in Latin lookup 0 subtable" g.sc g.sub g.sup g.denom g.numer
Substitution2: "'smcp' Lowercase to Small Capitals in Latin lookup 11 subtable" g.sc
Substitution2: "'subs' Subscript in Latin lookup 8 subtable" g.sub
Substitution2: "'sups' Superscript in Latin lookup 7 subtable" g.sup
Substitution2: "denominators subtable" g.denom
Substitution2: "numerators subtable" g.numer
EndChar

StartChar: h
Encoding: 104 104 7
Width: 503
VWidth: 0
Flags: HW
HStem: -5 33<24.0022 84.0927 163.052 225 291.001 354.02 430.534 480.997> 341 47<208.102 319.249> 658 20G<157.5 165>
VStem: 78 91<406.736 633.001> 86 75<28 323.773 355.447 450.225> 356 74<28 301.294>
AnchorPoint: "top" 129 780 basechar 0
AnchorPoint: "l;bl" 0 10 basechar 0
AnchorPoint: "l;x" 0 380 basechar 0
AnchorPoint: "l;hi" 0 650 basechar 0
AnchorPoint: "l;o" 0 200 basechar 0
AnchorPoint: "r;bl" 503 10 basechar 0
AnchorPoint: "r;o" 503 200 basechar 0
LayerCount: 3
Back
SplineSet
85 43.015625 m 4
 86 137.041015625 86 190.98828125 86 263 c 4
 86 380.908203125 81.9970703125 541.984375 78.005859375 618.806640625 c 5
 76.8828125 633.407226562 77.7001953125 633 75 633 c 4
 72.599609375 633 18.5546875 626 14 626 c 4
 6.0498046875 626 7 636.504882812 7 640 c 4
 7 647.203125 7.0322265625 658.100585938 14.2724609375 659.91015625 c 4
 14.4404296875 659.952148438 l 5
 14.6123046875 659.974609375 l 4
 60.783203125 665.997070312 154.260742188 678 161 678 c 4
 171.276367188 678 169 662.879882812 169 655 c 4
 169 654.927734375 l 5
 168.99609375 654.85546875 l 4
 164.999023438 571.909179688 161 441.915039062 161 354 c 4
 161 348.833007812 161.26953125 344.927734375 161.42578125 344.020507812 c 5
 162.890625 344.739257812 164.67578125 345.904296875 167.506835938 347.602539062 c 5
 198.971679688 364.857421875 259.022460938 388 302 388 c 4
 416.94140625 388 430 287.6015625 430 180 c 4
 430 37 l 4
 430 26.732421875 429.004882812 28 438 28 c 4
 464 28 l 4
 477.319335938 28 481 22.0068359375 481 12 c 4
 481 2.4228515625 478.655273438 -5 464 -5 c 4
 444.79296875 -5 421.866210938 -3 393 -3 c 4
 368.150390625 -3 337.125976562 -5 307 -5 c 4
 292.54296875 -5 291 0.6611328125 291 12 c 4
 291 22.1298828125 295.588867188 28 307 28 c 4
 346 28 l 4
 355.260742188 28 353.05859375 25.783203125 354.006835938 36.2109375 c 5
 354.993164062 55.943359375 356 106.068359375 356 212 c 4
 356 283.544921875 328.49609375 341 263 341 c 4
 223.560546875 341 195.08203125 330.186523438 175.341796875 320.31640625 c 4
 161.405273438 313.348632812 161 310.24609375 161 308.01953125 c 4
 162 158 l 4
 162 117.01953125 162.002929688 68.97265625 162.997070312 43.140625 c 5
 164.004882812 24.9970703125 162.478515625 28 171 28 c 4
 209 28 l 4
 222.521484375 28 225 21.638671875 225 12 c 4
 225 2.802734375 223.84765625 -5 209 -5 c 4
 189.833007812 -5 154.88671875 -3 126 -3 c 4
 101.150390625 -3 70.1259765625 -5 40 -5 c 4
 25.54296875 -5 24 0.6611328125 24 12 c 4
 24 21.765625 27.3740234375 28 39 28 c 4
 78 28 l 4
 85.7763671875 28 85 27.5732421875 85 43.015625 c 4
EndSplineSet
Fore
SplineSet
78 619 m 0xf4
 77 634 76 633 72 633 c 0
 70 633 18 626 13 626 c 0
 7 626 7 631 7 641 c 0
 7 657 8 659 14 660 c 0
 71 668 154 678 161 678 c 0xec
 169 678 169 674 169 664 c 0xf4
 169 652 161 493 161 354 c 0
 161 344 160 343 168 348 c 0
 199 365 259 388 302 388 c 0
 417 388 430 288 430 180 c 2
 430 95 l 2
 430 60 430 28 433 28 c 2
 467 28 l 2
 480 28 481 22 481 12 c 0
 481 2 480 -5 467 -5 c 0
 448 -5 422 -3 393 -3 c 0
 368 -3 335 -5 305 -5 c 0
 291 -5 291 1 291 12 c 0
 291 22 292 28 303 28 c 2
 351 28 l 2
 356 28 356 108 356 212 c 0
 356 284 328 341 263 341 c 0
 224 341 195 330 175 320 c 0
 161 313 161 310 161 308 c 2
 161 308 162 126 162 116 c 0
 162 76 162 28 166 28 c 2
 212 28 l 2
 225 28 225 22 225 12 c 0
 225 3 225 -5 212 -5 c 0
 193 -5 155 -3 126 -3 c 0
 101 -3 68 -5 38 -5 c 0
 24 -5 24 1 24 12 c 0
 24 22 27 28 39 28 c 2
 82 28 l 2
 86 28 86 143 86 212 c 0xec
 86 339 83 529 78 619 c 0xf4
EndSplineSet
AlternateSubs2: "'aalt' Access All Alternates lookup 0 subtable" h.sc h.sub h.sup h.denom h.numer
AlternateSubs2: "'aalt' Access All Alternates in Latin lookup 0 subtable" h.sc h.sub h.sup h.denom h.numer
Substitution2: "'smcp' Lowercase to Small Capitals in Latin lookup 11 subtable" h.sc
Substitution2: "'subs' Subscript in Latin lookup 8 subtable" h.sub
Substitution2: "'sups' Superscript in Latin lookup 7 subtable" h.sup
Substitution2: "denominators subtable" h.denom
Substitution2: "numerators subtable" h.numer
EndChar

StartChar: i
Encoding: 105 105 8
Width: 249
VWidth: 0
Flags: HW
HStem: -5 33<25.0008 91.8861 169.682 226.997> 352 29<23.5048 88.9997> 509 102<88.5314 166.391>
VStem: 74 108<525.049 595.322> 93 74<28 351.99>
AnchorPoint: "l;bl" 0 10 basechar 0
AnchorPoint: "l;x" 0 380 basechar 0
AnchorPoint: "l;o" 0 200 basechar 0
AnchorPoint: "r;bl" 249 10 basechar 0
AnchorPoint: "r;x" 249 380 basechar 0
AnchorPoint: "r;o" 249 200 basechar 0
AnchorPoint: "l;hi" 40 650 basechar 0
AnchorPoint: "r;hi" 219 650 basechar 0
LayerCount: 3
Back
SplineSet
92 37 m 0
 93 66 93 95 93 125 c 0
 93 195 92 266 89 339 c 0
 88 353 88 352 79 352 c 0
 76 352 33 350 29 350 c 0
 25 350 22 353 22 357 c 0
 22 360 22 363 26 371 c 0
 30 379 32 380 44 381 c 0
 63 382 152 386 157 386 c 0
 164 386 167 383 167 377 c 2
 167 207 l 2
 167 150 167 94 170 37 c 0
 170 28 169 28 177 28 c 2
 213 28 l 2
 225 28 227 21 227 12 c 0
 227 3 226 -5 213 -5 c 0
 194 -5 154 -3 129 -3 c 0
 104 -3 59 -5 40 -5 c 0
 27 -5 26 1 26 12 c 0
 26 22 29 28 43 28 c 2
 84 28 l 2
 94 28 92 27 92 37 c 0
182 568 m 0
 182 532 147 509 118 509 c 0
 96 509 74 523 74 553 c 0
 74 591 112 611 137 611 c 0
 159 611 182 599 182 568 c 0
EndSplineSet
Fore
SplineSet
93 125 m 0xe8
 93 195 92 266 89 339 c 0
 88 353 84 352 77 352 c 0
 74 352 33 350 29 350 c 0
 25 350 20 350 20 354 c 0
 20 357 22 363 25 371 c 0
 29 381 32 381 44 381 c 0
 99 383 152 386 157 386 c 0
 167 386 167 383 167 377 c 2
 167 207 l 2
 167 183 167 28 172 28 c 2
 215 28 l 2
 227 28 227 23 227 12 c 0
 227 2 226 -5 215 -5 c 0
 196 -5 154 -3 129 -3 c 0
 104 -3 56 -5 37 -5 c 0
 25 -5 25 1 25 12 c 0
 25 22 26 28 40 28 c 2
 90 28 l 2
 93 28 93 104 93 125 c 0xe8
182 568 m 0xf0
 182 532 147 509 118 509 c 0
 96 509 74 523 74 553 c 0
 74 591 112 611 137 611 c 0
 159 611 182 599 182 568 c 0xf0
EndSplineSet
AlternateSubs2: "'aalt' Access All Alternates lookup 0 subtable" i.sc i.sub i.sup i.denom i.numer
AlternateSubs2: "'aalt' Access All Alternates in Latin lookup 0 subtable" i.sc i.sub i.sup i.denom i.numer i.TRK
Substitution2: "'smcp' Lowercase to Small Capitals in Latin lookup 11 subtable" i.sc
Substitution2: "'subs' Subscript in Latin lookup 8 subtable" i.sub
Substitution2: "'sups' Superscript in Latin lookup 7 subtable" i.sup
Substitution2: "denominators subtable" i.denom
Substitution2: "numerators subtable" i.numer
Substitution2: "turkish subtable" i.TRK
EndChar

StartChar: j
Encoding: 106 106 9
Width: 292
VWidth: 0
Flags: HMW
HStem: -278 79<16.1312 91.125> 342 33<43.8712 125.511> 536 102<91.5314 169.391>
VStem: 77 108<552.049 622.322> 127 78<16.5076 345.001>
AnchorPoint: "r;hi" 222 650 basechar 0
AnchorPoint: "l;hi" 43 650 basechar 0
AnchorPoint: "l;bl" 10 10 basechar 0
AnchorPoint: "l;x" 0 380 basechar 0
AnchorPoint: "l;o" 10 200 basechar 0
AnchorPoint: "l;lo" 0 -260 basechar 0
AnchorPoint: "r;bl" 292 10 basechar 0
AnchorPoint: "r;x" 292 380 basechar 0
AnchorPoint: "r;o" 292 200 basechar 0
LayerCount: 3
Back
SplineSet
185 595 m 0
 185 559 150 536 121 536 c 0
 99 536 77 550 77 580 c 0
 77 618 115 638 140 638 c 0
 162 638 185 626 185 595 c 0
46 -199 m 0
 67 -199 92 -203 101 -203 c 0
 127 -203 136 -188 136 -173 c 0
 136 -134 127 -41 127 258 c 0
 127 282 127 307 125 334 c 0
 124 346 123 345 119 345 c 0
 112 345 58 342 49 342 c 0
 44 342 43 346 43 349 c 0
 43 353 45 360 47 365 c 0
 50 373 51 376 65 376 c 0
 116 377 185 381 190 381 c 0
 199 381 200 372 200 361 c 0
 200 268.340820312 205 158.150390625 205 27 c 0
 205 -80 198 -156 150 -218 c 0
 131 -242 54 -278 24 -278 c 0
 9 -278 2 -267 2 -255 c 0
 2 -232 29 -199 46 -199 c 0
EndSplineSet
Fore
SplineSet
185 595 m 0xf0
 185 559 150 536 121 536 c 0
 99 536 77 550 77 580 c 0
 77 618 115 638 140 638 c 0
 162 638 185 626 185 595 c 0xf0
42 346 m 0
 42 353 46 375 53 375 c 0
 111 377 187 381 190 381 c 0
 201 381 200 372 200 355 c 0
 200 266 205 155 205 27 c 0
 205 -80 198 -156 150 -218 c 0
 131 -242 54 -278 24 -278 c 0
 9 -278 2 -267 2 -255 c 0
 2 -232 30 -199 44 -199 c 0
 65 -199 92 -203 101 -203 c 0
 127 -203 136 -188 136 -173 c 0
 136 -134 127 -41 127 258 c 0xe8
 127 282 127 307 125 334 c 0
 124 346 123 345 119 345 c 0
 112 345 58 342 49 342 c 0
 44 342 42 341 42 346 c 0
EndSplineSet
AlternateSubs2: "'aalt' Access All Alternates lookup 0 subtable" j.sc j.sub j.sup j.denom j.numer
AlternateSubs2: "'aalt' Access All Alternates in Latin lookup 0 subtable" j.sc j.sub j.sup j.denom j.numer
Substitution2: "'smcp' Lowercase to Small Capitals in Latin lookup 11 subtable" j.sc
Substitution2: "'subs' Subscript in Latin lookup 8 subtable" j.sub
Substitution2: "'sups' Superscript in Latin lookup 7 subtable" j.sup
Substitution2: "denominators subtable" j.denom
Substitution2: "numerators subtable" j.numer
EndChar

StartChar: k
Encoding: 107 107 10
Width: 449
VWidth: 0
Flags: HW
HStem: -5 33<18.0004 82 152.327 198.992 275.001 301 393.641 442> 190 22<152.024 189.537> 357 33<248.003 285.428 335.281 397.997> 639 35<6.0032 73.8289> 642 42<6.08435 77.103>
VStem: 82 70<28 189.975 212 467.104>
DStem2: 245 215 194 174 0.653282 -0.757115<-16.2133 172.553>
AnchorPoint: "cedilla" 228 -100 basechar 0
AnchorPoint: "l;bl" 0 10 basechar 0
AnchorPoint: "l;x" 0 380 basechar 0
AnchorPoint: "l;hi" 0 650 basechar 0
AnchorPoint: "l;o" 0 200 basechar 0
AnchorPoint: "r;bl" 449 10 basechar 0
AnchorPoint: "r;x" 449 380 basechar 0
AnchorPoint: "r;o" 439 200 basechar 0
LayerCount: 3
Back
SplineSet
292.420898438 345.532226562 m 4
 295.930664062 351.548828125 297.3359375 355.124023438 297.296875 355.483398438 c 5
 296.857421875 355.896484375 293.328125 357 285 357 c 4
 265 357 l 4
 251.478515625 357 249 363.361328125 249 373 c 4
 249 382.577148438 251.344726562 390 266 390 c 4
 276.260742188 390 303.135742188 388 324 388 c 4
 342.817382812 388 365.7734375 390 381 390 c 4
 392.293945312 390 397 385.047851562 397 373 c 4
 397 363.234375 393.625976562 357 382 357 c 4
 350.322265625 357 l 5
 340.33203125 352.171875 262.640625 257.229492188 245.352539062 235.138671875 c 5
 239.623046875 227.975585938 237.106445312 224.96875 237.001953125 224.630859375 c 5
 237.194335938 224.026367188 239.90234375 221.223632812 245.271484375 214.959960938 c 4
 396.288085938 39.9404296875 l 5
 406.206054688 28.0390625 407.645507812 28 416 28 c 4
 426 28 l 4
 439.521484375 28 442 21.638671875 442 12 c 4
 442 2.802734375 440.84765625 -5 426 -5 c 4
 411.779296875 -5 383.872070312 -3 359 -3 c 4
 334.129882812 -3 305.211914062 -5 291 -5 c 4
 276.54296875 -5 275 0.6611328125 275 12 c 4
 275 21.765625 278.374023438 28 290 28 c 4
 301 28 l 4
 305.010742188 28 306.9453125 28.7822265625 307.551757812 29.2666015625 c 4
 308.395507812 29.9423828125 307.838867188 33.107421875 303.681640625 38.0966796875 c 5
 193.657226562 174.125976562 l 4
 181.266601562 189.614257812 182.779296875 190 174 190 c 4
 160 190 l 4
 151.118164062 190 152 189.19921875 152 177 c 4
 152 43 l 4
 152 25.1533203125 151.369140625 28 160 28 c 4
 183 28 l 4
 196.521484375 28 199 21.638671875 199 12 c 4
 199 2.802734375 197.84765625 -5 183 -5 c 4
 163.780273438 -5 143.858398438 -3 115 -3 c 4
 82.095703125 -3 46.1904296875 -5 35 -5 c 4
 20.54296875 -5 19 0.6611328125 19 12 c 4
 19 21.765625 22.3740234375 28 34 28 c 4
 75 28 l 4
 82.7763671875 28 82 27.5703125 82 43 c 4
 82 236 l 4
 82 423.69140625 81.3134765625 621.1171875 74.6357421875 640.969726562 c 5
 64.236328125 640.577148438 29.77734375 638 20 638 c 4
 10.4267578125 638 7 640.720703125 7 649 c 4
 7 658 l 4
 7 666.458007812 9.0048828125 673.831054688 21.74609375 674.989257812 c 5
 59.916015625 678.002929688 146.576171875 684 153 684 c 4
 161.936523438 684 163 679.678710938 163 667.962890625 c 5
 152 219.962890625 l 5
 152 211.459960938 150.264648438 212 165 212 c 4
 187 212 l 4
 200.02734375 212 206.209960938 223.298828125 213.620117188 232.826171875 c 5
 241.575195312 269.767578125 269.526367188 307.70703125 292.420898438 345.532226562 c 4
EndSplineSet
Fore
SplineSet
199 9 m 0xec
 199 2 198 -5 186 -5 c 0
 167 -5 144 -3 115 -3 c 0
 82 -3 42 -5 31 -5 c 0
 18 -5 18 1 18 12 c 0
 18 22 18 28 30 28 c 2
 75 28 l 2
 83 28 82 28 82 43 c 2
 82 236 l 2
 82 414 81 642 74 642 c 0xec
 71 642 26 639 17 639 c 0
 7 639 6 640 6 649 c 2
 6 660 l 2
 6 668 7 673 18 674 c 0xf4
 56 677 149 684 155 684 c 0
 164 684 163 680 163 668 c 2
 152 222 l 2
 152 213 153 212 165 212 c 2
 187 212 l 2
 200 212 207 223 214 233 c 0
 242 270 269 308 292 346 c 0
 299 356 295 357 285 357 c 2
 261 357 l 2
 248 357 248 363 248 373 c 0
 248 383 249 390 262 390 c 0
 272 390 298 388 324 388 c 0
 350 388 371 390 386 390 c 0
 395 390 398 385 398 373 c 0
 398 363 397 357 385 357 c 2
 353 357 l 2
 344 357 266 260 245 235 c 0
 235 223 237 225 245 215 c 2
 396 40 l 2
 406 28 408 28 416 28 c 2
 428 28 l 2
 442 28 442 24 442 12 c 0
 442 1 442 -5 428 -5 c 0
 414 -5 384 -3 359 -3 c 0
 334 -3 302 -5 288 -5 c 0
 275 -5 275 1 275 12 c 0
 275 22 276 28 288 28 c 2
 301 28 l 2
 311 28 309 31 304 38 c 2
 194 174 l 2
 182 189 181 190 172 190 c 2
 160 190 l 2
 154 190 152 189 152 177 c 2
 152 93 l 2
 152 59 152 28 154 28 c 2
 186 28 l 2
 199 28 199 22 199 9 c 0xec
EndSplineSet
AlternateSubs2: "'aalt' Access All Alternates lookup 0 subtable" k.sc k.sub k.sup k.denom k.numer
AlternateSubs2: "'aalt' Access All Alternates in Latin lookup 0 subtable" k.sc k.sub k.sup k.denom k.numer
Substitution2: "'smcp' Lowercase to Small Capitals in Latin lookup 11 subtable" k.sc
Substitution2: "'subs' Subscript in Latin lookup 8 subtable" k.sub
Substitution2: "'sups' Superscript in Latin lookup 7 subtable" k.sup
Substitution2: "denominators subtable" k.denom
Substitution2: "numerators subtable" k.numer
EndChar

StartChar: z
Encoding: 122 122 11
Width: 388
VWidth: 0
Flags: HW
AnchorPoint: "top" 195 500 basechar 0
AnchorPoint: "l;bl" 0 10 basechar 0
AnchorPoint: "l;x" 0 380 basechar 0
AnchorPoint: "l;o" 0 200 basechar 0
AnchorPoint: "r;bl" 388 10 basechar 0
AnchorPoint: "r;x" 388 380 basechar 0
AnchorPoint: "r;o" 388 200 basechar 0
LayerCount: 3
Fore
SplineSet
37.5576171875 31.744140625 m 2
 251.486328125 346.638671875 l 1
 255.565429688 353.165039062 261.129882812 359.701171875 262.575195312 362.124023438 c 1
 259.702148438 362.8125 256.862304688 363 252.048828125 363 c 1
 97.1162109375 358.001953125 l 1
 75.3291015625 357.01171875 76.748046875 358.53515625 72.919921875 341.310546875 c 1
 62.8984375 301.223632812 l 1
 61.0009765625 294.583007812 59.8388671875 287 47 287 c 0
 38.8447265625 287 28 288.212890625 28 296 c 0
 28 299.747070312 33.9873046875 350.065429688 37.0146484375 376.296875 c 0
 38.0693359375 388.956054688 41.1982421875 392 54 392 c 0
 335 392 l 0
 350.40234375 392 361 389.338867188 361 380 c 0
 361 373.971679688 356.158203125 370.79296875 351.514648438 363.36328125 c 1
 141.49609375 53.3359375 l 0
 137.389648438 47.17578125 133 40.353515625 133 37 c 0
 133 35.064453125 135.149414062 30 144.965820312 30 c 1
 318.965820312 34 l 1
 332.5546875 34 330.137695312 32.12109375 332.02734375 44.408203125 c 1
 339.02734375 102.408203125 l 1
 341.180664062 116.405273438 343.961914062 117 359 117 c 0
 367.727539062 117 371 113.55078125 371 108 c 0
 371 100.70703125 368.000976562 43.912109375 365.9921875 14.7861328125 c 0
 364.954101562 0.2529296875 362.833984375 -3 347 -3 c 0
 52 -3 l 0
 38.98828125 -3 27 -3.1884765625 27 10 c 0
 27 16.419921875 31.50390625 23.671875 37.5576171875 31.744140625 c 2
EndSplineSet
AlternateSubs2: "'aalt' Access All Alternates lookup 0 subtable" z.sc z.sub z.sup z.denom z.numer
AlternateSubs2: "'aalt' Access All Alternates in Latin lookup 0 subtable" z.sc z.sub z.sup z.denom z.numer
Substitution2: "'smcp' Lowercase to Small Capitals in Latin lookup 11 subtable" z.sc
Substitution2: "'subs' Subscript in Latin lookup 8 subtable" z.sub
Substitution2: "'sups' Superscript in Latin lookup 7 subtable" z.sup
Substitution2: "denominators subtable" z.denom
Substitution2: "numerators subtable" z.numer
EndChar

StartChar: l
Encoding: 108 108 12
Width: 257
VWidth: 0
Flags: HMW
HStem: -5 33<27.0008 93.5869 171.394 231> 643 38<18.8154 83.9994>
VStem: 95 76<28 343.017>
AnchorPoint: "cedilla" 137 -100 basechar 0
AnchorPoint: "caron" 202 550 basechar 0
AnchorPoint: "top" 116 780 basechar 0
AnchorPoint: "l;bl" 0 10 basechar 0
AnchorPoint: "l;x" 5 380 basechar 0
AnchorPoint: "l;hi" 0 650 basechar 0
AnchorPoint: "l;o" 5 200 basechar 0
AnchorPoint: "r;bl" 257 10 basechar 0
AnchorPoint: "r;x" 257 380 basechar 0
AnchorPoint: "r;hi" 257 650 basechar 0
AnchorPoint: "r;o" 257 200 basechar 0
LayerCount: 3
Back
SplineSet
171 64 m 4
 171 38.966796875 172.413085938 28 176 28 c 4
 215 28 l 4
 228.521484375 28 231 21.638671875 231 12 c 4
 231 2.802734375 229.84765625 -5 215 -5 c 4
 195.818359375 -5 164.88671875 -3 136 -3 c 4
 111.135742188 -3 73.1142578125 -5 43 -5 c 4
 28.54296875 -5 27 0.6611328125 27 12 c 4
 27 21.765625 30.3740234375 28 42 28 c 4
 92.326171875 28 l 5
 94.8349609375 38.1748046875 95 88.080078125 95 110 c 4
 95 158.869140625 91.974609375 538.146484375 84.015625 626.690429688 c 5
 81.9306640625 644.411132812 83.912109375 643 76 643 c 4
 71.4111328125 643 32.44140625 639 28 639 c 4
 21.93359375 639 17 639.280273438 17 645 c 4
 17 648.540039062 18.0302734375 654.423828125 19.0302734375 661.423828125 c 4
 19.0517578125 661.577148438 l 5
 19.08984375 661.727539062 l 4
 21.162109375 670.017578125 22.65234375 670.979492188 31.7216796875 671.987304688 c 5
 71.943359375 675.00390625 148.513671875 681 155 681 c 4
 164.640625 681 165 674.255859375 165 663.009765625 c 4
 166 356.049804688 171 265.068359375 171 64 c 4
EndSplineSet
Fore
SplineSet
171 64 m 0xd0
 171 39 172 28 176 28 c 2
 219 28 l 2
 231 28 231 23 231 12 c 0
 231 0 231 -5 219 -5 c 0
 200 -5 165 -3 136 -3 c 0
 111 -3 70 -5 40 -5 c 0
 28 -5 27 1 27 12 c 0
 27 22 28 28 39 28 c 2
 90 28 l 2
 95 28 95 83 95 110 c 0xd0
 95 159 92 538 84 627 c 0
 82 645 78 643 73 643 c 0
 67 643 25 639 21 639 c 0
 17 639 16 639 16 644 c 0
 16 645 17 656 19 663 c 0
 21 672 23 671 31 672 c 0
 71 675 149 681 155 681 c 0
 165 681 165 674 165 663 c 0xe0
 166 356 171 265 171 64 c 0xd0
EndSplineSet
AlternateSubs2: "'aalt' Access All Alternates lookup 0 subtable" l.sc l.sub l.sup l.denom l.numer
AlternateSubs2: "'aalt' Access All Alternates in Latin lookup 0 subtable" l.sc l.sub l.sup l.denom l.numer l.CAT
Substitution2: "'smcp' Lowercase to Small Capitals in Latin lookup 11 subtable" l.sc
Substitution2: "'subs' Subscript in Latin lookup 8 subtable" l.sub
Substitution2: "'sups' Superscript in Latin lookup 7 subtable" l.sup
Substitution2: "denominators subtable" l.denom
Substitution2: "numerators subtable" l.numer
Substitution2: "catalan subtable" l.CAT
EndChar

StartChar: m
Encoding: 109 109 13
Width: 739
VWidth: 0
Flags: HW
HStem: -5 33<25.0032 86.2969 163.155 216.997 283.003 339.022 413.526 463.991 523.003 582.709 661.428 716.997> 341 50<224.93 321.047 454.139 558.448> 344 40<24.5858 88.907>
VStem: 90 73<28 319.747 340 347> 341 72<28 322.738> 587 76<28 309.906>
AnchorPoint: "top" 381 500 basechar 0
AnchorPoint: "l;bl" 0 10 basechar 0
AnchorPoint: "l;x" 0 380 basechar 0
AnchorPoint: "l;o" 0 200 basechar 0
AnchorPoint: "r;bl" 739 10 basechar 0
AnchorPoint: "r;o" 739 200 basechar 0
LayerCount: 3
Back
SplineSet
162 342 m 6
 162 336.94921875 162.12109375 333.333007812 162.28515625 331.390625 c 5
 167.158203125 335.368164062 l 4
 167.217773438 335.4140625 l 5
 167.279296875 335.458007812 l 4
 197.379882812 356.52734375 251.8515625 391 310 391 c 4
 378.474609375 391 394.674804688 349.741210938 399.249023438 340.346679688 c 5
 401.80859375 341.419921875 404.534179688 343.068359375 409.255859375 346.44140625 c 4
 409.314453125 346.482421875 l 5
 409.374023438 346.520507812 l 4
 440.82421875 366.811523438 497.009765625 389 536 389 c 4
 635.063476562 389 663 326.646484375 663 240 c 4
 663 155.95703125 661 82.92578125 661 35 c 4
 661 29.0419921875 661.411132812 28 668 28 c 4
 700 28 l 4
 713.319335938 28 717 22.0068359375 717 12 c 4
 717 2.4228515625 714.655273438 -5 700 -5 c 4
 680.809570312 -5 652.87890625 -3 624 -3 c 4
 599.15234375 -3 569.127929688 -5 539 -5 c 4
 524.54296875 -5 523 0.6611328125 523 12 c 4
 523 22.7568359375 529.990234375 28 541 28 c 4
 579.912109375 28 l 5
 586.547851562 43.515625 587 172.315429688 587 216 c 4
 587 282.951171875 571.321289062 341 501 341 c 4
 455.193359375 341 413.221679688 318.31640625 407.030273438 313.071289062 c 5
 407.541992188 305.774414062 413 292.94921875 413 236 c 4
 413 66 l 4
 413 46.767578125 413.478515625 31.244140625 414.358398438 28 c 5
 447 28 l 4
 460.319335938 28 464 22.0068359375 464 12 c 4
 464 2.4228515625 461.655273438 -5 447 -5 c 4
 427.799804688 -5 402.87109375 -3 374 -3 c 4
 349.185546875 -3 331.158203125 -5 301 -5 c 4
 286.918945312 -5 283 -0.0380859375 283 12 c 4
 283 21.765625 286.374023438 28 298 28 c 4
 336.094726562 28 l 5
 339.7734375 35.65234375 341 79.423828125 341 122 c 4
 341 165.98046875 340 208.890625 340 216 c 4
 340 284.68359375 336.91796875 341 271 341 c 4
 221.75390625 341 188.315429688 323.236328125 172.837890625 311.627929688 c 5
 163.223632812 303.9375 163 301.247070312 163 296 c 4
 163 68 l 4
 163 28.3408203125 162.397460938 28 179 28 c 4
 200 28 l 4
 213.319335938 28 217 22.0068359375 217 12 c 4
 217 2.4228515625 214.655273438 -5 200 -5 c 4
 180.82421875 -5 148.872070312 -3 124 -3 c 4
 99.1103515625 -3 56.1572265625 -5 40 -5 c 4
 30.962890625 -5 25 -1.365234375 25 11 c 4
 25 20.171875 26.86328125 28 39 28 c 4
 78 28 l 4
 83.3603515625 28 85.8828125 37.0478515625 88.0146484375 57.298828125 c 4
 89.982421875 76.9697265625 90 118.02734375 90 163 c 4
 90 272 l 4
 90 306.563476562 88.4013671875 338.533203125 86.97265625 346.922851562 c 5
 76.037109375 346.415039062 34.8896484375 344 30 344 c 4
 25.5986328125 344 22 345.885742188 22 350 c 4
 22 352.95703125 23.9912109375 362.459960938 26.171875 369.000976562 c 5
 29.3388671875 377.447265625 30.0556640625 378.01171875 43.8203125 378.995117188 c 5
 84.94921875 381.000976562 138.672851562 384 144 384 c 4
 159.4453125 384 162 381.077148438 162 370 c 4
 162 342 l 6
EndSplineSet
Fore
SplineSet
162 370 m 2xbc
 162 340 l 2
 162 331 162 331 167 335 c 0
 197 356 252 391 310 391 c 0
 386 391 396 340 399 340 c 0
 402 340 470 389 536 389 c 0
 635 389 663 327 663 240 c 0
 663 202 661 80 661 70 c 0
 661 45 662 28 663 28 c 2
 703 28 l 2
 716 28 717 22 717 12 c 0
 717 2 716 -5 703 -5 c 0
 684 -5 653 -3 624 -3 c 0
 599 -3 566 -5 536 -5 c 0
 524 -5 523 1 523 12 c 0
 523 23 527 28 538 28 c 2
 579 28 l 2
 587 28 587 180 587 216 c 0
 587 283 571 341 501 341 c 0
 454 341 407 315 407 313 c 0
 407 306 413 296 413 236 c 2
 413 124 l 2
 413 75 413 28 415 28 c 2
 451 28 l 2
 464 28 464 22 464 12 c 0
 464 2 461 -5 451 -5 c 0
 432 -5 403 -3 374 -3 c 0
 349 -3 329 -5 299 -5 c 0
 285 -5 283 0 283 12 c 0
 283 22 284 28 296 28 c 2
 334 28 l 2
 341 28 341 80 341 122 c 0
 341 166 340 209 340 216 c 0
 340 285 337 341 271 341 c 0xdc
 222 341 188 324 173 312 c 0
 163 304 163 301 163 296 c 2
 163 57 l 2
 163 28 164 28 179 28 c 2
 203 28 l 2
 216 28 217 22 217 12 c 0
 217 2 216 -5 203 -5 c 0
 184 -5 149 -3 124 -3 c 0
 99 -3 53 -5 37 -5 c 0
 28 -5 25 -2 25 11 c 0
 25 21 26 28 36 28 c 2
 78 28 l 2
 83 28 86 37 88 57 c 0
 90 77 90 118 90 163 c 2
 90 272 l 2
 90 300 89 327 88 340 c 0
 87 347 88 347 82 347 c 0
 66 346 30 344 26 344 c 0
 23 344 21 345 21 350 c 0
 21 353 24 362 26 369 c 0
 29 379 29 378 43 379 c 0
 84 381 145 384 150 384 c 0
 162 384 162 381 162 370 c 2xbc
EndSplineSet
AlternateSubs2: "'aalt' Access All Alternates lookup 0 subtable" m.sc m.sub m.sup m.denom m.numer
AlternateSubs2: "'aalt' Access All Alternates in Latin lookup 0 subtable" m.sc m.sub m.sup m.denom m.numer
Substitution2: "'smcp' Lowercase to Small Capitals in Latin lookup 11 subtable" m.sc
Substitution2: "'subs' Subscript in Latin lookup 8 subtable" m.sub
Substitution2: "'sups' Superscript in Latin lookup 7 subtable" m.sup
Substitution2: "denominators subtable" m.denom
Substitution2: "numerators subtable" m.numer
EndChar

StartChar: n
Encoding: 110 110 14
Width: 514
VWidth: 0
Flags: HW
HStem: -5 33<28.0008 88.7494 167.001 229 300.004 361.625 437 491.997> 339 48<222.725 333.125> 343 34<23.3473 80.826>
VStem: 94 73<28 313.478 328 347.002> 365 77<28 306.659>
AnchorPoint: "cedilla" 264 -100 basechar 0
AnchorPoint: "top" 272 500 basechar 0
AnchorPoint: "l;bl" 0 10 basechar 0
AnchorPoint: "l;x" 0 380 basechar 0
AnchorPoint: "l;o" 0 200 basechar 0
AnchorPoint: "r;bl" 514 10 basechar 0
AnchorPoint: "r;o" 514 200 basechar 0
LayerCount: 3
Back
SplineSet
92.0068359375 335.803710938 m 4
 91.046875 350.1953125 92.376953125 347 83 347 c 4
 80.3857421875 347 32.349609375 343 28 343 c 4
 23.0400390625 343 22 347.056640625 22 350 c 4
 22 354.262695312 25.1806640625 362.030273438 27.2021484375 367.083984375 c 5
 30.310546875 375.37109375 31.0966796875 376.014648438 44.7861328125 376.9921875 c 4
 58.8271484375 377.995117188 121.788085938 381.9921875 149.80078125 383.993164062 c 4
 166.004882812 385.073242188 166 380.107421875 166 370 c 4
 166 328 l 4
 166 328 174.801757812 334.580078125 176.42578125 335.553710938 c 5
 206.013671875 354.29296875 243.916992188 387 306 387 c 4
 424.452148438 387 442 305.098632812 442 207 c 4
 442 151.905273438 437 51.7666015625 437 37 c 4
 437 26.732421875 436.004882812 28 445 28 c 4
 475 28 l 4
 487.654296875 28 492 25.185546875 492 12 c 4
 492 2.943359375 491.00390625 -5 477 -5 c 4
 457.806640625 -5 430.875976562 -3 402 -3 c 4
 377.15234375 -3 347.127929688 -5 317 -5 c 4
 301.983398438 -5 300 -0.642578125 300 11 c 4
 300 24.1083984375 304.93359375 28 316 28 c 4
 353 28 l 4
 362.26171875 28 360.055664062 25.7509765625 361.010742188 36.2490234375 c 4
 362.997070312 60.0947265625 365 106.038085938 365 212 c 4
 365 283.747070312 346.528320312 339 272 339 c 4
 232.901367188 339 204.563476562 321.427734375 184.341796875 311.31640625 c 4
 168.891601562 303.591796875 168 299.044921875 168 291 c 4
 168 208.975585938 167 125.975585938 167 44 c 4
 167 27.904296875 165.829101562 28 177 28 c 4
 213 28 l 4
 226.521484375 28 229 21.638671875 229 12 c 4
 229 2.802734375 227.84765625 -5 213 -5 c 4
 193.828125 -5 160.883789062 -3 132 -3 c 4
 107.145507812 -3 74.1220703125 -5 44 -5 c 4
 29.54296875 -5 28 0.6611328125 28 12 c 4
 28 21.765625 31.3740234375 28 43 28 c 4
 82 28 l 4
 89.6845703125 28 87.9521484375 27.380859375 89.0048828125 43.17578125 c 5
 92 102.06640625 94 173.078125 94 237 c 4
 94 270.999023438 93.9970703125 304.942382812 92.0068359375 335.803710938 c 4
EndSplineSet
Fore
SplineSet
92 336 m 0xd8
 91 350 87 347 81 347 c 0
 78 347 29 343 25 343 c 0
 21 343 20 345 20 348 c 0
 20 352 24 362 26 367 c 0
 29 375 28 376 42 377 c 0xb8
 56 378 124 382 153 384 c 0
 168 385 166 380 166 370 c 2
 166 328 l 1
 166 328 174 335 176 336 c 0
 206 355 244 387 306 387 c 0
 424 387 442 305 442 207 c 0
 442 152 437 52 437 37 c 0
 437 28 437 28 445 28 c 2
 475 28 l 2
 488 28 492 25 492 12 c 0
 492 3 491 -5 477 -5 c 0
 458 -5 431 -3 402 -3 c 0
 377 -3 345 -5 315 -5 c 0
 300 -5 300 -1 300 11 c 0
 300 24 305 28 316 28 c 2
 359 28 l 2
 363 28 365 112 365 212 c 0
 365 284 347 339 272 339 c 0
 233 339 204 321 184 311 c 0
 169 303 168 299 168 291 c 0
 168 209 167 126 167 44 c 0
 167 28 168 28 177 28 c 2
 215 28 l 2
 229 28 229 22 229 12 c 0
 229 3 229 -5 216 -5 c 0
 197 -5 161 -3 132 -3 c 0
 107 -3 71 -5 41 -5 c 0
 28 -5 28 1 28 12 c 0
 28 22 29 28 41 28 c 2
 86 28 l 2
 92 28 94 205 94 237 c 0
 94 271 94 305 92 336 c 0xd8
EndSplineSet
AlternateSubs2: "'aalt' Access All Alternates lookup 0 subtable" n.sc n.sub n.sup n.denom n.numer
AlternateSubs2: "'aalt' Access All Alternates in Latin lookup 0 subtable" n.sc n.sub n.sup n.denom n.numer
Substitution2: "'smcp' Lowercase to Small Capitals in Latin lookup 11 subtable" n.sc
Substitution2: "'subs' Subscript in Latin lookup 8 subtable" n.sub
Substitution2: "'sups' Superscript in Latin lookup 7 subtable" n.sup
Substitution2: "denominators subtable" n.denom
Substitution2: "numerators subtable" n.numer
EndChar

StartChar: o
Encoding: 111 111 15
Width: 446
VWidth: 0
Flags: HW
AnchorPoint: "top" 230 500 basechar 0
AnchorPoint: "l;o" 0 200 basechar 0
AnchorPoint: "r;o" 446 200 basechar 0
LayerCount: 3
Fore
SplineSet
223 367 m 0
 131.895507812 367 104 279.09375 104 169 c 0
 104 94.5771484375 143.615234375 14 219 14 c 0
 316.021484375 14 340 113.862304688 340 204 c 0
 340 281.604492188 304.291992188 367 223 367 c 0
235 399 m 0
 345.918945312 399 419 308.282226562 419 197 c 0
 419 72.7197265625 344.8046875 -18 219 -18 c 0
 110.212890625 -18 27 72.5009765625 27 183 c 0
 27 302.431640625 110.2265625 399 235 399 c 0
EndSplineSet
AlternateSubs2: "'aalt' Access All Alternates lookup 0 subtable" o.sc o.sub o.sup o.denom o.numer
AlternateSubs2: "'aalt' Access All Alternates in Latin lookup 0 subtable" o.sc o.sub o.sup o.denom o.numer
Substitution2: "'smcp' Lowercase to Small Capitals in Latin lookup 11 subtable" o.sc
Substitution2: "'subs' Subscript in Latin lookup 8 subtable" o.sub
Substitution2: "'sups' Superscript in Latin lookup 7 subtable" o.sup
Substitution2: "denominators subtable" o.denom
Substitution2: "numerators subtable" o.numer
EndChar

StartChar: p
Encoding: 112 112 16
Width: 512
VWidth: 0
Flags: HW
AnchorPoint: "top" 280 500 basechar 0
AnchorPoint: "l;bl" 5 10 basechar 0
AnchorPoint: "l;x" 0 380 basechar 0
AnchorPoint: "l;o" 5 200 basechar 0
AnchorPoint: "l;lo" 0 -260 basechar 0
AnchorPoint: "r;o" 512 200 basechar 0
LayerCount: 3
Fore
SplineSet
187.546875 -251 m 1
 257 -251 l 2
 270.521484375 -251 273 -257.361328125 273 -267 c 0
 273 -276.197265625 271.84765625 -284 257 -284 c 0
 237.877929688 -284 179.912109375 -282 151 -282 c 0
 126.12890625 -282 84.109375 -284 54 -284 c 0
 39.54296875 -284 38 -278.338867188 38 -267 c 0
 38 -257.234375 41.3740234375 -251 53 -251 c 2
 105.877929688 -251 l 1
 107.948242188 -236.943359375 108 -164.546875 108 -94 c 2
 108 48 l 2
 108 263.017578125 103.974609375 293.748046875 101.0078125 334.786132812 c 0
 100.061523438 347.8671875 101.536132812 346 88 346 c 0
 82.19921875 346 43.2138671875 344 38 344 c 0
 29.3876953125 344 22 342.954101562 22 352 c 0
 22 355.534179688 26.5615234375 377 33.955078125 377 c 0
 100.8828125 378.998046875 161.654296875 383 166 383 c 0
 174.829101562 383 180 381.02734375 180 366 c 2
 180 342 l 2
 180 339.022460938 180.091796875 336.060546875 180.122070312 335.58203125 c 1
 184.24609375 338.2265625 189.139648438 342.909179688 196.1875 348.390625 c 0
 219.698242188 365.768554688 263.077148438 386 306 386 c 0
 422.942382812 386 480 301.08203125 480 194 c 0
 480 91.5048828125 400.763671875 -12 268 -12 c 0
 246.555664062 -12 220.37890625 -6.8720703125 201.118164062 -0.8671875 c 0
 193.288085938 1.5732421875 186.229492188 4.744140625 182.938476562 4.8974609375 c 0
 181.387695312 4.9697265625 181 5.3837890625 181 2.0234375 c 2
 183.999023438 -186.936523438 l 2
 184.875976562 -220.260742188 185.1484375 -246.484375 187.546875 -251 c 1
275 345 m 0
 247.448242188 345 226.8515625 339.086914062 212.305664062 332.298828125 c 0
 180.771484375 316.532226562 181 304.736328125 181 302 c 2
 181 52 l 2
 181 31.81640625 233.5859375 13 265 13 c 0
 356.4609375 13 402 107.673828125 402 187 c 0
 402 283.890625 346.95703125 345 275 345 c 0
EndSplineSet
AlternateSubs2: "'aalt' Access All Alternates lookup 0 subtable" p.sc p.sub p.sup p.denom p.numer
AlternateSubs2: "'aalt' Access All Alternates in Latin lookup 0 subtable" p.sc p.sub p.sup p.denom p.numer
Substitution2: "'smcp' Lowercase to Small Capitals in Latin lookup 11 subtable" p.sc
Substitution2: "'subs' Subscript in Latin lookup 8 subtable" p.sub
Substitution2: "'sups' Superscript in Latin lookup 7 subtable" p.sup
Substitution2: "denominators subtable" p.denom
Substitution2: "numerators subtable" p.numer
EndChar

StartChar: q
Encoding: 113 113 17
Width: 490
VWidth: 0
Flags: HW
AnchorPoint: "l;o" 0 200 basechar 0
AnchorPoint: "r;bl" 490 10 basechar 0
AnchorPoint: "r;x" 490 380 basechar 0
AnchorPoint: "r;o" 490 200 basechar 0
AnchorPoint: "r;lo" 490 -260 basechar 0
LayerCount: 3
Fore
SplineSet
336 291 m 2
 336 328.294921875 298.735351562 351 235 351 c 0
 148.477539062 351 109 268.354492188 109 191 c 0
 109 110.91796875 160.348632812 22 250 22 c 0
 280.793945312 22 336 29.6875 336 41 c 2
 336 291 l 2
412 -88 m 2
 412 -159.044921875 412.247070312 -235.012695312 414.134765625 -248 c 1
 453 -248 l 2
 465.186523438 -248 468 -256.618164062 468 -266 c 0
 468 -277.338867188 466.45703125 -283 452 -283 c 2
 425 -283 l 2
 338.053710938 -283 274.84765625 -294 269 -294 c 0
 255.12890625 -294 251 -289.315429688 251 -279 c 0
 251 -269.833984375 252.67578125 -260.18359375 266.721679688 -259.012695312 c 0
 335.48046875 -251.934570312 332.658203125 -260.0859375 333 -221.97265625 c 2
 335 1 l 2
 335 4.7978515625 334.595703125 6.9541015625 334.595703125 6.9541015625 c 1
 334 7 l 2
 332.135742188 7 326.93359375 5.146484375 319.83984375 3.1201171875 c 0
 295.7265625 -3.76953125 251.54296875 -16 209 -16 c 0
 129.662109375 -16 32 37.2392578125 32 180 c 0
 32 297.703125 122.485351562 384 243 384 c 0
 299.698242188 384 341.920898438 358 360 358 c 0
 374.66796875 358 379.145507812 391 398 391 c 0
 408.825195312 391 417 386.068359375 417 374.94921875 c 0
 412.997070312 255.864257812 412 168.01171875 412 77 c 2
 412 -88 l 2
EndSplineSet
AlternateSubs2: "'aalt' Access All Alternates lookup 0 subtable" q.sc q.sub q.sup q.denom q.numer
AlternateSubs2: "'aalt' Access All Alternates in Latin lookup 0 subtable" q.sc q.sub q.sup q.denom q.numer
Substitution2: "'smcp' Lowercase to Small Capitals in Latin lookup 11 subtable" q.sc
Substitution2: "'subs' Subscript in Latin lookup 8 subtable" q.sub
Substitution2: "'sups' Superscript in Latin lookup 7 subtable" q.sup
Substitution2: "denominators subtable" q.denom
Substitution2: "numerators subtable" q.numer
EndChar

StartChar: r
Encoding: 114 114 18
Width: 329
VWidth: 0
Flags: HW
AnchorPoint: "cedilla" 144 -100 basechar 0
AnchorPoint: "top" 181 500 basechar 0
AnchorPoint: "l;bl" 0 10 basechar 0
AnchorPoint: "l;x" 0 380 basechar 0
AnchorPoint: "l;o" 0 200 basechar 0
AnchorPoint: "r;bl" 329 10 basechar 0
AnchorPoint: "r;x" 329 380 basechar 0
AnchorPoint: "r;o" 329 200 basechar 0
LayerCount: 3
Fore
SplineSet
89.904296875 347.952148438 m 1
 78.849609375 347.643554688 31.814453125 346 28 346 c 0
 23.0400390625 346 22 350.056640625 22 353 c 0
 22 356.629882812 23.1552734375 360.965820312 25.2021484375 366.083984375 c 1
 28.310546875 374.37109375 29.0966796875 375.014648438 42.7861328125 375.9921875 c 0
 57.0478515625 377.010742188 140.818359375 379 148 379 c 0
 164.727539062 379 163 375.581054688 163 366 c 0
 163 346.909179688 162 320.909179688 162 302 c 0
 162 299.313476562 162.001953125 297.837890625 162.001953125 297.837890625 c 1
 163.415039062 302.623046875 164.602539062 306.4921875 166.249023438 310.197265625 c 1
 189.478515625 364.736328125 230.107421875 397 262 397 c 0
 293.518554688 397 322 365.432617188 322 351 c 0
 322 338.428710938 300.576171875 307 282 307 c 0
 256.510742188 307 239.279296875 338 222 338 c 0
 176.404296875 338 168 223.724609375 168 137 c 0
 168 81.419921875 169.740234375 28 177 28 c 0
 240 28 l 0
 253.521484375 28 256 21.638671875 256 12 c 0
 256 2.802734375 254.84765625 -5 240 -5 c 0
 220.877929688 -5 162.912109375 -3 134 -3 c 0
 109.150390625 -3 78.1259765625 -5 48 -5 c 0
 33.54296875 -5 32 0.6611328125 32 12 c 0
 32 21.765625 35.3740234375 28 47 28 c 0
 89.37109375 28 l 1
 94.4296875 35.919921875 96 96.173828125 96 162 c 0
 96 241.837890625 92.4482421875 333.229492188 89.904296875 347.952148438 c 1
EndSplineSet
Layer: 2
SplineSet
79.501953125 325.453125 m 1
 58.59765625 324.754882812 37.841796875 324 33 324 c 0
 9.7822265625 324 10 351.212890625 10 353 c 0
 10 359.9609375 12.3017578125 366.0078125 14.7216796875 371.243164062 c 0
 14.8701171875 371.564453125 l 1
 15.0341796875 371.877929688 l 0
 21.4931640625 384.28125 32.8671875 387.259765625 46.7265625 387.97265625 c 1
 62.099609375 389.065429688 144.916992188 391 153 391 c 0
 174.90625 391 185 380.3203125 185 366 c 0
 185 365.233398438 184.98828125 362.990234375 184.986328125 362.754882812 c 1
 209.82421875 392.709960938 238.18359375 409 267 409 c 0
 305.163085938 409 344 378.23828125 344 351 c 0
 344 330.315429688 320.749023438 285 287 285 c 0
 255.797851562 285 231.119140625 311.711914062 225.905273438 315.915039062 c 1
 206.049804688 312.446289062 190 228.358398438 190 137 c 0
 190 102.989257812 192.217773438 64.640625 194.010742188 50 c 1
 245 50 l 0
 271.633789062 50 278 26.96875 278 12 c 0
 278 -1.3388671875 268.939453125 -17 245 -17 c 0
 225.193359375 -17 167.412109375 -15 139 -15 c 0
 115.013671875 -15 83.826171875 -17 53 -17 c 0
 31.1357421875 -17 20 -4.123046875 20 12 c 0
 20 27.349609375 26.84765625 50 52 50 c 0
 80.74609375 50 l 1
 83.1640625 71.7880859375 84 115.227539062 84 162 c 0
 84 223.794921875 81.3662109375 296.678710938 79.501953125 325.453125 c 1
EndSplineSet
AlternateSubs2: "'aalt' Access All Alternates lookup 0 subtable" r.sc r.sub r.sup r.denom r.numer
AlternateSubs2: "'aalt' Access All Alternates in Latin lookup 0 subtable" r.sc r.sub r.sup r.denom r.numer
Substitution2: "'smcp' Lowercase to Small Capitals in Latin lookup 11 subtable" r.sc
Substitution2: "'subs' Subscript in Latin lookup 8 subtable" r.sub
Substitution2: "'sups' Superscript in Latin lookup 7 subtable" r.sup
Substitution2: "denominators subtable" r.denom
Substitution2: "numerators subtable" r.numer
EndChar

StartChar: s
Encoding: 115 115 19
Width: 337
VWidth: 0
Flags: HW
AnchorPoint: "cedilla" 175 -100 basechar 0
AnchorPoint: "top" 169 500 basechar 0
AnchorPoint: "l;bl" 0 10 basechar 0
AnchorPoint: "l;x" 0 380 basechar 0
AnchorPoint: "l;o" 0 200 basechar 0
AnchorPoint: "r;bl" 337 10 basechar 0
AnchorPoint: "r;x" 337 380 basechar 0
AnchorPoint: "r;o" 337 200 basechar 0
LayerCount: 3
Fore
SplineSet
182 396 m 0
 259.142578125 396 289 351.151367188 289 326 c 0
 289 311.012695312 256.521484375 304 246 304 c 0
 217.499023438 304 231.98046875 369 169 369 c 0
 136.942382812 369 99 351.890625 99 302 c 0
 99 261.333984375 136.755859375 244.962890625 179.3046875 224.701171875 c 0
 236.719726562 196.983398438 305 167.518554688 305 106 c 0
 305 30.794921875 236.006835938 -15 161 -15 c 0
 100.08203125 -15 32 15.4736328125 32 50 c 0
 32 67.607421875 54.408203125 91 65 91 c 0
 74.3671875 91 75.7685546875 75.212890625 86.291015625 62.9365234375 c 1
 106.220703125 39.021484375 130.287109375 14 177 14 c 0
 209.798828125 14 240 32.8642578125 240 76 c 0
 240 120.764648438 200.083007812 142.129882812 152.799804688 162.25 c 0
 98.3798828125 185.997070312 35 206.68359375 35 280 c 0
 35 349.4375 110.11328125 396 182 396 c 0
EndSplineSet
AlternateSubs2: "'aalt' Access All Alternates lookup 0 subtable" longs s.sc s.sub s.sup s.denom s.numer
AlternateSubs2: "'aalt' Access All Alternates in Latin lookup 0 subtable" longs s.sc s.sub s.sup s.denom s.numer
Substitution2: "'hist' Historical Forms in Latin lookup 13 subtable" longs
Substitution2: "'smcp' Lowercase to Small Capitals in Latin lookup 11 subtable" s.sc
Substitution2: "'subs' Subscript in Latin lookup 8 subtable" s.sub
Substitution2: "'sups' Superscript in Latin lookup 7 subtable" s.sup
Substitution2: "denominators subtable" s.denom
Substitution2: "numerators subtable" s.numer
EndChar

StartChar: t
Encoding: 116 116 20
Width: 289
VWidth: 0
Flags: HW
AnchorPoint: "top" 142 540 basechar 0
AnchorPoint: "caron" 181 550 basechar 0
AnchorPoint: "cedilla" 155 -100 basechar 0
AnchorPoint: "l;bl" 0 10 basechar 0
AnchorPoint: "l;x" 0 380 basechar 0
AnchorPoint: "l;o" 0 200 basechar 0
AnchorPoint: "r;bl" 289 10 basechar 0
AnchorPoint: "r;x" 289 380 basechar 0
AnchorPoint: "r;o" 289 200 basechar 0
LayerCount: 3
Fore
SplineSet
35.705078125 353.947265625 m 2
 126.532226562 480.706054688 l 1
 128.915039062 484.28125 132.908203125 487 138 487 c 0
 144.20703125 487 151 482.87109375 151 474 c 0
 151 470.556640625 145 397.764648438 145 382 c 0
 145 374.329101562 144.649414062 375 153 375 c 0
 248 375 l 0
 251.24609375 375 253.768554688 375.043945312 256.033203125 374.584960938 c 0
 264.083007812 372.955078125 262.59375 365.340820312 259.922851562 353.325195312 c 0
 256.881835938 340.145507812 252.8046875 335 244 335 c 0
 146.3984375 335 l 1
 145.1015625 329.911132812 145 314.037109375 145 292 c 0
 145 100 l 0
 145 68.857421875 146.57421875 41 190 41 c 0
 228.563476562 41 260.05859375 57 270 57 c 0
 277.555664062 57 277 43.28125 277 38 c 0
 277 28.41796875 188.6796875 -12 148 -12 c 0
 89.0244140625 -12 73 29.0048828125 73 60.0205078125 c 1
 74 132.048828125 75 247.025390625 75 276 c 0
 75 314.986328125 72.5947265625 334 66 334 c 0
 41 334 l 0
 34.9599609375 334 32 339.024414062 32 344 c 0
 32 347.627929688 32.9970703125 351.239257812 35.705078125 353.947265625 c 2
EndSplineSet
AlternateSubs2: "'aalt' Access All Alternates lookup 0 subtable" t.sc t.sub t.sup t.denom t.numer
AlternateSubs2: "'aalt' Access All Alternates in Latin lookup 0 subtable" t.sc t.sub t.sup t.denom t.numer
Substitution2: "'smcp' Lowercase to Small Capitals in Latin lookup 11 subtable" t.sc
Substitution2: "'subs' Subscript in Latin lookup 8 subtable" t.sub
Substitution2: "'sups' Superscript in Latin lookup 7 subtable" t.sup
Substitution2: "denominators subtable" t.denom
Substitution2: "numerators subtable" t.numer
EndChar

StartChar: u
Encoding: 117 117 21
Width: 510
VWidth: 0
Flags: HW
AnchorPoint: "top" 240 500 basechar 0
AnchorPoint: "l;bl" 10 10 basechar 0
AnchorPoint: "l;x" 0 380 basechar 0
AnchorPoint: "l;o" 0 200 basechar 0
AnchorPoint: "r;bl" 510 10 basechar 0
AnchorPoint: "r;x" 510 380 basechar 0
AnchorPoint: "r;o" 510 200 basechar 0
LayerCount: 3
Fore
SplineSet
342.32421875 355.956054688 m 1
 332.572265625 355.626953125 295.973632812 354 292 354 c 0
 287.768554688 354 285 356.768554688 285 361 c 0
 285 361.19921875 l 1
 285.026367188 361.396484375 l 0
 286.907226562 375.505859375 285.729492188 382.833984375 300.805664062 383.994140625 c 1
 319.978515625 385.002929688 408.715820312 389 414 389 c 0
 420.772460938 389 424 386.279296875 424 379.987304688 c 0
 424 379.987304688 423 140.984375 423 79 c 0
 423 29 426.4296875 23 439 23 c 0
 441.307617188 23 477.224609375 29 480 29 c 0
 487.137695312 29 488 21.515625 488 16 c 0
 488 1.19921875 484.908203125 -0.8955078125 471.436523438 -2.9677734375 c 0
 437.305664062 -7.9873046875 374.83203125 -18 367 -18 c 0
 359.65234375 -18 354.106445312 -14.306640625 353.008789062 -2.2353515625 c 1
 352.211914062 9.7138671875 351.708984375 27.1953125 350.640625 32.43359375 c 1
 334.727539062 25.904296875 258.991210938 -14 189 -14 c 0
 91.607421875 -14 77 54.7685546875 77 122 c 0
 77 279 l 0
 77 325.298828125 75.291015625 353 68 353 c 0
 65.109375 353 23.0986328125 352 19 352 c 0
 13.8447265625 352 12 356.387695312 12 360 c 0
 12 363.701171875 13.2216796875 367.131835938 15.2021484375 372.083984375 c 1
 18.4150390625 380.650390625 20.6953125 381.985351562 32.8076171875 382.994140625 c 1
 55.0244140625 384.00390625 137.747070312 387 143 387 c 0
 149.772460938 387 153 384.26953125 153 378 c 0
 153 106 l 0
 153 52.9482421875 201.728515625 42 261 42 c 0
 295.185546875 42 349 47.9443359375 349 55 c 0
 349 173 l 0
 349 200.720703125 346.715820312 338.284179688 342.32421875 355.956054688 c 1
EndSplineSet
AlternateSubs2: "'aalt' Access All Alternates lookup 0 subtable" u.sc u.sub u.sup u.denom u.numer
AlternateSubs2: "'aalt' Access All Alternates in Latin lookup 0 subtable" u.sc u.sub u.sup u.denom u.numer
Substitution2: "'smcp' Lowercase to Small Capitals in Latin lookup 11 subtable" u.sc
Substitution2: "'subs' Subscript in Latin lookup 8 subtable" u.sub
Substitution2: "'sups' Superscript in Latin lookup 7 subtable" u.sup
Substitution2: "denominators subtable" u.denom
Substitution2: "numerators subtable" u.numer
EndChar

StartChar: v
Encoding: 118 118 22
Width: 461
VWidth: 0
Flags: HW
AnchorPoint: "l;x" 0 380 basechar 0
AnchorPoint: "l;o" 20 200 basechar 0
AnchorPoint: "r;x" 461 380 basechar 0
AnchorPoint: "r;o" 431 200 basechar 0
LayerCount: 3
Fore
SplineSet
397.587890625 343.48046875 m 0
 375.861328125 303.9765625 315.7734375 144.845703125 270.69921875 50.69140625 c 0
 254.423828125 17.1220703125 247.17578125 18.85546875 221.49609375 -19.6640625 c 0
 221.423828125 -19.7724609375 l 1
 221.342773438 -19.8740234375 l 0
 217.021484375 -25.275390625 212.322265625 -28 208 -28 c 0
 191.038085938 -28 181.475585938 21.087890625 175.145507812 40.076171875 c 0
 164.19921875 73.912109375 106.161132812 235.0234375 66.20703125 338.904296875 c 1
 60.4140625 353.38671875 61.6337890625 352 47 352 c 0
 38 352 l 0
 24.478515625 352 22 358.361328125 22 368 c 0
 22 377.197265625 23.15234375 385 38 385 c 0
 57.224609375 385 76.1435546875 383 105 383 c 0
 129.884765625 383 171.849609375 385 190 385 c 0
 204.45703125 385 206 379.338867188 206 368 c 0
 206 358.234375 202.625976562 352 191 352 c 0
 161 352 l 0
 149.892578125 352 146.293945312 350.31640625 145.99609375 347.232421875 c 1
 148.092773438 337.555664062 211.450195312 151.556640625 239.7578125 85.181640625 c 0
 244.319335938 74.537109375 247.963867188 70.0625 248.973632812 69.2041015625 c 1
 250.185546875 70.5693359375 252.237304688 75.6708984375 255.224609375 83.1396484375 c 1
 279.188476562 140.052734375 349 307.690429688 349 339 c 0
 349 348.787109375 346.38671875 352 342 352 c 0
 316 352 l 0
 302.478515625 352 300 358.361328125 300 368 c 0
 300 377.577148438 302.344726562 385 317 385 c 0
 325.271484375 385 354.127929688 383 374 383 c 0
 395.806640625 383 409.708007812 385 425 385 c 0
 436.715820312 385 439 379.322265625 439 368 c 0
 439 358.234375 435.625976562 352 424 352 c 0
 408 352 l 0
 401.225585938 352 402.874023438 351.938476562 397.587890625 343.48046875 c 0
EndSplineSet
AlternateSubs2: "'aalt' Access All Alternates lookup 0 subtable" v.sc v.sub v.sup v.denom v.numer
AlternateSubs2: "'aalt' Access All Alternates in Latin lookup 0 subtable" v.sc v.sub v.sup v.denom v.numer
Substitution2: "'smcp' Lowercase to Small Capitals in Latin lookup 11 subtable" v.sc
Substitution2: "'subs' Subscript in Latin lookup 8 subtable" v.sub
Substitution2: "'sups' Superscript in Latin lookup 7 subtable" v.sup
Substitution2: "denominators subtable" v.denom
Substitution2: "numerators subtable" v.numer
EndChar

StartChar: w
Encoding: 119 119 23
Width: 697
VWidth: 0
Flags: HW
AnchorPoint: "top" 367 500 basechar 0
AnchorPoint: "l;x" 0 380 basechar 0
AnchorPoint: "l;o" 20 200 basechar 0
AnchorPoint: "r;x" 697 380 basechar 0
AnchorPoint: "r;o" 677 200 basechar 0
LayerCount: 3
Fore
SplineSet
479.64453125 -19.419921875 m 0
 476.006835938 -26.6953125 469.640625 -28 466 -28 c 0
 449.004882812 -28 438.575195312 21.0654296875 433.109375 40.1982421875 c 1
 426.129882812 66.1220703125 395.127929688 170.130859375 364.154296875 264.051757812 c 0
 361.752929688 271.254882812 359.991210938 276.2265625 358.831054688 278.83203125 c 1
 356.615234375 274.844726562 355.254882812 271.276367188 352.827148438 263.994140625 c 1
 327.793945312 197.90625 297.84375 111.990234375 268.69921875 51.69140625 c 0
 252.310546875 17.888671875 243.255859375 21.873046875 220.658203125 -19.3916015625 c 1
 216.95703125 -26.79296875 209.4765625 -28 206 -28 c 0
 190.973632812 -28 177.640625 20.8369140625 172.122070312 40.1533203125 c 0
 162.198242188 73.89453125 107.169921875 225.004882812 68.154296875 339.051757812 c 0
 63.4560546875 353.143554688 62.732421875 352 49 352 c 2
 38 352 l 0
 24.478515625 352 22 358.361328125 22 368 c 0
 22 377.197265625 23.15234375 385 38 385 c 0
 57.224609375 385 76.1435546875 383 105 383 c 0
 129.884765625 383 171.849609375 385 190 385 c 0
 204.45703125 385 206 379.338867188 206 368 c 0
 206 358.234375 202.625976562 352 191 352 c 0
 166 352 l 0
 154.891601562 352 151.294921875 350.33203125 150.994140625 347.213867188 c 1
 152.935546875 337.374023438 210.490234375 151.462890625 238.74609375 85.208984375 c 1
 242.05078125 77.9384765625 244.598632812 72.6044921875 245.268554688 71.541015625 c 1
 247.365234375 73.927734375 250.796875 81.0703125 255.2109375 92.1044921875 c 0
 274.229492188 140.151367188 314.194335938 238.065429688 335.18359375 298.034179688 c 1
 340.204101562 311.087890625 342 317.610351562 342 324 c 0
 342 329.506835938 341.387695312 330.515625 337.31640625 338.658203125 c 0
 331.12109375 351.049804688 321.06640625 352 306 352 c 0
 296 352 l 0
 282.478515625 352 280 358.361328125 280 368 c 0
 280 377.197265625 281.15234375 385 296 385 c 0
 321.203125 385 335.150390625 383 369 383 c 0
 394.829101562 383 413.818359375 385 439 385 c 0
 453.45703125 385 455 379.338867188 455 368 c 0
 455 358.234375 451.625976562 352 440 352 c 0
 419 352 l 0
 408.8125 352 409.181640625 351.60546875 408.991210938 347.213867188 c 1
 410.837890625 337.200195312 464.45703125 151.421875 490.7734375 85.14453125 c 1
 494.975585938 75.3388671875 498.998046875 66.8369140625 500.135742188 65.01953125 c 1
 502.4140625 68.6982421875 505.280273438 76.7783203125 508.225585938 84.1416015625 c 1
 530.06640625 135.765625 592 321.557617188 592 344 c 0
 592 349.65625 590.646484375 352 583 352 c 0
 552 352 l 0
 538.478515625 352 536 358.361328125 536 368 c 0
 536 377.577148438 538.344726562 385 553 385 c 0
 561.271484375 385 590.127929688 383 610 383 c 0
 631.879882812 383 653.654296875 385 661 385 c 0
 672.715820312 385 675 379.322265625 675 368 c 0
 675 358.234375 671.625976562 352 660 352 c 0
 654 352 l 0
 647.005859375 352 646.555664062 351.40234375 642.670898438 343.6328125 c 1
 620.94921875 302.166015625 570.834960938 144.974609375 525.69921875 50.69140625 c 0
 509.390625 17.0546875 502.346679688 20.0634765625 479.64453125 -19.419921875 c 0
EndSplineSet
AlternateSubs2: "'aalt' Access All Alternates lookup 0 subtable" w.sc w.sub w.sup w.denom w.numer
AlternateSubs2: "'aalt' Access All Alternates in Latin lookup 0 subtable" w.sc w.sub w.sup w.denom w.numer
Substitution2: "'smcp' Lowercase to Small Capitals in Latin lookup 11 subtable" w.sc
Substitution2: "'subs' Subscript in Latin lookup 8 subtable" w.sub
Substitution2: "'sups' Superscript in Latin lookup 7 subtable" w.sup
Substitution2: "denominators subtable" w.denom
Substitution2: "numerators subtable" w.numer
EndChar

StartChar: x
Encoding: 120 120 24
Width: 468
VWidth: 0
Flags: HW
AnchorPoint: "l;bl" 0 10 basechar 0
AnchorPoint: "l;x" 20 380 basechar 0
AnchorPoint: "l;o" 25 200 basechar 0
AnchorPoint: "r;bl" 468 10 basechar 0
AnchorPoint: "r;x" 468 380 basechar 0
AnchorPoint: "r;o" 448 200 basechar 0
LayerCount: 3
Fore
SplineSet
352.427734375 338.543945312 m 1
 355.747070312 344.076171875 358 346.845703125 358 348 c 0
 358 348.225585938 356.0390625 352 335 352 c 0
 322 352 l 0
 308.478515625 352 306 358.361328125 306 368 c 0
 306 377.577148438 308.344726562 385 323 385 c 0
 342.233398438 385 357.221679688 383 377 383 c 0
 398.814453125 383 414.723632812 385 430 385 c 0
 441.293945312 385 446 380.047851562 446 368 c 0
 446 358.234375 442.625976562 352 431 352 c 0
 413.764648438 352 404.592773438 338.31640625 389.041992188 323.802734375 c 0
 349.1328125 286.885742188 305.166015625 240.923828125 284.12109375 219.87890625 c 0
 276.615234375 212.373046875 275 210.78515625 275 210 c 0
 275 209.161132812 278.086914062 205.217773438 284.420898438 196.772460938 c 1
 309.453125 161.727539062 373.399414062 73.802734375 400.375 39.8330078125 c 1
 409.666015625 27.4443359375 407.913085938 28 416 28 c 0
 428 28 l 0
 441.521484375 28 444 21.638671875 444 12 c 0
 444 2.802734375 442.84765625 -5 428 -5 c 0
 408.784179688 -5 387.861328125 -3 359 -3 c 0
 334.147460938 -3 309.201171875 -5 291 -5 c 0
 276.54296875 -5 275 0.6611328125 275 12 c 0
 275 21.765625 278.374023438 28 290 28 c 0
 301 28 l 0
 316.958984375 28 317.80859375 29.234375 318.006835938 32.826171875 c 1
 316.8125 36.341796875 306.775390625 50.4287109375 297.479492188 64.373046875 c 1
 277.520507812 96.3076171875 247.586914062 137.217773438 232.599609375 157.200195312 c 0
 229.765625 160.979492188 227.723632812 163.581054688 226.375 164.740234375 c 0
 224.814453125 166.083007812 224.6640625 166.91015625 217.296875 158.0703125 c 0
 196.255859375 133.021484375 146.249023438 76.9892578125 123.44140625 45.255859375 c 0
 118.119140625 37.8056640625 114 32.94140625 114 31 c 0
 114 30.5390625 115.146484375 28 129 28 c 0
 157 28 l 0
 170.521484375 28 173 21.638671875 173 12 c 0
 173 2.802734375 171.84765625 -5 157 -5 c 0
 137.75390625 -5 122.845703125 -3 94 -3 c 0
 69.162109375 -3 53.279296875 -5 38 -5 c 0
 25.6513671875 -5 22 0.177734375 22 12 c 0
 22 21.765625 25.3740234375 28 37 28 c 0
 55.126953125 28 56.6318359375 29.865234375 81.8525390625 56.0947265625 c 0
 201.865234375 179.108398438 l 1
 211.685546875 188.927734375 211.119140625 185.818359375 204.611328125 194.184570312 c 1
 97.5810546875 338.225585938 l 0
 86.5908203125 353.211914062 88.6611328125 352 74 352 c 0
 58 352 l 0
 44.478515625 352 42 358.361328125 42 368 c 0
 42 377.197265625 43.15234375 385 58 385 c 0
 77.181640625 385 108.11328125 383 137 383 c 0
 161.82421875 383 176.747070312 385 195 385 c 0
 209.45703125 385 211 379.338867188 211 368 c 0
 211 358.234375 207.625976562 352 196 352 c 0
 180.005859375 352 179 349.375976562 179 349 c 0
 179 346.836914062 183.337890625 339.888671875 188.458007812 332.719726562 c 1
 251.471679688 240.69921875 l 0
 255.353515625 235.0546875 257.909179688 231.700195312 258.448242188 231.233398438 c 1
 260.23046875 232.662109375 262.774414062 236.017578125 267.87890625 241.12109375 c 1
EndSplineSet
AlternateSubs2: "'aalt' Access All Alternates lookup 0 subtable" x.sc x.sub x.sup x.denom x.numer
AlternateSubs2: "'aalt' Access All Alternates in Latin lookup 0 subtable" x.sc x.sub x.sup x.denom x.numer
Substitution2: "'smcp' Lowercase to Small Capitals in Latin lookup 11 subtable" x.sc
Substitution2: "'subs' Subscript in Latin lookup 8 subtable" x.sub
Substitution2: "'sups' Superscript in Latin lookup 7 subtable" x.sup
Substitution2: "denominators subtable" x.denom
Substitution2: "numerators subtable" x.numer
EndChar

StartChar: y
Encoding: 121 121 25
Width: 467
VWidth: 0
Flags: HW
AnchorPoint: "top" 251 500 basechar 0
AnchorPoint: "l;x" 0 380 basechar 0
AnchorPoint: "l;o" 20 200 basechar 0
AnchorPoint: "l;lo" 40 -260 basechar 0
AnchorPoint: "r;x" 467 380 basechar 0
AnchorPoint: "r;o" 447 200 basechar 0
LayerCount: 3
Fore
SplineSet
90.986328125 -212.17578125 m 0
 117.802734375 -201.861328125 169.029296875 -189.735351562 179.20703125 -162.905273438 c 1
 196.168945312 -120.999023438 223 -53.2890625 223 -43 c 0
 223 -28.1533203125 108.1484375 239.047851562 67.21484375 338.885742188 c 0
 61.3251953125 353.609375 63.5517578125 352 49 352 c 0
 38 352 l 0
 24.478515625 352 22 358.361328125 22 368 c 0
 22 377.197265625 23.15234375 385 38 385 c 0
 57.1962890625 385 83.126953125 383 112 383 c 0
 136.888671875 383 181.85546875 385 200 385 c 0
 214.45703125 385 216 379.338867188 216 368 c 0
 216 358.234375 212.625976562 352 201 352 c 0
 182 352 l 0
 167.775390625 352 159 350.19140625 159 345 c 0
 159 328.779296875 216.893554688 172.850585938 247.778320312 97.1318359375 c 0
 255.71484375 77.65234375 261.3515625 65.1201171875 263.931640625 60.6171875 c 1
 267.25390625 66.9091796875 271.747070312 78.4404296875 278.171875 97.001953125 c 0
 306.067382812 175.70703125 360 336.735351562 360 348 c 0
 360 351.059570312 356.7578125 352 332 352 c 0
 309 352 l 0
 295.478515625 352 293 358.361328125 293 368 c 0
 293 377.577148438 295.344726562 385 310 385 c 0
 329.1875 385 354.178710938 383 374 383 c 0
 395.822265625 383 413.73828125 385 429 385 c 0
 440.293945312 385 445 380.047851562 445 368 c 0
 445 358.234375 441.625976562 352 430 352 c 2
 416 352 l 0
 408.73046875 352 408.6328125 352.41015625 405.833007812 344.012695312 c 1
 389.747070312 299.775390625 280.837890625 22.017578125 272.771484375 1.8515625 c 1
 269.916015625 -4.8115234375 251.831054688 -59.994140625 232.829101562 -114.998046875 c 0
 214.896484375 -165.807617188 211.452148438 -182.73828125 168.341796875 -235.875 c 1
 153.555664062 -254.603515625 151.517578125 -259.599609375 126.297851562 -271.704101562 c 0
 101.1796875 -283.76171875 70.7900390625 -298 63 -298 c 0
 46.72265625 -298 42 -284.681640625 42 -275 c 0
 42 -261.690429688 51.505859375 -245.330078125 61.5302734375 -231.295898438 c 1
 68.1826171875 -221.317382812 81.779296875 -215.244140625 90.986328125 -212.17578125 c 0
EndSplineSet
Layer: 2
SplineSet
58.705078125 325.005859375 m 1
 57.33203125 325.005859375 57.2470703125 325 56 325 c 2
 45 325 l 2
 18.3662109375 325 12 348.03125 12 363 c 0
 12 376.338867188 21.060546875 392 45 392 c 0
 65.28515625 392 90.869140625 390 119 390 c 0
 143.249023438 390 188.051757812 392 207 392 c 0
 228.864257812 392 240 379.123046875 240 363 c 0
 240 347.650390625 233.15234375 325 208 325 c 2
 187.145507812 325 l 1
 201.573242188 278.154296875 243.137695312 167.346679688 267.994140625 106.721679688 c 1
 290.19921875 169.126953125 329.025390625 284.918945312 342.743164062 329.9921875 c 1
 340.857421875 330.000976562 339.427734375 330 337 330 c 2
 314 330 l 2
 287.366210938 330 281 353.03125 281 368 c 0
 281 383.598632812 292.811523438 397 315 397 c 0
 335.223632812 397 360.213867188 395 379 395 c 0
 399.766601562 395 417.3046875 397 434 397 c 0
 450.618164062 397 467 387.788085938 467 368 c 0
 467 352.650390625 460.15234375 330 435 330 c 2
 423.134765625 330 l 1
 404.01171875 304.830078125 288.021484375 -0.201171875 288.021484375 -0.201171875 c 1
 293.489257812 -2.66015625 l 1
 290.46484375 -10.1923828125 272.565429688 -64.70703125 253.875 -118.951171875 c 0
 236.184570312 -168.4609375 230.466796875 -189.91796875 186.501953125 -243.486328125 c 0
 172.418945312 -260.646484375 165.296875 -270.092773438 138.556640625 -282.569335938 c 0
 113.591796875 -294.217773438 84.6484375 -310 68 -310 c 0
 41.033203125 -310 30 -289.62109375 30 -275 c 0
 30 -254.09375 42.322265625 -233.9609375 52.2490234375 -219.1640625 c 0
 62.1005859375 -203.01953125 79.97265625 -195.170898438 90.208984375 -191.443359375 c 0
 121.013671875 -180.225585938 163.595703125 -166.58203125 168.466796875 -154.60546875 c 0
 183.68359375 -117.201171875 207.266601562 -54.115234375 210.672851562 -42.82421875 c 1
 201.120117188 -10.7421875 97.16015625 231.809570312 58.705078125 325.005859375 c 1
EndSplineSet
AlternateSubs2: "'aalt' Access All Alternates lookup 0 subtable" y.sc y.sub y.sup y.denom y.numer
AlternateSubs2: "'aalt' Access All Alternates in Latin lookup 0 subtable" y.sc y.sub y.sup y.denom y.numer
Substitution2: "'smcp' Lowercase to Small Capitals in Latin lookup 11 subtable" y.sc
Substitution2: "'subs' Subscript in Latin lookup 8 subtable" y.sub
Substitution2: "'sups' Superscript in Latin lookup 7 subtable" y.sup
Substitution2: "denominators subtable" y.denom
Substitution2: "numerators subtable" y.numer
EndChar

StartChar: A
Encoding: 65 65 26
Width: 698
VWidth: 0
Flags: HW
AnchorPoint: "top" 371 780 basechar 0
AnchorPoint: "l;bl" 0 10 basechar 0
AnchorPoint: "l;x" 70 380 basechar 0
AnchorPoint: "l;o" 40 200 basechar 0
AnchorPoint: "r;bl" 698 10 basechar 0
AnchorPoint: "r;x" 638 380 basechar 0
AnchorPoint: "r;o" 668 200 basechar 0
AnchorPoint: "l;hi" 130 650 basechar 0
AnchorPoint: "r;hi" 598 650 basechar 0
LayerCount: 3
Fore
SplineSet
394.875 680.869140625 m 2
 514.823242188 344.015625 l 0
 554.576171875 233.481445312 622.66796875 41.1240234375 635.4921875 30 c 1
 667 30 l 0
 679.189453125 30 681 26.33203125 681 14 c 0
 681 -1.0947265625 678.745117188 -6 667 -6 c 0
 651.758789062 -6 606.86328125 -3 577 -3 c 0
 547.137695312 -3 489.163085938 -6 466 -6 c 0
 451.794921875 -6 449 -2.42578125 449 15 c 0
 449 28.7109375 454.078125 30 470 30 c 0
 522 30 l 1
 522 52.474609375 472.10546875 199.186523438 452.1640625 255.021484375 c 1
 446.07421875 273.290039062 448.97265625 272 435 272 c 0
 234 272 l 0
 216.278320312 272 218.947265625 269.305664062 213.791015625 255.900390625 c 0
 187.860351562 190.076171875 133 50.25390625 133 30 c 0
 209 30 l 0
 221.189453125 30 223 26.33203125 223 14 c 0
 223 -1.0947265625 220.745117188 -6 209 -6 c 0
 185.7890625 -6 146.833984375 -3 117 -3 c 0
 87.21484375 -3 67.29296875 -6 44 -6 c 0
 29.794921875 -6 27 -2.42578125 27 15 c 0
 27 28.7109375 32.078125 30 48 30 c 0
 75.244140625 30 l 1
 91.4150390625 47.169921875 205.775390625 328.399414062 219.245117188 359.1875 c 0
 325.229492188 605.150390625 l 1
 333.69921875 626.327148438 350.588867188 635.033203125 361.231445312 661.157226562 c 1
 366.959960938 674.522460938 373.813476562 690 383 690 c 0
 389.423828125 690 393.598632812 685.974609375 394.875 680.869140625 c 2
247 302 m 2
 426 302 l 0
 436.424804688 302 436 304 436 304 c 0
 436 305.76953125 434.220703125 309.8515625 432.161132812 316.030273438 c 0
 349.146484375 559.07421875 l 1
 346.717773438 566.965820312 344.651367188 572.90234375 343.87109375 574.659179688 c 1
 341.64453125 570.637695312 339.83984375 566.216796875 336.77734375 558.866210938 c 0
 238.767578125 318.841796875 l 1
 235.751953125 311.806640625 234 306.875 234 305 c 0
 234 304.234375 234.3984375 302 247 302 c 2
EndSplineSet
AlternateSubs2: "'aalt' Access All Alternates lookup 0 subtable" A.c2
AlternateSubs2: "'aalt' Access All Alternates in Latin lookup 0 subtable" A.c2
Position2: "'cpsp' Capital Spacing in Latin lookup 2 subtable" dx=4 dy=0 dh=8 dv=0
Substitution2: "'c2sc' Capitals to Small Capitals in Latin lookup 12 subtable" A.c2
EndChar

StartChar: B
Encoding: 66 66 27
Width: 592
VWidth: 0
Flags: HW
AnchorPoint: "top" 291 780 basechar 0
AnchorPoint: "l;bl" 0 10 basechar 0
AnchorPoint: "l;x" 0 380 basechar 0
AnchorPoint: "l;hi" 0 650 basechar 0
AnchorPoint: "l;o" 0 200 basechar 0
AnchorPoint: "r;bl" 567 10 basechar 0
AnchorPoint: "r;x" 587 380 basechar 0
AnchorPoint: "r;hi" 567 650 basechar 0
AnchorPoint: "r;o" 592 200 basechar 0
LayerCount: 3
Fore
SplineSet
282 351 m 2
 299.091796875 351 309.290039062 350 315 350 c 0
 320.702148438 350 328.456054688 350.981445312 334.088867188 352.858398438 c 1
 379.276367188 366.611328125 431 405.529296875 431 488 c 0
 431 585.053710938 357.866210938 641 257 641 c 0
 241.575195312 641 228.404296875 640.6875 216.227539062 637.504882812 c 1
 212.9765625 619.954101562 212 480.72265625 212 406 c 0
 212 358 l 0
 212 351.791015625 211.282226562 351 225 351 c 0
 282 351 l 2
279 30 m 2
 422.51171875 30 456 102.31640625 456 176 c 0
 456 246.315429688 433.578125 292.637695312 371.08203125 313.143554688 c 0
 343.833984375 321.90234375 297.943359375 323 254 323 c 0
 220 323 l 0
 211.884765625 323 212 320.4375 212 315 c 0
 212 256.344726562 212.85546875 49.4765625 219.418945312 30 c 1
 279 30 l 2
171 -3 m 0
 141.100585938 -3 74.2080078125 -6 65 -6 c 0
 50.794921875 -6 48 -2.42578125 48 15 c 0
 48 28.7109375 53.078125 30 69 30 c 0
 121.631835938 30 l 1
 123.4921875 33.0263671875 124 47.5126953125 124 69 c 0
 124 392 l 0
 124 505.791015625 120.783203125 616.782226562 115.711914062 630.953125 c 1
 60.052734375 629 l 1
 47.5927734375 629 37 631.921875 37 649 c 0
 37 666.2421875 47.1669921875 667 60 667 c 0
 76.1201171875 667 143.072265625 665 173 665 c 0
 211.8515625 665 254.858398438 668 296 668 c 0
 416.333984375 668 521 627.532226562 521 504 c 0
 521 404.526367188 412.749023438 361.080078125 369.0703125 345.197265625 c 1
 365.883789062 343.922851562 360.290039062 341.853515625 360.116210938 341.7890625 c 1
 398.1640625 336.180664062 550 320.002929688 550 169 c 0
 550 11.77734375 378.467773438 -5 267 -5 c 0
 220.943359375 -5 183.80078125 -3 171 -3 c 0
EndSplineSet
AlternateSubs2: "'aalt' Access All Alternates lookup 0 subtable" B.c2
AlternateSubs2: "'aalt' Access All Alternates in Latin lookup 0 subtable" B.c2
Position2: "'cpsp' Capital Spacing in Latin lookup 2 subtable" dx=4 dy=0 dh=8 dv=0
Substitution2: "'c2sc' Capitals to Small Capitals in Latin lookup 12 subtable" B.c2
EndChar

StartChar: C
Encoding: 67 67 28
Width: 731
VWidth: 0
Flags: HW
AnchorPoint: "cedilla" 396 -100 basechar 0
AnchorPoint: "top" 395 780 basechar 0
AnchorPoint: "l;x" 0 380 basechar 0
AnchorPoint: "l;o" 0 200 basechar 0
AnchorPoint: "r;bl" 731 10 basechar 0
AnchorPoint: "r;x" 731 380 basechar 0
AnchorPoint: "r;hi" 731 650 basechar 0
AnchorPoint: "r;o" 731 200 basechar 0
AnchorPoint: "l;bl" 20 10 basechar 0
AnchorPoint: "l;hi" 20 650 basechar 0
LayerCount: 3
Fore
SplineSet
42 335 m 0
 42 545.735351562 198.567382812 683 402 683 c 0
 520.984375 683 590.865234375 624.356445312 610.720703125 610.458007812 c 0
 610.782226562 610.4140625 l 1
 610.841796875 610.368164062 l 0
 616.727539062 605.790039062 621.103515625 603.35546875 621.709960938 603.446289062 c 1
 621.846679688 603.556640625 623 605.408203125 623 611 c 0
 623 638 l 0
 623 649.756835938 625.103515625 654 641 654 c 0
 655.904296875 654 664 652.198242188 664 638 c 0
 664 619.850585938 660 495.924804688 660 445 c 0
 660 431.95703125 655.278320312 426 641 426 c 0
 622.494140625 426 619 430.545898438 619 441 c 0
 619 445.255859375 623 522.197265625 623 531 c 0
 623 541.626953125 527.23828125 647 395 647 c 0
 252.232421875 647 150 513.038085938 150 333 c 0
 150 165.353515625 271.96484375 26 424 26 c 0
 536.051757812 26 613.83984375 82.9072265625 616.013671875 91.2880859375 c 1
 629.024414062 204.383789062 l 1
 631.239257812 219.884765625 637.772460938 223.051757812 654.334960938 220.981445312 c 1
 665.8125 219.833984375 669 212.861328125 669 205 c 0
 669 194.481445312 664.977539062 161.634765625 652.977539062 71.6357421875 c 1
 650.557617188 49.8505859375 522.876953125 -19 396 -19 c 0
 210.73828125 -19 42 92.1962890625 42 335 c 0
EndSplineSet
AlternateSubs2: "'aalt' Access All Alternates lookup 0 subtable" C.c2
AlternateSubs2: "'aalt' Access All Alternates in Latin lookup 0 subtable" C.c2
Position2: "'cpsp' Capital Spacing in Latin lookup 2 subtable" dx=4 dy=0 dh=8 dv=0
Substitution2: "'c2sc' Capitals to Small Capitals in Latin lookup 12 subtable" C.c2
EndChar

StartChar: D
Encoding: 68 68 29
Width: 758
VWidth: 0
Flags: HW
AnchorPoint: "top" 342 780 basechar 0
AnchorPoint: "l;bl" 0 10 basechar 0
AnchorPoint: "l;x" 0 380 basechar 0
AnchorPoint: "l;hi" 0 650 basechar 0
AnchorPoint: "l;o" 0 200 basechar 0
AnchorPoint: "r;x" 758 380 basechar 0
AnchorPoint: "r;o" 748 200 basechar 0
AnchorPoint: "r;bl" 718 10 basechar 0
AnchorPoint: "r;hi" 718 650 basechar 0
LayerCount: 3
Fore
SplineSet
332 681 m 0
 549.208007812 681 716 550.916015625 716 335 c 0
 716 114.142578125 548.325195312 -4.9853515625 368.016601562 -7 c 1
 302.854492188 -7 237.888671875 -3 173 -3 c 0
 145.125 -3 57.2109375 -7 46 -7 c 0
 33.4638671875 -7 32 -2.1416015625 32 10 c 0
 32 26.6123046875 38.7685546875 28 52 28 c 0
 115.911132812 28 l 1
 121.5703125 60.224609375 128 405.21875 128 563 c 0
 128 601.954101562 127.206054688 630.544921875 126.53515625 637.928710938 c 1
 59.04296875 636 l 1
 49.7294921875 636 43 637.270507812 43 651 c 0
 43 663.077148438 44.19140625 670 59 670 c 0
 63.162109375 670 94.015625 669 128 669 c 0
 201.75 669 291.569335938 681 332 681 c 0
217.337890625 28.1494140625 m 1
 225.515625 25.1181640625 253.298828125 25 272 25 c 0
 605.577148438 25 609 261.145507812 609 348 c 0
 609 488.5859375 494.069335938 649 311 649 c 0
 285.57421875 649 244.409179688 648.575195312 223.021484375 643.416992188 c 1
 219.732421875 630.522460938 217 541.374023438 217 499.982421875 c 0
 216.204101562 361.880859375 215.83984375 224.471679688 215.83984375 85.9755859375 c 0
 215.83984375 57.51953125 216.387695312 33.1640625 217.337890625 28.1494140625 c 1
EndSplineSet
AlternateSubs2: "'aalt' Access All Alternates lookup 0 subtable" D.c2
AlternateSubs2: "'aalt' Access All Alternates in Latin lookup 0 subtable" D.c2
Position2: "'cpsp' Capital Spacing in Latin lookup 2 subtable" dx=4 dy=0 dh=8 dv=0
Substitution2: "'c2sc' Capitals to Small Capitals in Latin lookup 12 subtable" D.c2
EndChar

StartChar: E
Encoding: 69 69 30
Width: 605
VWidth: 0
Flags: HW
AnchorPoint: "top" 316 780 basechar 0
AnchorPoint: "l;bl" 0 10 basechar 0
AnchorPoint: "l;x" 0 380 basechar 0
AnchorPoint: "l;hi" 0 650 basechar 0
AnchorPoint: "l;o" 0 200 basechar 0
AnchorPoint: "r;bl" 605 10 basechar 0
AnchorPoint: "r;x" 605 380 basechar 0
AnchorPoint: "r;hi" 605 650 basechar 0
AnchorPoint: "r;o" 605 200 basechar 0
LayerCount: 3
Fore
SplineSet
480.024414062 678.396484375 m 0
 481.158203125 689.736328125 487.086914062 693 496 693 c 0
 510.020507812 693 516 690.95703125 516 679 c 0
 516 659.646484375 512 626.942382812 512 549 c 0
 512 539.208984375 507.282226562 536 493 536 c 0
 479.775390625 536 475 541.80078125 475 553 c 0
 475 557.82421875 477.611328125 617.015625 477.958007812 628.911132812 c 1
 456.967773438 632.3203125 310.177734375 634.98046875 209.940429688 635 c 1
 206.279296875 627.254882812 205 579.481445312 205 510 c 0
 205 467.026367188 205.999023438 418.099609375 207 368.030273438 c 0
 207 354.971679688 205.763671875 355 216 355 c 2
 383 355 l 2
 402.888671875 355 435 356.41015625 435 368 c 2
 435 418 l 2
 435 427.370117188 447.2421875 430 455 430 c 0
 462.043945312 430 472 427.147460938 472 419 c 0
 472 409.745117188 470 376.950195312 470 341 c 0
 470 305.079101562 472 271.208984375 472 258 c 0
 472 250.11328125 463.254882812 247 456 247 c 0
 448.391601562 247 435 249.458984375 435 259 c 2
 435 305 l 2
 435 312.774414062 437.053710938 322 383 322 c 2
 220 322 l 2
 204.569335938 322 207 324.208984375 207 310.03125 c 0
 209.778320312 177.603515625 213.065429688 52.822265625 217.588867188 37 c 1
 317.119140625 37.0400390625 512.68359375 40 517 40 c 0
 532.002929688 40 531.041992188 37.609375 533.009765625 60.2392578125 c 0
 534.995117188 85.0537109375 535.000976562 108.088867188 536 147.038085938 c 0
 536 155.922851562 545.147460938 158 553 158 c 0
 561.592773438 158 573 156.212890625 573 146 c 0
 573 95.90234375 570 37.8447265625 570 8 c 0
 570 -4.4873046875 554.323242188 -6 545 -6 c 0
 521.95703125 -6 204.9609375 -3 175 -3 c 0
 145.122070312 -3 76.1484375 -6 53 -6 c 0
 38.6259765625 -6 37 -2.11328125 37 15 c 0
 37 28.423828125 40.92578125 30 57 30 c 2
 117.817382812 30 l 1
 120.340820312 32.7890625 122 53.6513671875 122 102 c 2
 122 198 l 2
 122 308.9765625 118 485.866210938 118 492 c 0
 118 558.1171875 113.708984375 624.33984375 109.111328125 633 c 1
 67 633 l 2
 55.0986328125 633 45 633.806640625 45 651 c 0
 45 664.217773438 50.845703125 668 60 668 c 0
 67.2333984375 668 132.079101562 665 167 665 c 0
 219.939453125 665 372.9296875 668 416 668 c 0
 484.0703125 668 478.4140625 668.731445312 480.024414062 678.396484375 c 0
EndSplineSet
AlternateSubs2: "'aalt' Access All Alternates lookup 0 subtable" E.c2
AlternateSubs2: "'aalt' Access All Alternates in Latin lookup 0 subtable" E.c2
Position2: "'cpsp' Capital Spacing in Latin lookup 2 subtable" dx=4 dy=0 dh=8 dv=0
Substitution2: "'c2sc' Capitals to Small Capitals in Latin lookup 12 subtable" E.c2
EndChar

StartChar: F
Encoding: 70 70 31
Width: 550
VWidth: 0
Flags: HW
AnchorPoint: "top" 308 780 basechar 0
AnchorPoint: "l;bl" 0 10 basechar 0
AnchorPoint: "l;x" 0 380 basechar 0
AnchorPoint: "l;hi" 0 650 basechar 0
AnchorPoint: "l;o" 0 200 basechar 0
AnchorPoint: "r;x" 550 380 basechar 0
AnchorPoint: "r;hi" 550 650 basechar 0
AnchorPoint: "r;o" 530 200 basechar 0
LayerCount: 3
Fore
SplineSet
482.024414062 678.396484375 m 0
 483.158203125 689.736328125 489.086914062 693 498 693 c 0
 512.020507812 693 518 690.95703125 518 679 c 0
 518 659.646484375 514 626.942382812 514 549 c 0
 514 539.208984375 509.282226562 536 495 536 c 0
 481.775390625 536 477 541.80078125 477 553 c 0
 477 557.814453125 479.612304688 617.038085938 479.95703125 628.884765625 c 1
 458.486328125 632.293945312 302.391601562 634.98046875 201.986328125 635 c 1
 198.110351562 625.956054688 197 577.223632812 197 524 c 0
 197 461.01171875 197.999023438 391.083984375 199 368.065429688 c 1
 199 352.612304688 196.666992188 355 212 355 c 0
 385 355 l 0
 404.888671875 355 437 356.41015625 437 368 c 0
 437 418 l 0
 437 427.370117188 449.2421875 430 457 430 c 0
 464.043945312 430 474 427.147460938 474 419 c 0
 474 409.745117188 472 376.950195312 472 341 c 0
 472 305.073242188 474 261.17578125 474 248 c 0
 474 240.11328125 465.254882812 237 458 237 c 0
 450.391601562 237 437 239.458984375 437 249 c 0
 437 305 l 0
 437 312.774414062 439.053710938 322 385 322 c 0
 212 322 l 0
 198.321289062 322 199 322.575195312 199 305.032226562 c 1
 201.779296875 174.399414062 200.764648438 46.0029296875 204.685546875 30 c 1
 286 30 l 0
 298.189453125 30 300 26.33203125 300 14 c 0
 300 -1.0947265625 297.745117188 -6 286 -6 c 0
 262.841796875 -6 195.884765625 -3 166 -3 c 0
 136.146484375 -3 86.1826171875 -6 63 -6 c 0
 48.794921875 -6 46 -2.42578125 46 15 c 0
 46 28.7109375 51.078125 30 67 30 c 0
 109.817382812 30 l 1
 112.340820312 32.7890625 114 53.6513671875 114 102 c 0
 114 198 l 0
 114 308.9765625 110 485.866210938 110 492 c 0
 110 558.1171875 105.708984375 624.33984375 101.111328125 633 c 1
 59 633 l 0
 47.0986328125 633 37 633.806640625 37 651 c 0
 37 664.217773438 42.845703125 668 52 668 c 0
 59.2333984375 668 124.079101562 665 159 665 c 0
 211.94140625 665 374.93359375 668 418 668 c 0
 486.0703125 668 480.4140625 668.731445312 482.024414062 678.396484375 c 0
EndSplineSet
AlternateSubs2: "'aalt' Access All Alternates lookup 0 subtable" F.c2
AlternateSubs2: "'aalt' Access All Alternates in Latin lookup 0 subtable" F.c2
Position2: "'cpsp' Capital Spacing in Latin lookup 2 subtable" dx=4 dy=0 dh=8 dv=0
Substitution2: "'c2sc' Capitals to Small Capitals in Latin lookup 12 subtable" F.c2
EndChar

StartChar: G
Encoding: 71 71 32
Width: 764
VWidth: 0
Flags: HW
AnchorPoint: "cedilla" 416 -100 basechar 0
AnchorPoint: "top" 404 780 basechar 0
AnchorPoint: "l;x" 0 380 basechar 0
AnchorPoint: "l;o" 0 200 basechar 0
AnchorPoint: "r;bl" 744 10 basechar 0
AnchorPoint: "r;x" 744 380 basechar 0
AnchorPoint: "r;hi" 744 650 basechar 0
AnchorPoint: "r;o" 764 200 basechar 0
AnchorPoint: "l;bl" 20 10 basechar 0
AnchorPoint: "l;hi" 20 650 basechar 0
LayerCount: 3
Fore
SplineSet
674 73 m 0
 674 50.587890625 531.427734375 -21 396 -21 c 0
 210.763671875 -21 42 86.2021484375 42 335 c 0
 42 557.84375 204.748046875 680 408 680 c 0
 519.830078125 680 590.458984375 634.640625 610.720703125 620.458007812 c 0
 610.782226562 620.4140625 l 1
 610.841796875 620.368164062 l 0
 616.727539062 615.790039062 621.103515625 613.35546875 621.709960938 613.446289062 c 1
 621.846679688 613.556640625 623 615.408203125 623 621 c 0
 623 646 l 0
 623 657.756835938 625.103515625 662 641 662 c 0
 656.041015625 662 663 659.973632812 663 646 c 0
 663 631.875 660 515.944335938 660 465 c 0
 660 451.95703125 655.278320312 446 641 446 c 0
 622.494140625 446 619 450.545898438 619 461 c 0
 619 465.349609375 623 532.130859375 623 541 c 0
 623 551.637695312 539.349609375 647 404 647 c 0
 261.138671875 647 150 512.897460938 150 333 c 0
 150 165.176757812 264.11328125 15 424 15 c 0
 536.990234375 15 583.318359375 60.6416015625 584.015625 68.3115234375 c 1
 585.987304688 85.06640625 587 127.0625 587 162 c 0
 587 195.111328125 583.256835938 217 580 217 c 0
 493 217 l 0
 484.400390625 217 482 224.806640625 482 232 c 0
 482 240.44921875 483.58203125 253 494.030273438 253 c 1
 543.1328125 251.998046875 594.088867188 250 626 250 c 0
 657.840820312 250 668.784179688 251.99609375 715.967773438 253 c 1
 725.98046875 253 727 243.577148438 727 236 c 0
 727 228.744140625 726.376953125 217 716 217 c 0
 685 217 l 0
 676.288085938 217 675 199.018554688 675 162 c 0
 675 136.923828125 674 105.942382812 674 73 c 0
EndSplineSet
AlternateSubs2: "'aalt' Access All Alternates lookup 0 subtable" G.c2
AlternateSubs2: "'aalt' Access All Alternates in Latin lookup 0 subtable" G.c2
Position2: "'cpsp' Capital Spacing in Latin lookup 2 subtable" dx=4 dy=0 dh=8 dv=0
Substitution2: "'c2sc' Capitals to Small Capitals in Latin lookup 12 subtable" G.c2
EndChar

StartChar: H
Encoding: 72 72 33
Width: 791
VWidth: 0
Flags: HW
AnchorPoint: "top" 402 780 basechar 0
AnchorPoint: "l;bl" 0 10 basechar 0
AnchorPoint: "l;x" 0 380 basechar 0
AnchorPoint: "l;hi" 0 650 basechar 0
AnchorPoint: "l;o" 0 200 basechar 0
AnchorPoint: "r;bl" 791 10 basechar 0
AnchorPoint: "r;x" 791 380 basechar 0
AnchorPoint: "r;hi" 791 650 basechar 0
AnchorPoint: "r;o" 791 200 basechar 0
LayerCount: 3
Fore
SplineSet
114.18359375 636 m 1
 73 636 l 0
 61.220703125 636 50 636.625976562 50 654 c 0
 50 671.2421875 60.1669921875 672 73 672 c 0
 89.23828125 672 133.141601562 669 163 669 c 0
 192.857421875 669 245.82421875 672 269 672 c 0
 283.205078125 672 286 668.42578125 286 651 c 0
 286 637.2890625 280.921875 636 265 636 c 0
 212.131835938 636 l 1
 208.124023438 625.817382812 207 566.793945312 207 505 c 0
 207 455.034179688 208 403.055664062 208 373 c 0
 208 356.52734375 207.092773438 358 220 358 c 0
 585 358 l 0
 599.119140625 358 597 356.603515625 597 370 c 0
 597 492 l 0
 597 557.778320312 593.721679688 626.083007812 589.059570312 636 c 1
 533 636 l 0
 520.5234375 636 515 637.71875 515 654 c 0
 515 670.0859375 519.459960938 672 533 672 c 0
 549.194335938 672 608.12109375 669 638 669 c 0
 667.889648438 669 722.758789062 672 733 672 c 0
 747.205078125 672 750 668.42578125 750 651 c 0
 750 637.2890625 744.921875 636 729 636 c 0
 685.717773438 636 l 1
 684.817382812 617.26953125 684 513.771484375 684 397 c 0
 684 237.671875 685.010742188 53.5361328125 687.399414062 30 c 1
 740 30 l 0
 752.189453125 30 754 26.33203125 754 14 c 0
 754 -1.0947265625 751.745117188 -6 740 -6 c 0
 716.794921875 -6 675.837890625 -3 646 -3 c 0
 616.137695312 -3 558.163085938 -6 535 -6 c 0
 520.794921875 -6 518 -2.42578125 518 15 c 0
 518 28.7109375 523.078125 30 539 30 c 0
 592.495117188 30 l 1
 596.017578125 42.3203125 597 111.317382812 597 192 c 0
 597 316 l 0
 597 330.178710938 598.28125 328 591 328 c 0
 217 328 l 0
 207.375 328 208 329.706054688 208 314 c 0
 208 191.188476562 210.552734375 46.0302734375 217.134765625 30 c 1
 281 30 l 0
 293.189453125 30 295 26.33203125 295 14 c 0
 295 -1.0947265625 292.745117188 -6 281 -6 c 0
 257.830078125 -6 200.866210938 -3 171 -3 c 0
 141.133789062 -3 77.1474609375 -6 54 -6 c 0
 39.794921875 -6 37 -2.42578125 37 15 c 0
 37 28.7109375 42.078125 30 58 30 c 0
 113.334960938 30 l 1
 117.931640625 47.552734375 119 179.565429688 119 285 c 0
 119 387 l 0
 119 500.548828125 117.736328125 620.161132812 114.18359375 636 c 1
EndSplineSet
AlternateSubs2: "'aalt' Access All Alternates lookup 0 subtable" H.c2
AlternateSubs2: "'aalt' Access All Alternates in Latin lookup 0 subtable" H.c2
Position2: "'cpsp' Capital Spacing in Latin lookup 2 subtable" dx=4 dy=0 dh=8 dv=0
Substitution2: "'c2sc' Capitals to Small Capitals in Latin lookup 12 subtable" H.c2
EndChar

StartChar: I
Encoding: 73 73 34
Width: 333
VWidth: 0
Flags: HW
AnchorPoint: "top" 168 780 basechar 0
AnchorPoint: "l;bl" 0 10 basechar 0
AnchorPoint: "l;x" 0 380 basechar 0
AnchorPoint: "l;hi" 0 650 basechar 0
AnchorPoint: "l;o" 0 200 basechar 0
AnchorPoint: "r;bl" 333 10 basechar 0
AnchorPoint: "r;x" 333 380 basechar 0
AnchorPoint: "r;hi" 333 650 basechar 0
AnchorPoint: "r;o" 333 200 basechar 0
LayerCount: 3
Fore
SplineSet
115.059570312 636 m 1
 54 636 l 0
 42.220703125 636 31 636.625976562 31 654 c 0
 31 671.2421875 41.1669921875 672 54 672 c 0
 70.171875 672 144.096679688 669 174 669 c 0
 203.865234375 669 265.846679688 672 289 672 c 0
 303.205078125 672 306 668.42578125 306 651 c 0
 306 637.2890625 300.921875 636 285 636 c 0
 222.600585938 636 l 1
 215.674804688 625.65234375 214 533.201171875 214 481 c 0
 214 346 l 0
 214 218.126953125 215.62890625 48.1083984375 222.265625 30 c 1
 292 30 l 0
 304.189453125 30 306 26.33203125 306 14 c 0
 306 -1.0947265625 303.745117188 -6 292 -6 c 0
 268.841796875 -6 201.884765625 -3 172 -3 c 0
 142.116210938 -3 67.1396484375 -6 44 -6 c 0
 29.794921875 -6 27 -2.42578125 27 15 c 0
 27 28.7109375 32.078125 30 48 30 c 0
 114.580078125 30 l 1
 121.809570312 52.2138671875 123 263.1015625 123 394 c 0
 123 492 l 0
 123 557.778320312 119.721679688 626.083007812 115.059570312 636 c 1
EndSplineSet
AlternateSubs2: "'aalt' Access All Alternates lookup 0 subtable" I.c2
AlternateSubs2: "'aalt' Access All Alternates in Latin lookup 0 subtable" I.c2
Position2: "'cpsp' Capital Spacing in Latin lookup 2 subtable" dx=4 dy=0 dh=8 dv=0
Substitution2: "'c2sc' Capitals to Small Capitals in Latin lookup 12 subtable" I.c2
EndChar

StartChar: J
Encoding: 74 74 35
Width: 333
VWidth: 0
Flags: HW
AnchorPoint: "top" 167 780 basechar 0
AnchorPoint: "l;bl" 0 10 basechar 0
AnchorPoint: "l;x" 0 380 basechar 0
AnchorPoint: "l;hi" 0 650 basechar 0
AnchorPoint: "l;o" 0 200 basechar 0
AnchorPoint: "l;k;lo" -40 -260 basechar 0
AnchorPoint: "r;bl" 333 10 basechar 0
AnchorPoint: "r;x" 333 380 basechar 0
AnchorPoint: "r;hi" 333 650 basechar 0
AnchorPoint: "r;o" 333 200 basechar 0
LayerCount: 3
Fore
SplineSet
126 -5 m 2
 126 492 l 0
 126 557.778320312 122.721679688 626.083007812 118.059570312 636 c 1
 54 636 l 0
 42.220703125 636 31 636.625976562 31 654 c 0
 31 671.2421875 41.1669921875 672 54 672 c 0
 70.1591796875 672 147.10546875 669 177 669 c 0
 206.8515625 669 255.814453125 672 279 672 c 0
 293.205078125 672 296 668.42578125 296 651 c 0
 296 637.2890625 290.921875 636 275 636 c 0
 226.448242188 636 l 1
 221.260742188 619.129882812 221 492.0703125 221 370 c 0
 221 130 l 0
 221 43.888671875 213.056640625 -66.1279296875 134.190429688 -150.049804688 c 0
 105.220703125 -181.017578125 70.53125 -215 23 -215 c 0
 0.462890625 -215 -33 -205.744140625 -33 -188 c 0
 -33 -150.23828125 28.5888671875 -121 37 -121 c 0
 55.458984375 -121 69.900390625 -142 89 -142 c 0
 123.025390625 -142 126 -92.5849609375 126 -5 c 2
EndSplineSet
AlternateSubs2: "'aalt' Access All Alternates lookup 0 subtable" J.c2
AlternateSubs2: "'aalt' Access All Alternates in Latin lookup 0 subtable" J.c2
Position2: "'cpsp' Capital Spacing in Latin lookup 2 subtable" dx=4 dy=0 dh=8 dv=0
Substitution2: "'c2sc' Capitals to Small Capitals in Latin lookup 12 subtable" J.c2
EndChar

StartChar: K
Encoding: 75 75 36
Width: 650
VWidth: 0
Flags: HW
AnchorPoint: "cedilla" 336 -100 basechar 0
AnchorPoint: "l;bl" 0 10 basechar 0
AnchorPoint: "l;x" 0 380 basechar 0
AnchorPoint: "l;hi" 0 650 basechar 0
AnchorPoint: "l;o" 0 200 basechar 0
AnchorPoint: "r;bl" 650 10 basechar 0
AnchorPoint: "r;x" 610 380 basechar 0
AnchorPoint: "r;hi" 645 650 basechar 0
AnchorPoint: "r;o" 630 200 basechar 0
LayerCount: 3
Fore
SplineSet
466.599609375 614.80078125 m 0
 471.767578125 622.037109375 475 626.760742188 475 629 c 0
 475 629.2109375 472.313476562 631 463 631 c 0
 426 631 l 0
 414.220703125 631 403 631.625976562 403 649 c 0
 403 666.2421875 413.166992188 667 426 667 c 0
 442.2578125 667 481.1484375 664 511 664 c 0
 540.803710938 664 567.747070312 667 591 667 c 0
 605.205078125 667 608 663.42578125 608 646 c 0
 608 632.2890625 602.921875 631 587 631 c 0
 539.283203125 631 l 1
 525.407226562 615.354492188 379.796875 440.095703125 324.258789062 374.025390625 c 1
 315.166015625 364.022460938 316.909179688 368.395507812 327.28515625 355.943359375 c 1
 596.248046875 45.986328125 l 1
 605.131835938 36.1162109375 612.223632812 30 625 30 c 2
 639 30 l 0
 651.189453125 30 653 26.33203125 653 14 c 0
 653 -1.0947265625 650.745117188 -6 639 -6 c 0
 615.809570312 -6 568.849609375 -3 539 -3 c 0
 509.15234375 -3 462.188476562 -6 439 -6 c 0
 424.794921875 -6 422 -2.42578125 422 15 c 0
 422 28.7109375 427.078125 30 443 30 c 0
 473 30 l 0
 481 30 485.463867188 31.052734375 486.686523438 31.525390625 c 1
 484.280273438 34.6357421875 480.461914062 37.5185546875 475.708007812 43.064453125 c 0
 258.724609375 300.043945312 l 1
 251.990234375 307.741210938 254.100585938 307 239 307 c 0
 219 307 l 0
 207.28125 307 208 308.616210938 208 298 c 0
 208 179.161132812 209.112304688 43.703125 216.750976562 30 c 1
 289 30 l 0
 301.189453125 30 303 26.33203125 303 14 c 0
 303 -1.0947265625 300.745117188 -6 289 -6 c 0
 265.841796875 -6 198.884765625 -3 169 -3 c 0
 139.134765625 -3 77.1533203125 -6 54 -6 c 0
 39.794921875 -6 37 -2.42578125 37 15 c 0
 37 28.7109375 42.078125 30 58 30 c 0
 111.978515625 30 l 1
 116.818359375 41.3974609375 118 113.631835938 118 197 c 0
 118 487 l 0
 118 552.73828125 116.365234375 621.14453125 112.014648438 631 c 1
 69 631 l 0
 57.220703125 631 46 631.625976562 46 649 c 0
 46 666.2421875 56.1669921875 667 69 667 c 0
 85.2021484375 667 141.125 664 171 664 c 0
 200.857421875 664 253.82421875 667 277 667 c 0
 291.205078125 667 294 663.42578125 294 646 c 0
 294 632.2890625 288.921875 631 273 631 c 0
 219.5625 631 l 1
 212.227539062 620.494140625 208 528.157226562 208 476 c 0
 208 351 l 0
 208 336.844726562 208.352539062 334 218 334 c 0
 240 334 l 0
 261.3359375 334 429.017578125 567.061523438 466.599609375 614.80078125 c 0
EndSplineSet
AlternateSubs2: "'aalt' Access All Alternates lookup 0 subtable" K.c2
AlternateSubs2: "'aalt' Access All Alternates in Latin lookup 0 subtable" K.c2
Position2: "'cpsp' Capital Spacing in Latin lookup 2 subtable" dx=4 dy=0 dh=8 dv=0
Substitution2: "'c2sc' Capitals to Small Capitals in Latin lookup 12 subtable" K.c2
EndChar

StartChar: L
Encoding: 76 76 37
Width: 592
VWidth: 0
Flags: HW
AnchorPoint: "caron" 337 550 basechar 0
AnchorPoint: "cedilla" 332 -100 basechar 0
AnchorPoint: "top" 172 780 basechar 0
AnchorPoint: "l;bl" 0 10 basechar 0
AnchorPoint: "l;x" 0 380 basechar 0
AnchorPoint: "l;hi" 0 650 basechar 0
AnchorPoint: "l;o" 0 200 basechar 0
AnchorPoint: "r;bl" 592 10 basechar 0
AnchorPoint: "r;o" 592 200 basechar 0
LayerCount: 3
Fore
SplineSet
223.884765625 34 m 1
 326.297851562 34.0341796875 504.993164062 39.01171875 515.770507812 39.9912109375 c 1
 531.370117188 40.966796875 533.151367188 39.3115234375 536.030273438 60.423828125 c 0
 548.041992188 144.506835938 l 1
 548.05859375 144.587890625 l 0
 549.3671875 151.134765625 554.926757812 155 562 155 c 0
 571.7890625 155 585 151.428710938 585 142 c 0
 585 133.0703125 567.974609375 36.6083984375 563.977539062 7.62890625 c 1
 562.651367188 -4.3017578125 548.624023438 -6 539 -6 c 0
 515.956054688 -6 204.959960938 -3 175 -3 c 0
 145.122070312 -3 76.1484375 -6 53 -6 c 0
 38.6259765625 -6 37 -2.11328125 37 15 c 0
 37 28.423828125 40.92578125 30 57 30 c 0
 117.725585938 30 l 1
 123.733398438 46.0859375 125 181.27734375 125 319 c 0
 125 550 l 0
 125 598.265625 123.205078125 631.239257812 120.361328125 636 c 1
 63 636 l 0
 49.4033203125 636 44 638.6875 44 654 c 0
 44 669.771484375 50.8125 672 67 672 c 0
 83.185546875 672 147.114257812 669 177 669 c 0
 206.8671875 669 271.854492188 672 295 672 c 0
 311.619140625 672 315 669.0078125 315 654 c 0
 315 640.80859375 310.841796875 636 294 636 c 0
 225.12109375 636 l 1
 219.301757812 622.163085938 218 513.6796875 218 424 c 0
 218 147 l 0
 218 86.73046875 220.4296875 40.935546875 223.884765625 34 c 1
EndSplineSet
AlternateSubs2: "'aalt' Access All Alternates lookup 0 subtable" L.c2
AlternateSubs2: "'aalt' Access All Alternates in Latin lookup 0 subtable" L.c2 L.CAT
Position2: "'cpsp' Capital Spacing in Latin lookup 2 subtable" dx=4 dy=0 dh=8 dv=0
Substitution2: "'c2sc' Capitals to Small Capitals in Latin lookup 12 subtable" L.c2
Substitution2: "catalan subtable" L.CAT
EndChar

StartChar: M
Encoding: 77 77 38
Width: 895
VWidth: 0
Flags: HW
AnchorPoint: "top" 458 780 basechar 0
AnchorPoint: "l;bl" 0 10 basechar 0
AnchorPoint: "l;x" 0 380 basechar 0
AnchorPoint: "l;hi" 0 650 basechar 0
AnchorPoint: "l;o" 0 200 basechar 0
AnchorPoint: "r;bl" 895 10 basechar 0
AnchorPoint: "r;x" 895 380 basechar 0
AnchorPoint: "r;hi" 895 650 basechar 0
AnchorPoint: "r;o" 895 200 basechar 0
LayerCount: 3
Fore
SplineSet
400.22265625 19.865234375 m 2
 167.23046875 594.845703125 l 1
 160.94921875 609.501953125 156.397460938 619.142578125 154.752929688 621.576171875 c 1
 153.876953125 616.73046875 153.647460938 607.5234375 152.998046875 593.88671875 c 0
 148 461.951171875 145 259.955078125 145 129 c 0
 145 76.431640625 146.7734375 38.369140625 148.73046875 30 c 1
 219 30 l 0
 231.189453125 30 233 26.33203125 233 14 c 0
 233 -1.0947265625 230.745117188 -6 219 -6 c 0
 195.776367188 -6 160.825195312 -3 131 -3 c 0
 101.189453125 -3 72.24609375 -6 49 -6 c 0
 34.794921875 -6 32 -2.42578125 32 15 c 0
 32 28.7109375 37.078125 30 53 30 c 0
 94.4619140625 30 l 1
 98.2275390625 36.4287109375 98.3408203125 75.005859375 101.00390625 129.147460938 c 0
 104 190.069335938 119 556.201171875 119 626 c 0
 119 634.069335938 118.768554688 636 100 636 c 0
 54 636 l 0
 41.810546875 636 40 639.66796875 40 652 c 0
 40 667.094726562 42.2548828125 672 54 672 c 0
 68.1689453125 672 140.12890625 669 161 669 c 0
 182.836914062 669 213.584960938 672 220 672 c 0
 230.439453125 672 237.334960938 670.196289062 242.77734375 657.134765625 c 1
 452.78515625 133.114257812 l 0
 456.762695312 123.170898438 459.9375 116.036132812 461.046875 114.110351562 c 1
 463.578125 118.315429688 465.887695312 123.806640625 469.186523438 133.041992188 c 1
 665.196289062 644.068359375 l 0
 673.23046875 665.158203125 676.905273438 669 693 669 c 0
 739 669 l 0
 768.84765625 669 815.811523438 672 839 672 c 0
 853.205078125 672 856 668.42578125 856 651 c 0
 856 637.2890625 850.921875 636 835 636 c 0
 789.532226562 636 l 1
 786.44921875 631.375 785 602.154296875 785 559 c 0
 785 469 l 0
 785 297.10546875 791.15234375 52.2919921875 799.327148438 30 c 1
 852 30 l 0
 863.776367188 30 868 27.0830078125 868 14 c 0
 868 -1.0947265625 865.745117188 -6 854 -6 c 0
 830.825195312 -6 776.860351562 -3 747 -3 c 0
 717.142578125 -3 664.17578125 -6 641 -6 c 0
 626.794921875 -6 624 -2.42578125 624 15 c 0
 624 28.7109375 629.078125 30 645 30 c 0
 689.987304688 30 l 1
 694.921875 40.984375 697 114.87890625 697 204 c 0
 697 307.76171875 693.75 557.5859375 691.046875 610.145507812 c 1
 666.579101562 552.68359375 558.541015625 265.278320312 493.772460938 107.854492188 c 0
 474.53515625 61.2802734375 461.370117188 58.03125 437.704101562 10.7001953125 c 1
 431.88671875 -1.9052734375 426.673828125 -10 420 -10 c 0
 411.6328125 -10 406.825195312 3.83203125 400.22265625 19.865234375 c 2
EndSplineSet
AlternateSubs2: "'aalt' Access All Alternates lookup 0 subtable" M.c2
AlternateSubs2: "'aalt' Access All Alternates in Latin lookup 0 subtable" M.c2
Position2: "'cpsp' Capital Spacing in Latin lookup 2 subtable" dx=4 dy=0 dh=8 dv=0
Substitution2: "'c2sc' Capitals to Small Capitals in Latin lookup 12 subtable" M.c2
EndChar

StartChar: N
Encoding: 78 78 39
Width: 814
VWidth: 0
Flags: HW
AnchorPoint: "cedilla" 414 -100 basechar 0
AnchorPoint: "top" 421 780 basechar 0
AnchorPoint: "l;bl" 0 10 basechar 0
AnchorPoint: "l;x" 0 380 basechar 0
AnchorPoint: "l;hi" 0 650 basechar 0
AnchorPoint: "l;o" 0 200 basechar 0
AnchorPoint: "r;bl" 814 10 basechar 0
AnchorPoint: "r;x" 814 380 basechar 0
AnchorPoint: "r;hi" 814 650 basechar 0
AnchorPoint: "r;o" 814 200 basechar 0
LayerCount: 3
Fore
SplineSet
243.334960938 657.883789062 m 2
 649.322265625 158.899414062 l 0
 656.3671875 150.288085938 661.862304688 142.955078125 664.4609375 140.561523438 c 1
 665.500976562 143.939453125 666 151.673828125 666 165 c 0
 666 207 l 0
 666 304.969726562 664 481.969726562 664 583 c 0
 664 610.098632812 663.901367188 630.349609375 663.512695312 636 c 1
 572 636 l 0
 559.810546875 636 558 639.66796875 558 652 c 0
 558 667.094726562 560.254882812 672 572 672 c 0
 595.176757812 672 648.141601562 669 678 669 c 0
 707.810546875 669 736.75390625 672 760 672 c 0
 774.205078125 672 777 668.42578125 777 651 c 0
 777 637.2890625 771.921875 636 756 636 c 0
 711.173828125 636 l 1
 709.8671875 628.955078125 708 609.483398438 708 579.98046875 c 0
 707 424.94921875 695 14.82421875 695 4 c 0
 695 -12.021484375 689.970703125 -21 682 -21 c 0
 674.422851562 -21 667.352539062 -10.5205078125 661.702148438 -3.9296875 c 1
 169.669921875 594.109375 l 1
 163.703125 601.568359375 158.739257812 608.32421875 156.883789062 610.13671875 c 1
 156.153320312 606.025390625 156 602.217773438 156 593.940429688 c 1
 154.999023438 568.922851562 155 525.032226562 155 472 c 0
 155 365.984375 154 223.982421875 154 129 c 0
 154 76.431640625 155.7734375 38.369140625 157.73046875 30 c 1
 242 30 l 0
 254.189453125 30 256 26.33203125 256 14 c 0
 256 -1.0947265625 253.745117188 -6 242 -6 c 0
 218.823242188 -6 165.858398438 -3 136 -3 c 0
 106.189453125 -3 77.24609375 -6 54 -6 c 0
 39.794921875 -6 37 -2.42578125 37 15 c 0
 37 28.7109375 42.078125 30 58 30 c 0
 102 30 l 0
 110.16015625 30 108.911132812 65.3349609375 111.000976562 129.086914062 c 0
 115.723632812 291.548828125 118.665039062 602.497070312 118.97265625 636 c 1
 54 636 l 0
 41.810546875 636 40 639.66796875 40 652 c 0
 40 667.094726562 42.2548828125 672 54 672 c 0
 68.1630859375 672 145.119140625 669 166 669 c 0
 187.83984375 669 214.526367188 672 221 672 c 0
 233.088867188 672 235.602539062 667.548828125 243.334960938 657.883789062 c 2
EndSplineSet
AlternateSubs2: "'aalt' Access All Alternates lookup 0 subtable" N.c2
AlternateSubs2: "'aalt' Access All Alternates in Latin lookup 0 subtable" N.c2
Position2: "'cpsp' Capital Spacing in Latin lookup 2 subtable" dx=4 dy=0 dh=8 dv=0
Substitution2: "'c2sc' Capitals to Small Capitals in Latin lookup 12 subtable" N.c2
EndChar

StartChar: O
Encoding: 79 79 40
Width: 752
VWidth: 0
Flags: HW
AnchorPoint: "top" 375 780 basechar 0
AnchorPoint: "l;x" 0 380 basechar 0
AnchorPoint: "l;o" 10 200 basechar 0
AnchorPoint: "r;x" 752 380 basechar 0
AnchorPoint: "l;bl" 40 10 basechar 0
AnchorPoint: "l;hi" 40 650 basechar 0
AnchorPoint: "r;bl" 712 10 basechar 0
AnchorPoint: "r;hi" 712 650 basechar 0
AnchorPoint: "r;o" 742 200 basechar 0
LayerCount: 3
Fore
SplineSet
370 -14 m 0
 208.619140625 -14 42 102.166992188 42 318 c 0
 42 535.591796875 199.370117188 678 385 678 c 0
 584.903320312 678 710 519.26953125 710 324 c 0
 710 122.390625 568.5390625 -14 370 -14 c 0
371 20 m 0
 533.490234375 20 612 179.62890625 612 333 c 0
 612 485.40234375 535.465820312 644 375 644 c 0
 234.415039062 644 142 497.14453125 142 345 c 0
 142 165.596679688 228.54296875 20 371 20 c 0
EndSplineSet
AlternateSubs2: "'aalt' Access All Alternates lookup 0 subtable" O.c2
AlternateSubs2: "'aalt' Access All Alternates in Latin lookup 0 subtable" O.c2
Position2: "'cpsp' Capital Spacing in Latin lookup 2 subtable" dx=4 dy=0 dh=8 dv=0
Substitution2: "'c2sc' Capitals to Small Capitals in Latin lookup 12 subtable" O.c2
EndChar

StartChar: P
Encoding: 80 80 41
Width: 564
VWidth: 0
Flags: HW
AnchorPoint: "top" 304 780 basechar 0
AnchorPoint: "l;bl" 0 10 basechar 0
AnchorPoint: "l;x" 0 380 basechar 0
AnchorPoint: "l;hi" 0 650 basechar 0
AnchorPoint: "l;o" 0 200 basechar 0
AnchorPoint: "r;x" 554 380 basechar 0
AnchorPoint: "r;hi" 564 650 basechar 0
AnchorPoint: "r;o" 524 200 basechar 0
LayerCount: 3
Fore
SplineSet
455 486 m 0
 455 580.587890625 365.299804688 638 247 638 c 0
 236.518554688 638 224.04296875 637.850585938 215.07421875 637.083984375 c 1
 212.993164062 632.196289062 212 611.087890625 212 586 c 0
 212 325 l 0
 212 317.12109375 229.490234375 315 247 315 c 0
 360.346679688 315 455 359.2421875 455 486 c 0
547 471 m 0
 547 340.708984375 446.591796875 287 305 287 c 0
 268.815429688 287 245.7578125 290 218 290 c 0
 210.129882812 290 211 287.93359375 211 282 c 0
 211 216 l 0
 211 142.984375 212.173828125 44.81640625 214.958984375 30 c 1
 286 30 l 0
 298.189453125 30 300 26.33203125 300 14 c 0
 300 -1.0947265625 297.745117188 -6 286 -6 c 0
 262.836914062 -6 200.875 -3 171 -3 c 0
 141.100585938 -3 73.2041015625 -6 64 -6 c 0
 49.794921875 -6 47 -2.42578125 47 15 c 0
 47 28.7109375 52.078125 30 68 30 c 0
 117.229492188 30 l 1
 123.939453125 58.6201171875 125 349.88671875 125 474 c 0
 125 526 l 0
 125 580.809570312 123.856445312 622.353515625 121.530273438 630.952148438 c 1
 60.0478515625 629 l 1
 47.5966796875 629 37 631.921875 37 649 c 0
 37 666.2421875 47.1669921875 667 60 667 c 0
 76.1201171875 667 143.072265625 665 173 665 c 0
 202.811523438 665 280.772460938 670 304 670 c 0
 440.796875 670 547 608.17578125 547 471 c 0
EndSplineSet
AlternateSubs2: "'aalt' Access All Alternates lookup 0 subtable" P.c2
AlternateSubs2: "'aalt' Access All Alternates in Latin lookup 0 subtable" P.c2
Position2: "'cpsp' Capital Spacing in Latin lookup 2 subtable" dx=4 dy=0 dh=8 dv=0
Substitution2: "'c2sc' Capitals to Small Capitals in Latin lookup 12 subtable" P.c2
EndChar

StartChar: Q
Encoding: 81 81 42
Width: 783
VWidth: 0
Flags: HW
AnchorPoint: "l;hi" 40 650 basechar 0
AnchorPoint: "l;bl" 40 10 basechar 0
AnchorPoint: "l;o" 10 200 basechar 0
AnchorPoint: "l;x" 0 380 basechar 0
AnchorPoint: "r;bl" 783 10 basechar 0
AnchorPoint: "r;x" 783 380 basechar 0
AnchorPoint: "r;o" 783 200 basechar 0
AnchorPoint: "r;k;lo" 763 -260 basechar 0
AnchorPoint: "r;hi" 743 650 basechar 0
LayerCount: 3
Fore
SplineSet
434 21 m 0
 462.797851562 21 637 109.520507812 637 332 c 0
 637 484.108398438 542.63671875 644 382 644 c 0
 241.122070312 644 135 507.802734375 135 356 c 0
 135 264.721679688 168.77734375 178.383789062 219.255859375 120.977539062 c 0
 275.27734375 57.0927734375 412.078125 21 434 21 c 0
42 340 m 0
 42 557.8515625 206.700195312 678 392 678 c 0
 591.513671875 678 741 535.69921875 741 340 c 0
 741 177.657226562 639.059570312 52.4697265625 494.8125 11.1123046875 c 0
 467.673828125 3.4794921875 343.55859375 -51.2578125 313.604492188 -65.77734375 c 1
 338.848632812 -68.1201171875 411.494140625 -69.27734375 459.646484375 -80.0703125 c 0
 527.91015625 -95.12890625 596.006835938 -121 639 -121 c 0
 706.76171875 -121 735.703125 -91 745 -91 c 0
 750.346679688 -91 762 -101.139648438 762 -111 c 0
 762 -127.7421875 677.421875 -190 603 -190 c 0
 465.166992188 -190 306.172851562 -107 254 -107 c 0
 229.958984375 -107 196.931640625 -125 187 -125 c 0
 171.271484375 -125 148 -92.58984375 148 -80 c 0
 148 -65.453125 159.036132812 -62 176 -62 c 0
 183.268554688 -62 191.268554688 -63 198 -63 c 0
 214.862304688 -63 233.658203125 -61.9970703125 254.268554688 -57.08984375 c 1
 282.563476562 -49.6005859375 366.165039062 -12.775390625 388.220703125 -0.70703125 c 1
 385.052734375 -0.4150390625 383.912109375 -0.3037109375 381.603515625 0.0263671875 c 1
 202.92578125 22.1103515625 42 116.036132812 42 340 c 0
EndSplineSet
AlternateSubs2: "'aalt' Access All Alternates lookup 0 subtable" Q.c2
AlternateSubs2: "'aalt' Access All Alternates in Latin lookup 0 subtable" Q.c2
Position2: "'cpsp' Capital Spacing in Latin lookup 2 subtable" dx=4 dy=0 dh=8 dv=0
Substitution2: "'c2sc' Capitals to Small Capitals in Latin lookup 12 subtable" Q.c2
EndChar

StartChar: R
Encoding: 82 82 43
Width: 641
VWidth: 0
Flags: HW
AnchorPoint: "cedilla" 362 -100 basechar 0
AnchorPoint: "top" 297 780 basechar 0
AnchorPoint: "l;bl" 0 10 basechar 0
AnchorPoint: "l;x" 0 380 basechar 0
AnchorPoint: "l;hi" 0 650 basechar 0
AnchorPoint: "l;o" 0 200 basechar 0
AnchorPoint: "r;bl" 641 10 basechar 0
AnchorPoint: "r;o" 641 200 basechar 0
AnchorPoint: "r;x" 621 380 basechar 0
AnchorPoint: "r;hi" 591 650 basechar 0
LayerCount: 3
Fore
SplineSet
351.043945312 336 m 0
 355.606445312 336 358.725585938 335.216796875 361.704101562 336.706054688 c 1
 408.87890625 358.328125 448 401.106445312 448 484 c 0
 448 580.798828125 358.973632812 639 266 639 c 0
 249.591796875 639 230.19921875 637.9453125 214.928710938 637.049804688 c 1
 212.309570312 631.814453125 210 611.076171875 210 586 c 0
 210 345 l 0
 210 338.791015625 209.252929688 338 223.03515625 338 c 1
 266.069335938 336.999023438 316.944335938 337.002929688 351.043945312 336 c 0
219.830078125 30 m 1
 279 30 l 0
 291.189453125 30 293 26.33203125 293 14 c 0
 293 -1.0947265625 290.745117188 -6 279 -6 c 0
 255.827148438 -6 200.862304688 -3 171 -3 c 0
 141.10546875 -3 82.232421875 -6 73 -6 c 0
 58.794921875 -6 56 -2.42578125 56 15 c 0
 56 28.7109375 61.078125 30 77 30 c 0
 120.364257812 30 l 1
 123.041992188 40.2705078125 124 93.361328125 124 156 c 0
 124 289 l 0
 124 428.002929688 122.177734375 612.83984375 114.014648438 630.961914062 c 1
 60.0546875 629 l 1
 47.5908203125 629 37 631.921875 37 649 c 0
 37 666.2421875 47.1669921875 667 60 667 c 0
 76.1201171875 667 143.072265625 665 173 665 c 0
 202.795898438 665 294.758789062 671 318 671 c 0
 418.227539062 671 539 640.591796875 539 498 c 0
 539 403.826171875 445.255859375 351.275390625 403.256835938 332.276367188 c 0
 398.859375 330.24609375 392.604492188 327.858398438 391.962890625 327.625976562 c 1
 395.239257812 326.91015625 398.436523438 326.138671875 402.845703125 324.87890625 c 1
 466.462890625 305.692382812 565.940429688 257.674804688 571.998046875 92.10546875 c 0
 574.056640625 33.439453125 575.848632812 30 583 30 c 0
 629 30 l 0
 639.689453125 30 644 26.2470703125 644 5 c 0
 644 -2.955078125 635.852539062 -6 624 -6 c 0
 589.852539062 -6 490.955078125 -3 490.955078125 -3 c 1
 483.489257812 -3 480 -1.060546875 480 8 c 0
 480 66 l 0
 480 186.240234375 470.245117188 306.049804688 309.97265625 309 c 1
 288.967773438 309 245.926757812 310 218 310 c 0
 209.884765625 310 210 307.4375 210 302 c 0
 210 243.897460938 214.94921875 50.6982421875 219.830078125 30 c 1
EndSplineSet
AlternateSubs2: "'aalt' Access All Alternates lookup 0 subtable" R.c2
AlternateSubs2: "'aalt' Access All Alternates in Latin lookup 0 subtable" R.c2
Position2: "'cpsp' Capital Spacing in Latin lookup 2 subtable" dx=4 dy=0 dh=8 dv=0
Substitution2: "'c2sc' Capitals to Small Capitals in Latin lookup 12 subtable" R.c2
EndChar

StartChar: S
Encoding: 83 83 44
Width: 528
VWidth: 0
Flags: HW
AnchorPoint: "cedilla" 278 -100 basechar 0
AnchorPoint: "top" 269 780 basechar 0
AnchorPoint: "l;bl" 0 10 basechar 0
AnchorPoint: "l;x" 0 380 basechar 0
AnchorPoint: "l;hi" 0 650 basechar 0
AnchorPoint: "l;o" 0 200 basechar 0
AnchorPoint: "r;bl" 528 10 basechar 0
AnchorPoint: "r;x" 518 380 basechar 0
AnchorPoint: "r;hi" 518 650 basechar 0
AnchorPoint: "r;o" 528 200 basechar 0
LayerCount: 3
Fore
SplineSet
425 648.135742188 m 1
 425 659.715820312 426.8046875 665 443 665 c 0
 458.348632812 665 465 661.802734375 465 648 c 0
 465 636.734375 460 541.912109375 460 491 c 0
 460 477.95703125 455.278320312 472 441 472 c 0
 422.494140625 472 419 476.545898438 419 487 c 0
 419 491.28515625 422 542.198242188 422 551 c 0
 422 572.977539062 343.958007812 646 271 646 c 0
 196.532226562 646 141 592.303710938 141 520 c 0
 141 338.374023438 496 414.58984375 496 178 c 0
 496 51.7822265625 380.997070312 -18 269 -18 c 0
 158.8984375 -18 69.455078125 16.298828125 68.0078125 30.767578125 c 1
 66.0009765625 66.9033203125 58 160.54296875 58 175 c 0
 58 183.501953125 60.8876953125 192 73 192 c 0
 78 192 l 0
 91.3798828125 192 95.9208984375 186.072265625 96.9921875 173.22265625 c 1
 102.993164062 81.19921875 l 0
 104.716796875 55.34765625 219.309570312 21 278 21 c 0
 347.64453125 21 408 71.955078125 408 139 c 0
 408 313.611328125 52 252.49609375 52 488 c 0
 52 602.115234375 159.798828125 680 269 680 c 0
 305.27734375 680 349.140625 675.8515625 405.684570312 637.482421875 c 0
 405.782226562 637.416015625 l 1
 405.874023438 637.342773438 l 0
 410.81640625 633.388671875 416.450195312 630 420 630 c 0
 421.994140625 630 423.0625 629.684570312 424.016601562 637.322265625 c 1
 425 648.135742188 l 1
EndSplineSet
AlternateSubs2: "'aalt' Access All Alternates lookup 0 subtable" S.c2
AlternateSubs2: "'aalt' Access All Alternates in Latin lookup 0 subtable" S.c2
Position2: "'cpsp' Capital Spacing in Latin lookup 2 subtable" dx=4 dy=0 dh=8 dv=0
Substitution2: "'c2sc' Capitals to Small Capitals in Latin lookup 12 subtable" S.c2
EndChar

StartChar: T
Encoding: 84 84 45
Width: 690
VWidth: 0
Flags: HW
AnchorPoint: "cedilla" 350 -100 basechar 0
AnchorPoint: "l;x" 60 380 basechar 0
AnchorPoint: "l;hi" 0 650 basechar 0
AnchorPoint: "l;o" 100 200 basechar 0
AnchorPoint: "r;x" 620 380 basechar 0
AnchorPoint: "r;hi" 690 650 basechar 0
AnchorPoint: "r;o" 590 200 basechar 0
LayerCount: 3
Fore
SplineSet
669 545 m 0
 669 535.208984375 664.282226562 532 650 532 c 0
 636.775390625 532 632 537.80078125 632 549 c 0
 632 554.03125 634.743164062 616.1015625 634.986328125 626.021484375 c 1
 626.543945312 629.970703125 575.909179688 632 525 632 c 2
 409.6171875 632 l 1
 402.967773438 621.801757812 402.931640625 530.094726562 402 476.973632812 c 0
 402 473.889648438 396 216.953125 396 92 c 0
 396 59.8779296875 396.244140625 35.5791015625 397.0546875 30 c 1
 469 30 l 2
 481.189453125 30 483 26.33203125 483 14 c 0
 483 -1.0947265625 480.745117188 -6 469 -6 c 0
 445.841796875 -6 378.884765625 -3 349 -3 c 0
 319.123046875 -3 251.150390625 -6 228 -6 c 0
 213.794921875 -6 211 -2.42578125 211 15 c 0
 211 28.7109375 216.078125 30 232 30 c 2
 292.362304688 30 l 1
 301.138671875 62.294921875 305 441.03515625 305 545 c 0
 305 588.80859375 303.299804688 626.196289062 300.237304688 632 c 1
 157 632 l 2
 102.958984375 632 63.6298828125 628.153320312 62.9853515625 621.701171875 c 2
 55.98828125 551.735351562 l 2
 54.9619140625 538.391601562 50.8701171875 532 40 532 c 0
 31.158203125 532 17 531.466796875 17 544 c 0
 17 547.045898438 30.0068359375 622.203125 34.0087890625 672.23046875 c 0
 35.0986328125 685.849609375 37.259765625 689 53 689 c 0
 60.0087890625 689 69 689.217773438 69 680 c 2
 69 670.030273438 l 1
 77.669921875 666.383789062 126.868164062 666 174 666 c 2
 531 666 l 2
 591.22265625 666 636.467773438 668.83203125 637.014648438 674.298828125 c 0
 638.1484375 685.638671875 644.086914062 689 653 689 c 0
 667.020507812 689 673 686.95703125 673 675 c 0
 673 655.646484375 669 622.942382812 669 545 c 0
EndSplineSet
AlternateSubs2: "'aalt' Access All Alternates lookup 0 subtable" T.c2
AlternateSubs2: "'aalt' Access All Alternates in Latin lookup 0 subtable" T.c2
Position2: "'cpsp' Capital Spacing in Latin lookup 2 subtable" dx=4 dy=0 dh=8 dv=0
Substitution2: "'c2sc' Capitals to Small Capitals in Latin lookup 12 subtable" T.c2
EndChar

StartChar: U
Encoding: 85 85 46
Width: 755
VWidth: 0
Flags: HW
AnchorPoint: "top" 384 780 basechar 0
AnchorPoint: "l;x" 0 380 basechar 0
AnchorPoint: "l;hi" 0 650 basechar 0
AnchorPoint: "l;o" 0 200 basechar 0
AnchorPoint: "r;bl" 725 10 basechar 0
AnchorPoint: "r;x" 755 380 basechar 0
AnchorPoint: "r;hi" 755 650 basechar 0
AnchorPoint: "r;o" 755 200 basechar 0
AnchorPoint: "l;bl" 20 10 basechar 0
LayerCount: 3
Fore
SplineSet
632 -10 m 0
 607.881835938 -10 589.20703125 63 570 63 c 0
 563.615234375 63 543.364257812 53.326171875 525.475585938 43.3876953125 c 1
 478.0859375 16.1640625 394.743164062 -14 318 -14 c 0
 113.853515625 -14 96 104.6796875 96 227 c 0
 96 260.01953125 97 496.01171875 97 575 c 0
 97 605.877929688 96.2021484375 627.169921875 94.3203125 631 c 1
 58 631 l 0
 45.9677734375 631 37 632.004882812 37 649 c 0
 37 665.841796875 44.91015625 667 58 667 c 0
 74.2314453125 667 120.138671875 664 150 664 c 0
 179.864257812 664 240.844726562 667 264 667 c 0
 278.205078125 667 281 663.42578125 281 646 c 0
 281 632.2890625 275.921875 631 260 631 c 0
 196.68359375 631 l 1
 188.758789062 601.306640625 184 269.678710938 184 228 c 0
 184 102.370117188 241.390625 37 382 37 c 0
 466.154296875 37 524.537109375 71.6328125 552.313476562 90.48046875 c 0
 576.08984375 106.649414062 576 101.291015625 576 247 c 0
 576 552 l 0
 576 593.454101562 574.34375 626.017578125 571.346679688 631 c 1
 523 631 l 0
 511.220703125 631 500 631.625976562 500 649 c 0
 500 666.2421875 510.166992188 667 523 667 c 0
 539.208007812 667 593.125976562 664 623 664 c 0
 652.849609375 664 690.71875 667 701 667 c 0
 715.205078125 667 718 663.42578125 718 646 c 0
 718 632.2890625 712.921875 631 697 631 c 0
 673.8671875 631 l 1
 665.873046875 615.3515625 666.759765625 462.639648438 662.999023438 316.934570312 c 0
 660 179.950195312 656 45.8505859375 656 25 c 0
 656 17.6552734375 655.369140625 -10 632 -10 c 0
EndSplineSet
AlternateSubs2: "'aalt' Access All Alternates lookup 0 subtable" U.c2
AlternateSubs2: "'aalt' Access All Alternates in Latin lookup 0 subtable" U.c2
Position2: "'cpsp' Capital Spacing in Latin lookup 2 subtable" dx=4 dy=0 dh=8 dv=0
Substitution2: "'c2sc' Capitals to Small Capitals in Latin lookup 12 subtable" U.c2
EndChar

StartChar: V
Encoding: 86 86 47
Width: 685
VWidth: 0
Flags: HW
AnchorPoint: "l;x" 30 380 basechar 0
AnchorPoint: "l;hi" 0 650 basechar 0
AnchorPoint: "l;o" 70 200 basechar 0
AnchorPoint: "r;x" 635 380 basechar 0
AnchorPoint: "r;hi" 685 650 basechar 0
AnchorPoint: "r;o" 595 200 basechar 0
LayerCount: 3
Fore
SplineSet
322 -28 m 0
 306.930664062 -28 300.084960938 29.92578125 265.3046875 108.682617188 c 1
 262.249023438 114.793945312 74.498046875 602.34375 57.6171875 631 c 1
 28 631 l 0
 15.9677734375 631 7 632.004882812 7 649 c 0
 7 665.841796875 14.91015625 667 28 667 c 0
 44.2314453125 667 90.138671875 664 120 664 c 0
 149.885742188 664 226.862304688 667 250 667 c 0
 264.205078125 667 267 663.42578125 267 646 c 0
 267 632.2890625 261.921875 631 246 631 c 0
 176.231445312 631 l 1
 176.059570312 630.314453125 176 629.834960938 176 629 c 0
 176 618.798828125 181.908203125 594.7890625 187.82421875 579.012695312 c 1
 224.828125 471.000976562 305.821289062 250.022460938 346.793945312 143.09375 c 1
 356.172851562 119.645507812 363.682617188 102.715820312 366.366210938 98.154296875 c 1
 370.698242188 104.065429688 377.708984375 118.692382812 386.202148438 141.08203125 c 0
 438.638671875 276.67578125 558 568.750976562 558 618 c 0
 558 628.422851562 557.158203125 631 552 631 c 0
 481 631 l 0
 468.967773438 631 460 632.004882812 460 649 c 0
 460 665.0859375 464.459960938 667 478 667 c 0
 494.194335938 667 553.12109375 664 583 664 c 0
 612.849609375 664 650.71875 667 661 667 c 0
 675.205078125 667 678 663.42578125 678 646 c 0
 678 632.2890625 672.921875 631 657 631 c 0
 630.82421875 631 631.66015625 627.598632812 623.750976562 609.803710938 c 1
 392.752929688 66.80859375 l 1
 381.58984375 41.4384765625 376.13671875 39.8125 365.458007812 24.279296875 c 0
 345.372070312 -4.4140625 340.833984375 -28 322 -28 c 0
EndSplineSet
AlternateSubs2: "'aalt' Access All Alternates lookup 0 subtable" V.c2
AlternateSubs2: "'aalt' Access All Alternates in Latin lookup 0 subtable" V.c2
Position2: "'cpsp' Capital Spacing in Latin lookup 2 subtable" dx=4 dy=0 dh=8 dv=0
Substitution2: "'c2sc' Capitals to Small Capitals in Latin lookup 12 subtable" V.c2
EndChar

StartChar: W
Encoding: 87 87 48
Width: 1008
VWidth: 0
Flags: HW
AnchorPoint: "top" 502 780 basechar 0
AnchorPoint: "l;x" 20 380 basechar 0
AnchorPoint: "l;hi" 0 650 basechar 0
AnchorPoint: "l;o" 60 200 basechar 0
AnchorPoint: "r;x" 958 380 basechar 0
AnchorPoint: "r;hi" 1008 650 basechar 0
AnchorPoint: "r;o" 918 200 basechar 0
LayerCount: 3
Fore
SplineSet
655 -28 m 0
 632.918945312 -28 625.48828125 33.048828125 600.154296875 109.051757812 c 0
 599.04296875 112.384765625 550.126953125 292.135742188 508.122070312 439.153320312 c 0
 504.579101562 451.200195312 502.122070312 459.080078125 500.943359375 461.3125 c 1
 499.06640625 458.513671875 496.157226562 450.54296875 491.802734375 438.9296875 c 0
 349.793945312 66.908203125 l 1
 339.6015625 41.4267578125 333.060546875 39.703125 322.458007812 24.279296875 c 0
 302.247070312 -4.5927734375 294.936523438 -28 279 -28 c 0
 256.918945312 -28 249.48828125 33.048828125 224.154296875 109.051757812 c 0
 222.237304688 114.802734375 77.8466796875 601.928710938 63.4775390625 631 c 1
 30 631 l 0
 18.220703125 631 7 631.625976562 7 649 c 0
 7 666.2421875 17.1669921875 667 30 667 c 0
 46.2275390625 667 93.13671875 664 123 664 c 0
 152.854492188 664 203.819335938 667 227 667 c 0
 241.205078125 667 244 663.42578125 244 646 c 0
 244 632.2890625 238.921875 631 223 631 c 0
 173 631 l 0
 170.349609375 631 166.55859375 630.885742188 165.969726562 625.291015625 c 1
 166.860351562 617.537109375 189.939453125 536.642578125 192.877929688 526.84765625 c 0
 235.85546875 380.922851562 307.849609375 162.94140625 313.860351562 142.905273438 c 1
 319.55078125 125.833007812 322.590820312 114.171875 324.208984375 110.249023438 c 1
 327.27734375 115.828125 330.7734375 125.940429688 337.198242188 143.07421875 c 1
 480.198242188 508.07421875 l 1
 483.212890625 516.111328125 485 520.849609375 485 525 c 0
 485 531.643554688 480.1953125 538.8515625 476.100585938 555.228515625 c 1
 464.743164062 595.416015625 453.755859375 625.306640625 450.623046875 631 c 1
 392 631 l 0
 379.829101562 631 372 632.220703125 372 649 c 0
 372 665.612304688 378.768554688 667 392 667 c 0
 408.18359375 667 473.112304688 664 503 664 c 0
 532.868164062 664 599.859375 667 623 667 c 0
 637.205078125 667 640 663.42578125 640 646 c 0
 640 631.975585938 632.861328125 631 620 631 c 0
 556.79296875 631 l 1
 556.234375 629.458007812 556 627.61328125 556 625 c 0
 556 601.849609375 570.956054688 538.544921875 573.903320312 526.756835938 c 1
 611.86328125 386.90234375 677.896484375 163.784179688 683.870117188 142.874023438 c 1
 692.939453125 114.841796875 697.206054688 97.466796875 699.900390625 93.44140625 c 1
 703.40625 98.43359375 708.7109375 114.451171875 719.19921875 141.076171875 c 1
 770.130859375 276.893554688 884 568.702148438 884 618 c 0
 884 628.422851562 883.158203125 631 878 631 c 0
 813 631 l 0
 800.829101562 631 793 632.220703125 793 649 c 0
 793 665.612304688 799.768554688 667 813 667 c 0
 829.19921875 667 886.124023438 664 916 664 c 0
 945.85546875 664 973.619140625 667 984 667 c 0
 998.240234375 667 1001 662.55078125 1001 648 c 0
 1001 634.641601562 996.55859375 631 980 631 c 0
 953.827148438 631 954.651367188 627.579101562 946.760742188 609.825195312 c 1
 725.78515625 66.8857421875 l 0
 715.61328125 41.455078125 709.052734375 39.6904296875 698.458007812 24.279296875 c 0
 678.247070312 -4.5927734375 670.936523438 -28 655 -28 c 0
EndSplineSet
AlternateSubs2: "'aalt' Access All Alternates lookup 0 subtable" W.c2
AlternateSubs2: "'aalt' Access All Alternates in Latin lookup 0 subtable" W.c2
Position2: "'cpsp' Capital Spacing in Latin lookup 2 subtable" dx=4 dy=0 dh=8 dv=0
Substitution2: "'c2sc' Capitals to Small Capitals in Latin lookup 12 subtable" W.c2
EndChar

StartChar: X
Encoding: 88 88 49
Width: 638
VWidth: 0
Flags: HW
AnchorPoint: "l;bl" 0 10 basechar 0
AnchorPoint: "l;x" 60 380 basechar 0
AnchorPoint: "l;hi" 0 650 basechar 0
AnchorPoint: "l;o" 20 200 basechar 0
AnchorPoint: "r;bl" 638 10 basechar 0
AnchorPoint: "r;x" 578 380 basechar 0
AnchorPoint: "r;hi" 638 650 basechar 0
AnchorPoint: "r;o" 618 200 basechar 0
LayerCount: 3
Fore
SplineSet
278 335.091796875 m 1
 263.250976562 360.212890625 106.440429688 616.12890625 91.1513671875 631 c 1
 53 631 l 2
 40.9677734375 631 32 632.004882812 32 649 c 0
 32 665.841796875 39.91015625 667 53 667 c 0
 69.17578125 667 140.1015625 664 170 664 c 0
 199.842773438 664 243.802734375 667 267 667 c 0
 281.205078125 667 284 663.42578125 284 646 c 0
 284 632.2890625 278.921875 631 263 631 c 2
 222 631 l 2
 216.684570312 631 213.358398438 630.548828125 212.905273438 630.38671875 c 0
 213.028320312 629.034179688 214.419921875 625.63671875 216.765625 620.162109375 c 0
 237.619140625 569.518554688 305.63671875 448.432617188 337.592773438 393.508789062 c 1
 337.419921875 393.408203125 338.758789062 392.399414062 342.20703125 386.65234375 c 1
 355.961914062 404.500976562 418.504882812 501.211914062 428.49609375 516.653320312 c 0
 461.5234375 565.692382812 491 614.971679688 491 630 c 2
 490.934570312 631 l 1
 435 631 l 2
 419.078125 631 414 632.2890625 414 646 c 0
 414 663.42578125 416.794921875 667 431 667 c 0
 454.263671875 667 479.201171875 664 509 664 c 0
 538.826171875 664 568.711914062 667 585 667 c 0
 598.381835938 667 604 665.361328125 604 649 c 0
 604 632.458007812 597.319335938 631 585 631 c 2
 560.09765625 631 l 1
 555.458984375 626.163085938 537.418945312 603.904296875 515.46484375 572.2890625 c 0
 456.413085938 487.254882812 383.28515625 395.01953125 363.520507812 365.373046875 c 0
 361.415039062 362.00390625 360.310546875 360.153320312 360.25 360 c 0
 360.583984375 359.150390625 361.625976562 357.658203125 363.541015625 354.594726562 c 0
 394.432617188 305.361328125 560.669921875 45.1572265625 575.892578125 30 c 1
 610 30 l 2
 622.032226562 30 631 28.9951171875 631 12 c 0
 631 -4.841796875 623.08984375 -6 610 -6 c 0
 593.797851562 -6 537.875 -3 508 -3 c 0
 478.133789062 -3 415.150390625 -6 392 -6 c 0
 377.794921875 -6 375 -2.42578125 375 15 c 0
 375 28.7109375 380.078125 30 396 30 c 2
 446 30 l 2
 451.46484375 30 454.796875 30.421875 455.530273438 30.6904296875 c 0
 455.303710938 32.400390625 453.9140625 35.4638671875 451.31640625 40.658203125 c 0
 425.451171875 92.3896484375 344.404296875 226.49609375 306.427734375 290.456054688 c 0
 304.495117188 293.709960938 302.958007812 296.754882812 302.39453125 297.723632812 c 1
 301.131835938 296.241210938 300.23046875 294.9375 298.473632812 292.301757812 c 0
 269.470703125 251.297851562 173.44921875 112.254882812 135.575195312 50.4599609375 c 0
 128.450195312 38.2470703125 124.084960938 31.671875 123.999023438 30.9873046875 c 0
 125.547851562 30.328125 128.349609375 30 134 30 c 2
 188 30 l 2
 203.921875 30 209 28.7109375 209 15 c 0
 209 -2.42578125 206.205078125 -6 192 -6 c 0
 168.7578125 -6 138.813476562 -3 109 -3 c 0
 79.15234375 -3 42.265625 -6 26 -6 c 0
 12.6181640625 -6 7 -4.361328125 7 12 c 0
 7 28.5419921875 13.6806640625 30 26 30 c 2
 62.92578125 30 l 1
 69.33203125 31.9814453125 98.5595703125 76.2060546875 134.515625 128.681640625 c 0
 178.993164062 193.594726562 230.693359375 255.920898438 278.614257812 317.818359375 c 0
 284.081054688 325.108398438 284.147460938 325.870117188 278.50390625 334.3359375 c 2
 278 335.091796875 l 1
EndSplineSet
AlternateSubs2: "'aalt' Access All Alternates lookup 0 subtable" X.c2
AlternateSubs2: "'aalt' Access All Alternates in Latin lookup 0 subtable" X.c2
Position2: "'cpsp' Capital Spacing in Latin lookup 2 subtable" dx=4 dy=0 dh=8 dv=0
Substitution2: "'c2sc' Capitals to Small Capitals in Latin lookup 12 subtable" X.c2
EndChar

StartChar: Y
Encoding: 89 89 50
Width: 597
VWidth: 0
Flags: HW
AnchorPoint: "top" 328 780 basechar 0
AnchorPoint: "l;x" 30 380 basechar 0
AnchorPoint: "l;hi" 0 650 basechar 0
AnchorPoint: "l;o" 30 200 basechar 0
AnchorPoint: "r;x" 547 380 basechar 0
AnchorPoint: "r;hi" 597 650 basechar 0
AnchorPoint: "r;o" 547 200 basechar 0
LayerCount: 3
Fore
SplineSet
359.184570312 30 m 1
 429 30 l 0
 441.189453125 30 443 26.33203125 443 14 c 0
 443 -1.0947265625 440.745117188 -6 429 -6 c 0
 405.841796875 -6 338.884765625 -3 309 -3 c 0
 279.13671875 -3 220.16015625 -6 197 -6 c 0
 182.794921875 -6 180 -2.42578125 180 15 c 0
 180 28.7109375 185.078125 30 201 30 c 0
 252.12890625 30 l 1
 258.577148438 42.759765625 260 146.856445312 260 271 c 0
 260 282.443359375 257.5078125 285.315429688 253.381835938 292.534179688 c 1
 220.541015625 352.421875 71.7255859375 619.432617188 56.12109375 636 c 1
 28 636 l 0
 15.9677734375 636 7 637.004882812 7 654 c 0
 7 670.841796875 14.91015625 672 28 672 c 0
 44.19921875 672 101.124023438 669 131 669 c 0
 160.865234375 669 222.846679688 672 246 672 c 0
 260.205078125 672 263 668.42578125 263 651 c 0
 263 637.2890625 257.921875 636 242 636 c 0
 183 636 l 0
 177.684570312 636 174.358398438 635.548828125 173.905273438 635.38671875 c 1
 174.028320312 634.034179688 175.419921875 630.63671875 177.765625 625.162109375 c 1
 198.618164062 574.521484375 290.62890625 408.447265625 319.673828125 352.360351562 c 1
 323.790039062 344.127929688 326.939453125 338.267578125 328.134765625 337.075195312 c 1
 329.674804688 338.102539062 332.413085938 342.321289062 336.354492188 349.415039062 c 1
 371.271484375 417.252929688 476 612.291992188 476 636 c 0
 421 636 l 0
 405.078125 636 400 637.2890625 400 651 c 0
 400 668.42578125 402.794921875 672 417 672 c 0
 440.263671875 672 465.201171875 669 495 669 c 0
 524.826171875 669 554.711914062 672 571 672 c 0
 584.381835938 672 590 670.361328125 590 654 c 0
 590 637.458007812 583.319335938 636 571 636 c 0
 536.150390625 636 l 1
 522.159179688 618.26171875 398.619140625 393.37890625 353.552734375 322.423828125 c 1
 350.8828125 317.973632812 351 315.919921875 351 313 c 0
 351 198.271484375 352.7578125 45.7685546875 359.184570312 30 c 1
EndSplineSet
AlternateSubs2: "'aalt' Access All Alternates lookup 0 subtable" Y.c2
AlternateSubs2: "'aalt' Access All Alternates in Latin lookup 0 subtable" Y.c2
Position2: "'cpsp' Capital Spacing in Latin lookup 2 subtable" dx=4 dy=0 dh=8 dv=0
Substitution2: "'c2sc' Capitals to Small Capitals in Latin lookup 12 subtable" Y.c2
EndChar

StartChar: Z
Encoding: 90 90 51
Width: 601
VWidth: 0
Flags: HW
AnchorPoint: "top" 314 780 basechar 0
AnchorPoint: "l;bl" 0 10 basechar 0
AnchorPoint: "l;x" 40 380 basechar 0
AnchorPoint: "l;hi" 0 650 basechar 0
AnchorPoint: "l;o" 20 200 basechar 0
AnchorPoint: "r;bl" 601 10 basechar 0
AnchorPoint: "r;x" 591 380 basechar 0
AnchorPoint: "r;hi" 601 650 basechar 0
AnchorPoint: "r;o" 601 200 basechar 0
LayerCount: 3
Fore
SplineSet
100.943359375 618.416992188 m 0
 96.943359375 595.416992188 89.009765625 544.669921875 87.91015625 540.272460938 c 0
 86.2021484375 533.440429688 85.126953125 523 76 523 c 0
 64.912109375 523 49 525.0703125 49 535 c 0
 49 542.971679688 61.9873046875 614.091796875 70 676.192382812 c 0
 70 682.473632812 77.357421875 685 89 685 c 0
 95.5361328125 685 105 683.473632812 105 676 c 0
 105 670 l 0
 105 666.967773438 106.170898438 664 161 664 c 0
 542 664 l 0
 554.5859375 664 562 660.702148438 562 646 c 0
 562 627.880859375 324.573242188 301.45703125 182.567382812 58.4482421875 c 1
 177.30078125 50.0205078125 173 44.0654296875 173 42 c 0
 173 41.955078125 172.852539062 40 181 40 c 0
 518 40 l 0
 532.50390625 40 527.952148438 36.58203125 530.009765625 60.2392578125 c 0
 531.995117188 85.0537109375 532.000976562 108.088867188 533 147.038085938 c 1
 533 156.701171875 546.782226562 158 554 158 c 0
 562.592773438 158 574 156.212890625 574 146 c 0
 574 95.90234375 571 37.8447265625 571 8 c 0
 571 -4.4873046875 555.323242188 -6 546 -6 c 0
 433.967773438 -6 151.965820312 -3 48 -3 c 0
 39.1318359375 -3 37 1.08203125 37 15 c 0
 37 30.017578125 271.436523438 373.560546875 427.469726562 618.611328125 c 0
 427.53125 618.708007812 l 1
 427.599609375 618.799804688 l 0
 429.890625 621.854492188 431.583007812 624.768554688 431.821289062 625.327148438 c 1
 428.896484375 625.969726562 422.780273438 626 411 626 c 0
 109 626 l 0
 100.041015625 626 102.973632812 627.551757812 100.943359375 618.416992188 c 0
EndSplineSet
Layer: 2
SplineSet
25.025390625 12.7841796875 m 0
 25.025390625 13.224609375 25 14.20703125 25 15 c 0
 25 18.9482421875 25.9453125 22.013671875 26.86328125 25.1884765625 c 0
 29.5419921875 33.7841796875 33.9091796875 41.0849609375 42.1181640625 54.4599609375 c 2
 46.416015625 61.0439453125 l 1
 78.5087890625 112.854492188 147.409179688 215.61328125 224.024414062 330.361328125 c 2
 404.33984375 604 l 1
 119.93359375 604 l 1
 115.37109375 584.368164062 109.684570312 536.564453125 109.63671875 536.166015625 c 2
 109.58984375 535.778320312 l 1
 109.526367188 535.474609375 l 2
 109.229492188 532.697265625 107.52734375 501 81 501 c 0
 72.662109375 501 37 502.055664062 37 535 c 0
 37 547.93359375 49.986328125 615.360351562 58 676.650390625 c 1
 58 700.103515625 89.998046875 697.053710938 93.84375 697 c 0
 96.3701171875 697.25390625 125.627929688 699.216796875 126.967773438 677.307617188 c 1
 136.275390625 676.470703125 150.500976562 676 166 676 c 2
 547 676 l 2
 560.900390625 676 584 671.021484375 584 646 c 0
 584 612.057617188 348.5234375 299.255859375 207.8359375 62 c 1
 518.05078125 62 l 1
 518.08203125 62.255859375 l 2
 519.939453125 85.390625 520.012695312 109.022460938 521 147.385742188 c 0
 521 178.728515625 553.572265625 180 559 180 c 0
 568.525390625 180 596 175.938476562 596 146 c 0
 596 95.3544921875 593 36.9560546875 593 8 c 0
 593 -21.544921875 552.954101562 -18 551 -18 c 0
 438.78515625 -18 156.7734375 -15 53 -15 c 0
 47.40234375 -15 40.6845703125 -14.3974609375 34.677734375 -10.1630859375 c 2
 34.0029296875 -9.6865234375 l 1
 33.3837890625 -9.1396484375 l 2
 27.142578125 -3.619140625 25 4.0859375 25 11 c 0
 25 11.6044921875 24.990234375 11.966796875 25.025390625 12.7841796875 c 0
EndSplineSet
AlternateSubs2: "'aalt' Access All Alternates lookup 0 subtable" Z.c2
AlternateSubs2: "'aalt' Access All Alternates in Latin lookup 0 subtable" Z.c2
Position2: "'cpsp' Capital Spacing in Latin lookup 2 subtable" dx=4 dy=0 dh=8 dv=0
Substitution2: "'c2sc' Capitals to Small Capitals in Latin lookup 12 subtable" Z.c2
EndChar

StartChar: zero
Encoding: 48 48 52
Width: 500
VWidth: 0
Flags: HW
AnchorPoint: "l;bl" 0 10 basechar 0
AnchorPoint: "l;x" 0 380 basechar 0
AnchorPoint: "l;hi" 0 650 basechar 0
AnchorPoint: "l;o" 0 200 basechar 0
AnchorPoint: "l;lo" 0 -260 basechar 0
AnchorPoint: "r;bl" 500 10 basechar 0
AnchorPoint: "r;x" 500 380 basechar 0
AnchorPoint: "r;hi" 500 650 basechar 0
AnchorPoint: "r;o" 500 200 basechar 0
AnchorPoint: "r;lo" 500 -260 basechar 0
LayerCount: 3
Fore
SplineSet
55 189 m 0
 55 301.692382812 142.446289062 383 251 383 c 0
 374.745117188 383 445 293.399414062 445 188 c 0
 445 73.2900390625 356.518554688 -8 245 -8 c 0
 139.204101562 -8 55 83.45703125 55 189 c 0
402 202 m 0
 402 280.896484375 327.803710938 337 247 337 c 0
 165.568359375 337 94 270.20703125 94 189 c 0
 94 101.830078125 162.376953125 46 244 46 c 0
 354.263671875 46 402 117.275390625 402 202 c 0
EndSplineSet
AlternateSubs2: "'aalt' Access All Alternates lookup 0 subtable" zero.p zero.u zero.sub zero.sup zero.denom zero.numer
AlternateSubs2: "'aalt' Access All Alternates in Latin lookup 0 subtable" zero.p zero.u zero.sub zero.sup zero.denom zero.numer
Substitution2: "'pnum' Proportional Numbers in Latin lookup 10 subtable" zero.p
Substitution2: "lining_figures subtable" zero.u
Substitution2: "'subs' Subscript in Latin lookup 8 subtable" zero.sub
Substitution2: "'sups' Superscript in Latin lookup 7 subtable" zero.sup
Substitution2: "denominators subtable" zero.denom
Substitution2: "numerators subtable" zero.numer
EndChar

StartChar: one
Encoding: 49 49 53
Width: 500
VWidth: 0
Flags: HW
AnchorPoint: "l;bl" 0 10 basechar 0
AnchorPoint: "l;x" 0 380 basechar 0
AnchorPoint: "l;hi" 0 650 basechar 0
AnchorPoint: "l;o" 0 200 basechar 0
AnchorPoint: "l;lo" 0 -260 basechar 0
AnchorPoint: "r;bl" 500 10 basechar 0
AnchorPoint: "r;x" 500 380 basechar 0
AnchorPoint: "r;hi" 500 650 basechar 0
AnchorPoint: "r;o" 500 200 basechar 0
AnchorPoint: "r;lo" 500 -260 basechar 0
LayerCount: 3
Fore
SplineSet
294.9921875 350.7734375 m 0
 292 292.922851562 292 195.989257812 292 117 c 0
 292 89.9853515625 291.999023438 64.0791015625 293 37.0556640625 c 1
 293 28.9326171875 293.294921875 28 302 28 c 0
 342 28 l 0
 353.849609375 28 356 21.36328125 356 12 c 0
 356 3.0947265625 355.171875 -5 342 -5 c 0
 322.86328125 -5 275.890625 -3 251 -3 c 0
 226.111328125 -3 180.138671875 -5 161 -5 c 0
 148.236328125 -5 147 0.939453125 147 12 c 0
 147 21.7626953125 149.623046875 28 164 28 c 0
 206 28 l 0
 215.66015625 28 214 27.322265625 214 37.0517578125 c 1
 215.001953125 66.103515625 215 94.96484375 215 125 c 0
 215 214 l 0
 215 259.999023438 214.999023438 306.959960938 213.002929688 350.864257812 c 0
 213 350.931640625 l 1
 213 351 l 2
 213 359.880859375 214.23828125 360 206 360 c 0
 164 360 l 0
 152.150390625 360 150 366.63671875 150 376 c 0
 150 384.905273438 150.828125 393 164 393 c 0
 183.13671875 393 230.109375 391 255 391 c 0
 279.888671875 391 325.861328125 393 345 393 c 0
 357.763671875 393 359 387.060546875 359 376 c 0
 359 366.237304688 356.376953125 360 342 360 c 0
 303 360 l 0
 293.467773438 360 296.01171875 360.965820312 294.9921875 350.7734375 c 0
EndSplineSet
AlternateSubs2: "'aalt' Access All Alternates lookup 0 subtable" one.p one.u one.sub one.sup one.denom one.numer
AlternateSubs2: "'aalt' Access All Alternates in Latin lookup 0 subtable" one.p one.u one.sub one.sup one.denom one.numer
Substitution2: "'pnum' Proportional Numbers in Latin lookup 10 subtable" one.p
Substitution2: "lining_figures subtable" one.u
Substitution2: "'subs' Subscript in Latin lookup 8 subtable" one.sub
Substitution2: "'sups' Superscript in Latin lookup 7 subtable" one.sup
Substitution2: "denominators subtable" one.denom
Substitution2: "numerators subtable" one.numer
EndChar

StartChar: two
Encoding: 50 50 54
Width: 500
VWidth: 0
Flags: HW
AnchorPoint: "l;bl" 0 10 basechar 0
AnchorPoint: "l;x" 0 380 basechar 0
AnchorPoint: "l;hi" 0 650 basechar 0
AnchorPoint: "l;o" 0 200 basechar 0
AnchorPoint: "l;lo" 0 -260 basechar 0
AnchorPoint: "r;bl" 500 10 basechar 0
AnchorPoint: "r;x" 500 380 basechar 0
AnchorPoint: "r;hi" 500 650 basechar 0
AnchorPoint: "r;o" 500 200 basechar 0
AnchorPoint: "r;lo" 500 -260 basechar 0
LayerCount: 3
Fore
SplineSet
74.03125 30.2666015625 m 0
 127.229492188 80.396484375 287 150.359375 287 270 c 0
 287 328.65234375 253.287109375 361 206 361 c 0
 138.768554688 361 86.1982421875 300 77 300 c 0
 68.4462890625 300 57 314.392578125 57 323 c 0
 57 341.813476562 154.61328125 409 230 409 c 0
 305.600585938 409 361 352.633789062 361 280 c 0
 361 192.55078125 238.33984375 109.30859375 178.502929688 74.4033203125 c 0
 167.682617188 68.1396484375 159.709960938 63.521484375 155.75390625 61 c 1
 387.551757812 61 l 1
 393.75 66.345703125 418.189453125 127 425 127 c 0
 429.322265625 127 446 124.374023438 446 117 c 0
 446 104.748046875 427.955078125 37.427734375 418.887695312 5.1875 c 0
 418.844726562 5.0341796875 l 1
 418.78515625 4.8857421875 l 0
 416.352539062 -1.1962890625 412.383789062 -3 405 -3 c 0
 79 -3 l 0
 66.95703125 -3 61 3.1298828125 61 11 c 0
 61 18.998046875 69.0068359375 26.2470703125 74.03125 30.2666015625 c 0
EndSplineSet
AlternateSubs2: "'aalt' Access All Alternates lookup 0 subtable" two.p two.u two.sub two.sup two.denom two.numer
AlternateSubs2: "'aalt' Access All Alternates in Latin lookup 0 subtable" two.p two.u two.sub two.sup two.denom two.numer
Substitution2: "'pnum' Proportional Numbers in Latin lookup 10 subtable" two.p
Substitution2: "lining_figures subtable" two.u
Substitution2: "'subs' Subscript in Latin lookup 8 subtable" two.sub
Substitution2: "'sups' Superscript in Latin lookup 7 subtable" two.sup
Substitution2: "denominators subtable" two.denom
Substitution2: "numerators subtable" two.numer
EndChar

StartChar: three
Encoding: 51 51 55
Width: 500
VWidth: 0
Flags: HW
AnchorPoint: "l;bl" 0 10 basechar 0
AnchorPoint: "l;x" 0 380 basechar 0
AnchorPoint: "l;hi" 0 650 basechar 0
AnchorPoint: "l;o" 0 200 basechar 0
AnchorPoint: "l;lo" 0 -260 basechar 0
AnchorPoint: "r;bl" 500 10 basechar 0
AnchorPoint: "r;x" 500 380 basechar 0
AnchorPoint: "r;hi" 500 650 basechar 0
AnchorPoint: "r;o" 500 200 basechar 0
AnchorPoint: "r;lo" 500 -260 basechar 0
LayerCount: 3
Fore
SplineSet
425 -27 m 0
 425 -138.990234375 323.345703125 -216 223 -216 c 0
 175.088867188 -216 77 -196.389648438 77 -164 c 0
 77 -150.721679688 97.8779296875 -141 118 -141 c 0
 135.836914062 -141 145.685546875 -147.512695312 160.543945312 -156.427734375 c 0
 181.229492188 -168.838867188 192.93359375 -185 233 -185 c 0
 293.853515625 -185 356 -115.6640625 356 -39 c 0
 356 53.27734375 310.041015625 89 208 89 c 0
 187.159179688 89 160.495117188 86 155 86 c 0
 141.359375 86 140.731445312 98.3203125 138.154296875 106.051757812 c 0
 137.159179688 109.037109375 136 112.3359375 136 116 c 0
 136 129.669921875 149.758789062 133.059570312 159.161132812 135.879882812 c 1
 258.022460938 163.841796875 308 200.02734375 308 272 c 0
 308 321.82421875 274.91796875 366 226 366 c 0
 151.271484375 366 124.888671875 316 114 316 c 0
 104.336914062 316 93 325.948242188 93 336 c 0
 93 351.599609375 165.469726562 410 238 410 c 0
 321.346679688 410 375 359.73828125 375 284 c 0
 375 214.34375 328.630859375 179.438476562 282.168945312 159.237304688 c 0
 263.252929688 151.234375 245.80078125 143.34375 238.979492188 139.645507812 c 1
 245.803710938 138.689453125 257.421875 138.263671875 275.23046875 136.991210938 c 1
 361.3359375 129.900390625 425 86.59375 425 -27 c 0
EndSplineSet
AlternateSubs2: "'aalt' Access All Alternates lookup 0 subtable" three.p three.u three.sub three.sup three.denom three.numer
AlternateSubs2: "'aalt' Access All Alternates in Latin lookup 0 subtable" three.p three.u three.sub three.sup three.denom three.numer
Substitution2: "'pnum' Proportional Numbers in Latin lookup 10 subtable" three.p
Substitution2: "lining_figures subtable" three.u
Substitution2: "'subs' Subscript in Latin lookup 8 subtable" three.sub
Substitution2: "'sups' Superscript in Latin lookup 7 subtable" three.sup
Substitution2: "denominators subtable" three.denom
Substitution2: "numerators subtable" three.numer
EndChar

StartChar: four
Encoding: 52 52 56
Width: 500
VWidth: 0
Flags: HW
AnchorPoint: "l;bl" 0 10 basechar 0
AnchorPoint: "l;x" 0 380 basechar 0
AnchorPoint: "l;hi" 0 650 basechar 0
AnchorPoint: "l;o" 0 200 basechar 0
AnchorPoint: "l;lo" 0 -260 basechar 0
AnchorPoint: "r;bl" 500 10 basechar 0
AnchorPoint: "r;x" 500 380 basechar 0
AnchorPoint: "r;hi" 500 650 basechar 0
AnchorPoint: "r;o" 500 200 basechar 0
AnchorPoint: "r;lo" 500 -260 basechar 0
LayerCount: 3
Fore
SplineSet
369 368 m 2
 369 72 l 0
 369 54.5859375 367.891601562 57 381 57 c 0
 439 57 l 0
 446.1171875 57 449 54.5009765625 449 44 c 0
 449 10 l 0
 449 -0.9443359375 446.392578125 -3 434 -3 c 0
 382 -3 l 0
 368.534179688 -3 370.065429688 -0.814453125 370.995117188 -13.8193359375 c 1
 374.001953125 -74.9716796875 380 -193.665039062 380 -199 c 0
 380 -207.923828125 374.56640625 -211.96484375 361.248046875 -212.990234375 c 1
 316.1328125 -217 l 1
 316 -217 l 0
 308.336914062 -217 302 -211.349609375 302 -201 c 0
 302 -15 l 0
 302 -0.9736328125 303.493164062 -3 289 -3 c 0
 58 -3 l 0
 51.0048828125 -3 37 -2.69921875 37 8 c 0
 37 36.3173828125 97.76171875 111.998046875 121.70703125 139.935546875 c 1
 254.724609375 299.956054688 l 1
 262.41015625 308.6015625 336.674804688 397 353 397 c 0
 363.744140625 397 369 387.030273438 369 368 c 2
286.31640625 293.092773438 m 2
 112.322265625 83.1005859375 l 0
 103.021484375 71.7333984375 96 63.8623046875 96 60 c 0
 96 59.9375 97.6669921875 57 118 57 c 0
 286 57 l 0
 303.134765625 57 302 55.70703125 302 74 c 0
 302 290 l 0
 302 301.444335938 301.82421875 308.826171875 301.403320312 311.798828125 c 1
 298.181640625 308.321289062 292.830078125 301.0546875 286.31640625 293.092773438 c 2
EndSplineSet
AlternateSubs2: "'aalt' Access All Alternates lookup 0 subtable" four.p four.u four.sub four.sup four.denom four.numer
AlternateSubs2: "'aalt' Access All Alternates in Latin lookup 0 subtable" four.p four.u four.sub four.sup four.denom four.numer
Substitution2: "'pnum' Proportional Numbers in Latin lookup 10 subtable" four.p
Substitution2: "lining_figures subtable" four.u
Substitution2: "'subs' Subscript in Latin lookup 8 subtable" four.sub
Substitution2: "'sups' Superscript in Latin lookup 7 subtable" four.sup
Substitution2: "denominators subtable" four.denom
Substitution2: "numerators subtable" four.numer
EndChar

StartChar: five
Encoding: 53 53 57
Width: 500
VWidth: 0
Flags: HW
AnchorPoint: "l;bl" 0 10 basechar 0
AnchorPoint: "l;x" 0 380 basechar 0
AnchorPoint: "l;hi" 0 650 basechar 0
AnchorPoint: "l;o" 0 200 basechar 0
AnchorPoint: "l;lo" 0 -260 basechar 0
AnchorPoint: "r;bl" 500 10 basechar 0
AnchorPoint: "r;x" 500 380 basechar 0
AnchorPoint: "r;hi" 500 650 basechar 0
AnchorPoint: "r;o" 500 200 basechar 0
AnchorPoint: "r;lo" 500 -260 basechar 0
LayerCount: 3
Fore
SplineSet
182.924804688 326 m 0
 172.583007812 326 166.359375 324.786132812 164.935546875 318.379882812 c 1
 157.986328125 283.6328125 145 217.954101562 145 212 c 0
 145 209.637695312 145.401367188 208.744140625 145.401367188 208.744140625 c 1
 145.939453125 208.5078125 148.848632812 208.541992188 153.327148438 207.982421875 c 1
 280.499023438 195.965820312 383 153.318359375 383 19 c 0
 383 -156.900390625 149.697265625 -224 113 -224 c 0
 103.665039062 -224 102 -213.3984375 102 -203 c 0
 102 -194.762695312 104.348632812 -187.400390625 112.463867188 -186.047851562 c 1
 178.095703125 -173.120117188 306 -117.526367188 306 3 c 0
 306 104.484375 217.578125 143 115 143 c 0
 104.325195312 143 97 147.03515625 97 158 c 0
 97 173.249023438 129.025390625 305.416015625 144.045898438 385.5234375 c 0
 145.571289062 394.67578125 156.9609375 394 162 394 c 0
 170.365234375 394 306.115234375 385 369 385 c 0
 380.018554688 385 389.438476562 386.174804688 390.21484375 388.114257812 c 1
 390.21484375 388.114257812 398.39453125 414 403 414 c 0
 407 414 l 0
 412.154296875 414 423 413.610351562 423 405 c 0
 423 404.896484375 l 1
 422.993164062 404.793945312 l 0
 420.990234375 375.755859375 419.998046875 362.891601562 418.99609375 335.844726562 c 1
 417.76171875 317.326171875 393.194335938 316 379 316 c 0
 300.814453125 316 262.779296875 322.006835938 182.924804688 326 c 0
EndSplineSet
Layer: 2
SplineSet
187.5 304 m 0
 187.1484375 304 184.594726562 303.930664062 184.588867188 303.930664062 c 1
 178.240234375 272.185546875 172.268554688 241.436523438 169.090820312 223.979492188 c 1
 295.176757812 210.256835938 405 162.732421875 405 19 c 0
 405 -169.872070312 158.276367188 -236 118 -236 c 0
 92.06640625 -236 90 -210.276367188 90 -203 c 0
 90 -192.833007812 91.7294921875 -169.15234375 114.150390625 -164.44140625 c 1
 178.522460938 -152.096679688 294 -100.06640625 294 3 c 0
 294 90.30859375 220.200195312 126 120 126 c 0
 104.706054688 126 85 134.762695312 85 158 c 0
 85 180.0390625 117.241210938 307.546875 132.334960938 387.725585938 c 0
 132.455078125 388.360351562 l 1
 132.627929688 388.982421875 l 0
 138.623046875 410.466796875 166.334960938 406.1328125 167.365234375 405.997070312 c 1
 179.638671875 405.836914062 292.53515625 397.982421875 371.125 397 c 1
 373.615234375 397 377.065429688 396.849609375 377.837890625 396.8125 c 1
 380.018554688 401.169921875 389.033203125 427 414 427 c 0
 429.202148438 427 445 417.301757812 445 400 c 0
 445 369.911132812 441.920898438 360.291992188 440.978515625 334.720703125 c 1
 438.73046875 293.772460938 394.779296875 294 384 294 c 0
 304.770507812 294 266.5234375 300.048828125 187.5 304 c 0
EndSplineSet
AlternateSubs2: "'aalt' Access All Alternates lookup 0 subtable" five.p five.u five.sub five.sup five.denom five.numer
AlternateSubs2: "'aalt' Access All Alternates in Latin lookup 0 subtable" five.p five.u five.sub five.sup five.denom five.numer
Substitution2: "'pnum' Proportional Numbers in Latin lookup 10 subtable" five.p
Substitution2: "lining_figures subtable" five.u
Substitution2: "'subs' Subscript in Latin lookup 8 subtable" five.sub
Substitution2: "'sups' Superscript in Latin lookup 7 subtable" five.sup
Substitution2: "denominators subtable" five.denom
Substitution2: "numerators subtable" five.numer
EndChar

StartChar: six
Encoding: 54 54 58
Width: 500
VWidth: 0
Flags: HW
AnchorPoint: "l;bl" 0 10 basechar 0
AnchorPoint: "l;x" 0 380 basechar 0
AnchorPoint: "l;hi" 0 650 basechar 0
AnchorPoint: "l;o" 0 200 basechar 0
AnchorPoint: "l;lo" 0 -260 basechar 0
AnchorPoint: "r;bl" 500 10 basechar 0
AnchorPoint: "r;x" 500 380 basechar 0
AnchorPoint: "r;hi" 500 650 basechar 0
AnchorPoint: "r;o" 500 200 basechar 0
AnchorPoint: "r;lo" 500 -260 basechar 0
LayerCount: 3
Fore
SplineSet
378.045898438 626.186523438 m 0
 238.288085938 568.697265625 168.665039062 431.56640625 146.8125 373.955078125 c 1
 142.7734375 362.848632812 138.217773438 351.548828125 137.9921875 348.043945312 c 1
 141.215820312 347.443359375 152.017578125 351.377929688 161.4765625 352.954101562 c 1
 193.602539062 358.977539062 221.891601562 361 253 361 c 0
 358.264648438 361 444 291.9453125 444 189 c 0
 444 65.2529296875 353.405273438 -8 244 -8 c 0
 128.165039062 -8 45 74.8125 45 231 c 0
 45 507.956054688 338.909179688 658 367 658 c 0
 375.76953125 658 385 644.161132812 385 635 c 0
 385 630.384765625 381.772460938 627.428710938 378.045898438 626.186523438 c 0
126.936523438 297.387695312 m 0
 121.98828125 273.634765625 118 238.786132812 118 201 c 0
 118 120.686523438 160.443359375 29 258 29 c 0
 323.62109375 29 370 99.966796875 370 168 c 0
 370 261.87109375 321.127929688 333 217 333 c 0
 203.341796875 333 169.20703125 329.993164062 151.513671875 327.043945312 c 0
 129.622070312 323.237304688 131.975585938 321.573242188 126.936523438 297.387695312 c 0
EndSplineSet
AlternateSubs2: "'aalt' Access All Alternates lookup 0 subtable" six.p six.u six.sub six.sup six.denom six.numer
AlternateSubs2: "'aalt' Access All Alternates in Latin lookup 0 subtable" six.p six.u six.sub six.sup six.denom six.numer
Substitution2: "'pnum' Proportional Numbers in Latin lookup 10 subtable" six.p
Substitution2: "lining_figures subtable" six.u
Substitution2: "'subs' Subscript in Latin lookup 8 subtable" six.sub
Substitution2: "'sups' Superscript in Latin lookup 7 subtable" six.sup
Substitution2: "denominators subtable" six.denom
Substitution2: "numerators subtable" six.numer
EndChar

StartChar: seven
Encoding: 55 55 59
Width: 500
VWidth: 0
Flags: HW
AnchorPoint: "l;bl" 0 10 basechar 0
AnchorPoint: "l;x" 0 380 basechar 0
AnchorPoint: "l;hi" 0 650 basechar 0
AnchorPoint: "l;o" 0 200 basechar 0
AnchorPoint: "l;lo" 0 -260 basechar 0
AnchorPoint: "r;bl" 500 10 basechar 0
AnchorPoint: "r;x" 500 380 basechar 0
AnchorPoint: "r;hi" 500 650 basechar 0
AnchorPoint: "r;o" 500 200 basechar 0
AnchorPoint: "r;lo" 500 -260 basechar 0
LayerCount: 3
Fore
SplineSet
111.967773438 274.552734375 m 2
 111.190429688 268.33984375 104.0546875 267.036132812 99.0400390625 266.989257812 c 0
 92.22265625 266.926757812 81 269.424804688 81 278 c 0
 81 288.603515625 87.0048828125 335.193359375 93.015625 399.305664062 c 1
 95.1240234375 418.282226562 101.228515625 420 112 420 c 0
 125.260742188 420 127.741210938 408.916992188 127.982421875 398.9296875 c 1
 143.622070312 396.053710938 228.538085938 396 289 396 c 2
 455 396 l 0
 463.592773438 396 475 394.212890625 475 384 c 0
 475 379.673828125 472.5625 376.416015625 470.662109375 372.616210938 c 1
 348.3125 145.821289062 170.350585938 -219 159 -219 c 0
 140.922851562 -219 120 -204.497070312 120 -188 c 0
 120 -181.135742188 343.290039062 202.3046875 408.388671875 315.4765625 c 1
 413.180664062 324.103515625 416.716796875 329.676757812 416.971679688 330.76171875 c 1
 415.057617188 331.553710938 410.692382812 332 402 332 c 0
 203 332 l 0
 174.776367188 332 126.474609375 328.979492188 120.885742188 325.090820312 c 1
 111.967773438 274.552734375 l 2
EndSplineSet
AlternateSubs2: "'aalt' Access All Alternates lookup 0 subtable" seven.p seven.u seven.sub seven.sup seven.denom seven.numer
AlternateSubs2: "'aalt' Access All Alternates in Latin lookup 0 subtable" seven.p seven.u seven.sub seven.sup seven.denom seven.numer
Substitution2: "'pnum' Proportional Numbers in Latin lookup 10 subtable" seven.p
Substitution2: "lining_figures subtable" seven.u
Substitution2: "'subs' Subscript in Latin lookup 8 subtable" seven.sub
Substitution2: "'sups' Superscript in Latin lookup 7 subtable" seven.sup
Substitution2: "denominators subtable" seven.denom
Substitution2: "numerators subtable" seven.numer
EndChar

StartChar: eight
Encoding: 56 56 60
Width: 500
VWidth: 0
Flags: HW
AnchorPoint: "l;bl" 0 10 basechar 0
AnchorPoint: "l;x" 0 380 basechar 0
AnchorPoint: "l;hi" 0 650 basechar 0
AnchorPoint: "l;o" 0 200 basechar 0
AnchorPoint: "l;lo" 0 -260 basechar 0
AnchorPoint: "r;bl" 500 10 basechar 0
AnchorPoint: "r;x" 500 380 basechar 0
AnchorPoint: "r;hi" 500 650 basechar 0
AnchorPoint: "r;o" 500 200 basechar 0
AnchorPoint: "r;lo" 500 -260 basechar 0
LayerCount: 3
Fore
SplineSet
306.548828125 334.569335938 m 0
 339.111328125 314.834960938 433 274.884765625 433 154 c 0
 433 57.1435546875 359.255859375 -9 248 -9 c 0
 151.721679688 -9 68 57.0263671875 68 154 c 0
 68 261.805664062 146.63671875 301.672851562 182.658203125 319.68359375 c 0
 187.939453125 322.32421875 194.348632812 324.545898438 195.09375 324.780273438 c 1
 191.05078125 327.010742188 185.982421875 329.901367188 179.303710938 334.525390625 c 0
 144.1796875 358.610351562 77 413.26171875 77 495 c 0
 77 587.765625 154.466796875 661 250 661 c 0
 338.39453125 661 411 599.81640625 411 508 c 0
 411 410.327148438 340.459960938 368.349609375 306.826171875 343.619140625 c 1
 303.700195312 341.118164062 299.9765625 338.498046875 299.657226562 338.231445312 c 1
 301.09765625 337.415039062 303.627929688 336.321289062 306.548828125 334.569335938 c 0
252 25 m 0
 319.833984375 25 362 87.0732421875 362 153 c 0
 362 236.166015625 303.717773438 269.282226562 244.556640625 301.370117188 c 1
 236.063476562 306.088867188 221.301757812 312.536132812 219.021484375 312.997070312 c 1
 215.571289062 312.205078125 200.005859375 301.047851562 187.74609375 292.559570312 c 1
 165.283203125 275.95703125 127 237.817382812 127 164 c 0
 127 81.2880859375 176.833984375 25 252 25 c 0
289.02734375 359.259765625 m 0
 319.467773438 385.772460938 360 449.37109375 360 500 c 0
 360 586.7578125 312.1796875 633 248 633 c 0
 181.135742188 633 141 574.959960938 141 507 c 0
 141 459.291015625 168.169921875 423.111328125 208.83203125 391.375976562 c 1
 229.672851562 375.497070312 249.678710938 362.529296875 262.23828125 356.732421875 c 1
 271.51171875 352.611328125 275.766601562 350 277 350 c 0
 277.993164062 350 280.696289062 351.970703125 289.02734375 359.259765625 c 0
EndSplineSet
AlternateSubs2: "'aalt' Access All Alternates lookup 0 subtable" eight.p eight.u eight.sub eight.sup eight.denom eight.numer
AlternateSubs2: "'aalt' Access All Alternates in Latin lookup 0 subtable" eight.p eight.u eight.sub eight.sup eight.denom eight.numer
Substitution2: "'pnum' Proportional Numbers in Latin lookup 10 subtable" eight.p
Substitution2: "lining_figures subtable" eight.u
Substitution2: "'subs' Subscript in Latin lookup 8 subtable" eight.sub
Substitution2: "'sups' Superscript in Latin lookup 7 subtable" eight.sup
Substitution2: "denominators subtable" eight.denom
Substitution2: "numerators subtable" eight.numer
EndChar

StartChar: nine
Encoding: 57 57 61
Width: 500
VWidth: 0
Flags: HW
AnchorPoint: "l;bl" 0 10 basechar 0
AnchorPoint: "l;x" 0 380 basechar 0
AnchorPoint: "l;hi" 0 650 basechar 0
AnchorPoint: "l;o" 0 200 basechar 0
AnchorPoint: "l;lo" 0 -260 basechar 0
AnchorPoint: "r;bl" 500 10 basechar 0
AnchorPoint: "r;x" 500 380 basechar 0
AnchorPoint: "r;hi" 500 650 basechar 0
AnchorPoint: "r;o" 500 200 basechar 0
AnchorPoint: "r;lo" 500 -260 basechar 0
LayerCount: 3
Fore
SplineSet
57 204 m 0
 57 327.666992188 143.536132812 401 253 401 c 0
 365.774414062 401 456 318.302734375 456 162 c 0
 456 -134.811523438 91.8037109375 -221 73 -221 c 0
 62.8125 -221 60 -200.15234375 60 -193 c 0
 60 -179.03125 291.97265625 -143.771484375 364.165039062 56.982421875 c 1
 365.2421875 60.21484375 368.677734375 69.6689453125 369.404296875 72.033203125 c 1
 365.545898438 69.7587890625 360.2109375 66.2021484375 354.619140625 62.4736328125 c 1
 328.03125 46.1123046875 281.662109375 29 228 29 c 0
 122.341796875 29 57 101.5625 57 204 c 0
128 214 m 0
 128 139.986328125 173.21875 66 255 66 c 0
 322.380859375 66 363.161132812 89.8291015625 378.38671875 116.47265625 c 1
 382.572265625 124.0078125 384 154.111328125 384 172 c 0
 384 264.80859375 346.12890625 365 256 365 c 0
 169.116210938 365 128 298.092773438 128 214 c 0
EndSplineSet
AlternateSubs2: "'aalt' Access All Alternates lookup 0 subtable" nine.p nine.u nine.sub nine.sup nine.denom nine.numer
AlternateSubs2: "'aalt' Access All Alternates in Latin lookup 0 subtable" nine.p nine.u nine.sub nine.sup nine.denom nine.numer
Substitution2: "'pnum' Proportional Numbers in Latin lookup 10 subtable" nine.p
Substitution2: "lining_figures subtable" nine.u
Substitution2: "'subs' Subscript in Latin lookup 8 subtable" nine.sub
Substitution2: "'sups' Superscript in Latin lookup 7 subtable" nine.sup
Substitution2: "denominators subtable" nine.denom
Substitution2: "numerators subtable" nine.numer
EndChar

StartChar: comma
Encoding: 44 44 63
Width: 203
VWidth: 0
Flags: HW
AnchorPoint: "l;bl" 0 10 basechar 0
AnchorPoint: "l;o" 20 200 basechar 0
AnchorPoint: "r;bl" 203 10 basechar 0
AnchorPoint: "r;o" 203 200 basechar 0
LayerCount: 3
Fore
SplineSet
42 47 m 0
 42 70.9541015625 84.8974609375 91 92 91 c 0
 109.603515625 91 166 52.7041015625 166 25 c 0
 166 -61.255859375 63.212890625 -159 51 -159 c 0
 41.9052734375 -159 37 -146.442382812 37 -139 c 0
 37 -130.087890625 107 -83.7705078125 107 -34 c 0
 107 10.7578125 42 27.380859375 42 47 c 0
EndSplineSet
AlternateSubs2: "'aalt' Access All Alternates lookup 0 subtable" comma.sub comma.sup comma.denom comma.numer
AlternateSubs2: "'aalt' Access All Alternates in Latin lookup 0 subtable" comma.sub comma.sup comma.denom comma.numer
Substitution2: "'subs' Subscript in Latin lookup 8 subtable" comma.sub
Substitution2: "'sups' Superscript in Latin lookup 7 subtable" comma.sup
Substitution2: "denominators subtable" comma.denom
Substitution2: "numerators subtable" comma.numer
EndChar

StartChar: quotedblright
Encoding: 8221 8221 64
Width: 394
VWidth: 0
Flags: HW
AnchorPoint: "r;x" 394 380 basechar 0
AnchorPoint: "r;hi" 394 650 basechar 0
AnchorPoint: "r;o" 354 200 basechar 0
AnchorPoint: "l;x" 0 380 basechar 0
AnchorPoint: "l;hi" 0 650 basechar 0
AnchorPoint: "l;o" 40 200 basechar 0
LayerCount: 3
Fore
SplineSet
78 621 m 0
 78 643.24609375 108.110351562 686 128 686 c 0
 139.669921875 686 182 623.923828125 182 598 c 0
 182 524.681640625 86.2724609375 432 76 432 c 0
 67.6630859375 432 57 444.298828125 57 453 c 0
 57 461.796875 126 511.545898438 126 543 c 0
 126 566.103515625 78 592.107421875 78 621 c 0
263 621 m 0
 263 643.24609375 293.110351562 686 313 686 c 0
 324.669921875 686 367 623.923828125 367 598 c 0
 367 524.681640625 271.272460938 432 261 432 c 0
 252.663085938 432 242 444.298828125 242 453 c 0
 242 461.796875 311 511.545898438 311 543 c 0
 311 566.103515625 263 592.107421875 263 621 c 0
EndSplineSet
EndChar

StartChar: quotedblleft
Encoding: 8220 8220 65
Width: 394
VWidth: 0
Flags: HW
AnchorPoint: "r;o" 354 200 basechar 0
AnchorPoint: "r;hi" 394 650 basechar 0
AnchorPoint: "r;x" 394 380 basechar 0
AnchorPoint: "l;o" 40 200 basechar 0
AnchorPoint: "l;hi" 0 650 basechar 0
AnchorPoint: "l;x" 0 380 basechar 0
LayerCount: 3
Fore
SplineSet
316 497 m 0
 316 474.75390625 285.889648438 432 266 432 c 0
 254.330078125 432 212 494.076171875 212 520 c 0
 212 593.318359375 307.727539062 686 318 686 c 0
 326.336914062 686 337 673.701171875 337 665 c 0
 337 656.203125 268 606.454101562 268 575 c 0
 268 551.896484375 316 525.892578125 316 497 c 0
131 497 m 0
 131 474.75390625 100.889648438 432 81 432 c 0
 69.330078125 432 27 494.076171875 27 520 c 0
 27 593.318359375 122.727539062 686 133 686 c 0
 141.336914062 686 152 673.701171875 152 665 c 0
 152 656.203125 83 606.454101562 83 575 c 0
 83 551.896484375 131 525.892578125 131 497 c 0
EndSplineSet
EndChar

StartChar: quoteright
Encoding: 8217 8217 66
Width: 209
VWidth: 0
Flags: HW
AnchorPoint: "l;o" 40 200 basechar 0
AnchorPoint: "l;hi" 0 650 basechar 0
AnchorPoint: "l;x" 0 380 basechar 0
AnchorPoint: "r;o" 169 200 basechar 0
AnchorPoint: "r;hi" 209 650 basechar 0
AnchorPoint: "r;x" 209 380 basechar 0
LayerCount: 3
Fore
SplineSet
78 621 m 0
 78 643.24609375 108.110351562 686 128 686 c 0
 139.669921875 686 182 623.923828125 182 598 c 0
 182 524.681640625 86.2724609375 432 76 432 c 0
 67.6630859375 432 57 444.298828125 57 453 c 0
 57 461.796875 126 511.545898438 126 543 c 0
 126 566.103515625 78 592.107421875 78 621 c 0
EndSplineSet
EndChar

StartChar: quoteleft
Encoding: 8216 8216 67
Width: 209
VWidth: 0
Flags: HW
AnchorPoint: "l;x" 0 380 basechar 0
AnchorPoint: "l;hi" 0 650 basechar 0
AnchorPoint: "l;o" 40 200 basechar 0
AnchorPoint: "r;x" 209 380 basechar 0
AnchorPoint: "r;hi" 209 650 basechar 0
AnchorPoint: "r;o" 169 200 basechar 0
LayerCount: 3
Fore
SplineSet
131 497 m 0
 131 474.75390625 100.889648438 432 81 432 c 0
 69.330078125 432 27 494.076171875 27 520 c 0
 27 593.318359375 122.727539062 686 133 686 c 0
 141.336914062 686 152 673.701171875 152 665 c 0
 152 656.203125 83 606.454101562 83 575 c 0
 83 551.896484375 131 525.892578125 131 497 c 0
EndSplineSet
EndChar

StartChar: period
Encoding: 46 46 68
Width: 221
VWidth: 0
Flags: HW
AnchorPoint: "l;bl" 0 10 basechar 0
AnchorPoint: "l;o" 20 200 basechar 0
AnchorPoint: "r;bl" 221 10 basechar 0
AnchorPoint: "r;o" 221 200 basechar 0
LayerCount: 3
Fore
SplineSet
57 38 m 0
 57 60.205078125 85.1044921875 100 104 100 c 0
 123.069335938 100 164 77.724609375 164 50 c 0
 164 17.5107421875 131.530273438 -11 119 -11 c 0
 89.43359375 -11 57 20.5283203125 57 38 c 0
EndSplineSet
AlternateSubs2: "'aalt' Access All Alternates lookup 0 subtable" period.sub period.sup period.denom period.numer
AlternateSubs2: "'aalt' Access All Alternates in Latin lookup 0 subtable" period.sub period.sup period.denom period.numer
Substitution2: "'subs' Subscript in Latin lookup 8 subtable" period.sub
Substitution2: "'sups' Superscript in Latin lookup 7 subtable" period.sup
Substitution2: "denominators subtable" period.denom
Substitution2: "numerators subtable" period.numer
EndChar

StartChar: colon
Encoding: 58 58 69
Width: 221
VWidth: 0
Flags: HW
AnchorPoint: "l;bl" 0 10 basechar 0
AnchorPoint: "l;x" 0 380 basechar 0
AnchorPoint: "l;o" 0 200 basechar 0
AnchorPoint: "r;bl" 221 10 basechar 0
AnchorPoint: "r;x" 221 380 basechar 0
AnchorPoint: "r;o" 221 200 basechar 0
AnchorPoint: "l;hi" 0 650 basechar 0
AnchorPoint: "l;lo" 0 -260 basechar 0
AnchorPoint: "r;hi" 221 650 basechar 0
AnchorPoint: "r;lo" 221 -260 basechar 0
LayerCount: 3
Fore
SplineSet
57 313 m 0
 57 335.205078125 85.1044921875 375 104 375 c 0
 123.069335938 375 164 352.724609375 164 325 c 0
 164 292.510742188 131.530273438 264 119 264 c 0
 89.43359375 264 57 295.528320312 57 313 c 0
57 38 m 0
 57 60.205078125 85.1044921875 100 104 100 c 0
 123.069335938 100 164 77.724609375 164 50 c 0
 164 17.5107421875 131.530273438 -11 119 -11 c 0
 89.43359375 -11 57 20.5283203125 57 38 c 0
EndSplineSet
EndChar

StartChar: semicolon
Encoding: 59 59 70
Width: 223
VWidth: 0
Flags: HW
AnchorPoint: "r;lo" 223 -260 basechar 0
AnchorPoint: "r;hi" 223 650 basechar 0
AnchorPoint: "l;lo" 0 -260 basechar 0
AnchorPoint: "l;hi" 0 650 basechar 0
AnchorPoint: "r;o" 223 200 basechar 0
AnchorPoint: "r;x" 223 380 basechar 0
AnchorPoint: "r;bl" 223 10 basechar 0
AnchorPoint: "l;o" 0 200 basechar 0
AnchorPoint: "l;x" 0 380 basechar 0
AnchorPoint: "l;bl" 0 10 basechar 0
LayerCount: 3
Fore
SplineSet
52 47 m 0
 52 70.9541015625 94.8974609375 91 102 91 c 0
 119.603515625 91 176 52.7041015625 176 25 c 0
 176 -61.255859375 73.212890625 -159 61 -159 c 0
 51.9052734375 -159 47 -146.442382812 47 -139 c 0
 47 -130.087890625 117 -83.7705078125 117 -34 c 0
 117 10.7578125 52 27.380859375 52 47 c 0
58 313 m 0
 58 335.205078125 86.1044921875 375 105 375 c 0
 124.069335938 375 165 352.724609375 165 325 c 0
 165 292.510742188 132.530273438 264 120 264 c 0
 90.43359375 264 58 295.528320312 58 313 c 0
EndSplineSet
EndChar

StartChar: hyphen
Encoding: 45 45 71
Width: 258
VWidth: 0
Flags: HW
AnchorPoint: "l;bl" 0 10 basechar 0
AnchorPoint: "l;x" 0 380 basechar 0
AnchorPoint: "l;o" 0 200 basechar 0
AnchorPoint: "r;bl" 258 10 basechar 0
AnchorPoint: "r;x" 258 380 basechar 0
AnchorPoint: "r;o" 258 200 basechar 0
AnchorPoint: "l;hi" 40 650 basechar 0
AnchorPoint: "r;hi" 218 650 basechar 0
LayerCount: 3
Fore
SplineSet
42.6689453125 243.981445312 m 0
 52.1748046875 245.038085938 219.665039062 251 226 251 c 0
 232.389648438 251 231 242.012695312 231 239 c 0
 231 226.909179688 228.30078125 205.20703125 220.759765625 203.049804688 c 1
 206.272460938 201.935546875 42.6416015625 195 29 195 c 0
 25.173828125 195 22 197.188476562 22 201 c 0
 22 215.939453125 30.20703125 242.596679688 42.6689453125 243.981445312 c 0
EndSplineSet
AlternateSubs2: "'aalt' Access All Alternates lookup 0 subtable" hyphen.u hyphen.sub hyphen.sup hyphen.denom hyphen.numer
AlternateSubs2: "'aalt' Access All Alternates in Latin lookup 0 subtable" hyphen.u hyphen.sub hyphen.sup hyphen.denom hyphen.numer
Substitution2: "'case' Case-Sensitive Forms in Latin lookup 14 subtable" hyphen.u
Substitution2: "'subs' Subscript in Latin lookup 8 subtable" hyphen.sub
Substitution2: "'sups' Superscript in Latin lookup 7 subtable" hyphen.sup
Substitution2: "denominators subtable" hyphen.denom
Substitution2: "numerators subtable" hyphen.numer
EndChar

StartChar: exclam
Encoding: 33 33 72
Width: 261
VWidth: 0
Flags: HW
AnchorPoint: "l;bl" 0 10 basechar 0
AnchorPoint: "l;x" 0 380 basechar 0
AnchorPoint: "l;hi" 0 650 basechar 0
AnchorPoint: "l;o" 0 200 basechar 0
AnchorPoint: "r;bl" 261 10 basechar 0
AnchorPoint: "r;x" 261 380 basechar 0
AnchorPoint: "r;hi" 261 650 basechar 0
AnchorPoint: "r;o" 261 200 basechar 0
LayerCount: 3
Fore
SplineSet
146 181.931640625 m 0
 146 172.271484375 136.393554688 169 129 169 c 0
 122.462890625 169 113 172.373046875 113 181.959960938 c 0
 107.002929688 404.840820312 94 593.74609375 94 648 c 0
 94 670.650390625 112.061523438 676 138 676 c 0
 161.134765625 676 172 672.123046875 172 652 c 0
 172 639.578125 158.002929688 445.999023438 146 181.931640625 c 0
77 38 m 0
 77 60.205078125 105.104492188 100 124 100 c 0
 143.069335938 100 184 77.724609375 184 50 c 0
 184 17.5107421875 151.530273438 -11 139 -11 c 0
 109.5234375 -11 77 20.5244140625 77 38 c 0
EndSplineSet
Position2: "'cpsp' Capital Spacing in Latin lookup 2 subtable" dx=4 dy=0 dh=8 dv=0
EndChar

StartChar: question
Encoding: 63 63 73
Width: 364
VWidth: 0
Flags: HW
AnchorPoint: "l;bl" 0 10 basechar 0
AnchorPoint: "l;x" 0 380 basechar 0
AnchorPoint: "l;k;hi" -20 650 basechar 0
AnchorPoint: "l;o" 0 200 basechar 0
AnchorPoint: "r;bl" 364 10 basechar 0
AnchorPoint: "r;x" 364 380 basechar 0
AnchorPoint: "r;hi" 364 650 basechar 0
AnchorPoint: "r;o" 364 200 basechar 0
LayerCount: 3
Fore
SplineSet
168 137.90625 m 0
 168 129.5859375 160.666992188 126 153 126 c 0
 137.109375 126 134 133.7421875 134 151 c 0
 134 164.116210938 134.981445312 283.853515625 136.005859375 298.1953125 c 0
 137.137695312 317.430664062 149.157226562 319 167 319 c 0
 224 319 l 0
 302.69921875 319 308 371.329101562 308 404 c 0
 308 493.987304688 237.911132812 567.115234375 82.5966796875 587.02734375 c 1
 69.6171875 588.881835938 57 588.30078125 57 605 c 0
 57 650 l 0
 57 656.4765625 58.51953125 670 69 670 c 0
 83.7294921875 670 83.7314453125 645.913085938 88.5380859375 644.952148438 c 1
 161.065429688 633.029296875 337 605.67578125 337 419 c 0
 337 327.721679688 313.45703125 243.021484375 199 242 c 0
 177.955078125 242 176.858398438 236.4375 175.990234375 227.756835938 c 1
 173.989257812 195.727539062 169.987304688 169.708984375 168 137.90625 c 0
93 38 m 0
 93 60.205078125 121.104492188 100 140 100 c 0
 159.069335938 100 200 77.724609375 200 50 c 0
 200 17.5107421875 167.530273438 -11 155 -11 c 0
 125.5234375 -11 93 20.5244140625 93 38 c 0
EndSplineSet
Position2: "'cpsp' Capital Spacing in Latin lookup 2 subtable" dx=4 dy=0 dh=8 dv=0
EndChar

StartChar: parenleft
Encoding: 40 40 74
Width: 279
VWidth: 0
Flags: HW
AnchorPoint: "l;o" 0 200 basechar 0
AnchorPoint: "l;x" 0 380 basechar 0
AnchorPoint: "r;o" 219 200 basechar 0
AnchorPoint: "r;hi" 279 650 basechar 0
AnchorPoint: "r;x" 219 380 basechar 0
AnchorPoint: "r;bl" 259 10 basechar 0
AnchorPoint: "r;lo" 259 -260 basechar 0
LayerCount: 3
Fore
SplineSet
37 285 m 0
 37 547.63671875 217.463867188 692 223 692 c 0
 231.078125 692 242 685.48046875 242 676 c 0
 242 667.251953125 100 546.15625 100 297 c 0
 100 13.935546875 238 -106.80078125 238 -126 c 0
 238 -134.576171875 231.537109375 -143 219 -143 c 0
 203.998046875 -143 37 54.755859375 37 285 c 0
EndSplineSet
AlternateSubs2: "'aalt' Access All Alternates lookup 0 subtable" parenleft.u parenleft.sub parenleft.sup parenleft.denom parenleft.numer
AlternateSubs2: "'aalt' Access All Alternates in Latin lookup 0 subtable" parenleft.u parenleft.sub parenleft.sup parenleft.denom parenleft.numer
Substitution2: "'case' Case-Sensitive Forms in Latin lookup 14 subtable" parenleft.u
Substitution2: "'subs' Subscript in Latin lookup 8 subtable" parenleft.sub
Substitution2: "'sups' Superscript in Latin lookup 7 subtable" parenleft.sup
Substitution2: "denominators subtable" parenleft.denom
Substitution2: "numerators subtable" parenleft.numer
EndChar

StartChar: parenright
Encoding: 41 41 75
Width: 279
VWidth: 0
Flags: HW
AnchorPoint: "l;bl" 20 10 basechar 0
AnchorPoint: "l;x" 60 380 basechar 0
AnchorPoint: "l;hi" 0 650 basechar 0
AnchorPoint: "l;o" 60 200 basechar 0
AnchorPoint: "r;x" 279 380 basechar 0
AnchorPoint: "r;o" 279 200 basechar 0
AnchorPoint: "l;lo" 20 -260 basechar 0
LayerCount: 3
Fore
SplineSet
242 264 m 0
 242 1.36328125 61.5361328125 -143 56 -143 c 0
 47.921875 -143 37 -136.48046875 37 -127 c 0
 37 -118.251953125 179 2.84375 179 252 c 0
 179 535.064453125 41 655.80078125 41 675 c 0
 41 683.576171875 47.462890625 692 60 692 c 0
 75.001953125 692 242 494.244140625 242 264 c 0
EndSplineSet
AlternateSubs2: "'aalt' Access All Alternates lookup 0 subtable" parenright.u parenright.sub parenright.sup parenright.denom parenright.numer
AlternateSubs2: "'aalt' Access All Alternates in Latin lookup 0 subtable" parenright.u parenright.sub parenright.sup parenright.denom parenright.numer
Substitution2: "'case' Case-Sensitive Forms in Latin lookup 14 subtable" parenright.u
Substitution2: "'subs' Subscript in Latin lookup 8 subtable" parenright.sub
Substitution2: "'sups' Superscript in Latin lookup 7 subtable" parenright.sup
Substitution2: "denominators subtable" parenright.denom
Substitution2: "numerators subtable" parenright.numer
EndChar

StartChar: f_i
Encoding: 65536 -1 76
Width: 499
VWidth: 0
Flags: HW
AnchorPoint: "r;o" 489 200 basechar 0
AnchorPoint: "r;x" 489 380 basechar 0
AnchorPoint: "r;bl" 499 10 basechar 0
AnchorPoint: "l;o" 0 200 basechar 0
AnchorPoint: "l;x" 0 380 basechar 0
AnchorPoint: "l;bl" 0 10 basechar 0
LayerCount: 3
Fore
SplineSet
168.696289062 28 m 1
 227 28 l 0
 240.521484375 28 243 21.638671875 243 12 c 0
 243 2.802734375 241.84765625 -5 227 -5 c 0
 207.862304688 -5 159.90234375 -3 131 -3 c 0
 106.157226562 -3 78.130859375 -5 48 -5 c 0
 33.54296875 -5 32 0.6611328125 32 12 c 0
 32 21.765625 35.3740234375 28 47 28 c 0
 85.4033203125 28 l 1
 87.2734375 35.6005859375 88 60.654296875 88 88 c 0
 88 122.962890625 87 160.896484375 87 172 c 0
 87 252 l 0
 87 285.890625 86.8330078125 332.495117188 85.70703125 343 c 1
 55 343 l 0
 43.4140625 343 38 345.596679688 38 359 c 0
 38 371.854492188 41.9443359375 375 52 375 c 0
 81 375 l 0
 84.41796875 375 86.3037109375 375.236328125 86.6044921875 375.325195312 c 1
 86.8955078125 376.211914062 87 377.45703125 87 380 c 0
 87 424.083984375 89.0048828125 466.203125 93.0146484375 505.295898438 c 0
 104.131835938 617.475585938 172.314453125 681 263 681 c 0
 346.137695312 681 393 627.272460938 393 590 c 0
 393 564.6953125 359.466796875 542 344 542 c 0
 334.700195312 542 329.228515625 543.982421875 328.0234375 553.627929688 c 0
 328.012695312 553.713867188 l 1
 328.006835938 553.80078125 l 0
 322.064453125 642.936523438 293.487304688 653 258 653 c 0
 168.845703125 653 161 518.2578125 161 409 c 0
 161 385 l 0
 161 374.407226562 159.233398438 375 177 375 c 0
 294 375 l 0
 313.78125 375 393.756835938 380 407 380 c 0
 413.772460938 380 417 377.26953125 417 371 c 0
 417 201 l 0
 417 143.997070312 417.000976562 94.0634765625 419.99609375 37.1572265625 c 0
 420 37.0791015625 l 1
 420 37 l 0
 420 28.119140625 418.76171875 28 427 28 c 0
 458 28 l 0
 469.849609375 28 472 21.36328125 472 12 c 0
 472 3.0947265625 471.171875 -5 458 -5 c 0
 438.831054688 -5 403.880859375 -3 379 -3 c 0
 354.120117188 -3 314.150390625 -5 295 -5 c 0
 282.236328125 -5 281 0.939453125 281 12 c 0
 281 21.7626953125 283.623046875 28 298 28 c 0
 334 28 l 0
 343.66015625 28 342 27.322265625 342 37.0517578125 c 1
 343.001953125 66.115234375 343 88.9619140625 343 119 c 0
 343 188.936523438 341.997070312 260 339.004882812 332.823242188 c 1
 338.04296875 345.323242188 337.561523438 344 332 344 c 0
 175 344 l 0
 160.435546875 344 161 343.451171875 161 335 c 0
 161 169 l 0
 161 102.2109375 163.876953125 35.7119140625 168.696289062 28 c 1
EndSplineSet
Layer: 2
SplineSet
319.76953125 314.484375 m 1
 315.888671875 306.616210938 309.807617188 300 298 300 c 0
 183 300 l 1
 183 169 l 0
 183 121.224609375 185.290039062 70.240234375 187.41796875 50 c 1
 232 50 l 0
 258.633789062 50 265 26.96875 265 12 c 0
 265 -1.3388671875 255.939453125 -17 232 -17 c 0
 212.088867188 -17 164.345703125 -15 136 -15 c 0
 112.064453125 -15 83.861328125 -17 53 -17 c 0
 31.1357421875 -17 20 -4.123046875 20 12 c 0
 20 27.349609375 26.84765625 50 52 50 c 0
 75.216796875 50 l 1
 75.89453125 61.7021484375 76 72.736328125 76 88 c 0
 76 122.75 75 160.315429688 75 172 c 0
 75 232 l 0
 75 253.799804688 74.8056640625 279.020507812 74.5419921875 293 c 1
 60 293 l 0
 43.0537109375 293 26 302.41015625 26 326 c 0
 26 332.432617188 28.0146484375 338.932617188 29.2353515625 342.330078125 c 1
 25.4267578125 350.779296875 26 353.458007812 26 359 c 0
 26 378.930664062 38.2958984375 392 57 392 c 0
 75.052734375 392 l 1
 75.443359375 434.720703125 77.3896484375 469.836914062 81.1044921875 506.53515625 c 0
 93.1298828125 622.779296875 167.975585938 693 268 693 c 0
 356.801757812 693 415 638.68359375 415 590 c 0
 415 550.63671875 374.203125 520 349 520 c 0
 333.446289062 520 318.151367188 529.607421875 316.134765625 551.037109375 c 1
 310.374023438 633.313476562 291.31640625 631 263 631 c 0
 195.788085938 631 184 523.157226562 184 409 c 0
 184 392 l 1
 299 392 l 0
 317.53515625 392 397.380859375 397 412 397 c 0
 425.694335938 397 439 387.381835938 439 371 c 0
 439 207 l 0
 439 154.791992188 439.280273438 98.2265625 441.403320312 50 c 1
 463 50 l 0
 489.657226562 50 494 24.7314453125 494 12 c 0
 494 0.845703125 487.2109375 -17 463 -17 c 0
 442.897460938 -17 408.177734375 -15 384 -15 c 0
 359.810546875 -15 319.991210938 -17 300 -17 c 0
 277.909179688 -17 269 -2.1259765625 269 12 c 0
 269 27.9697265625 276.307617188 50 303 50 c 0
 330.53515625 50 l 1
 331.071289062 72.1611328125 331.000976562 116.73046875 331 120.700195312 c 0
 330.9921875 146.423828125 330.861328125 170.533203125 330.552734375 195.831054688 c 0
 330.022460938 233.616210938 328.892578125 271.844726562 327.153320312 314.834960938 c 1
 322.85546875 314.669921875 321.493164062 314.5859375 319.76953125 314.484375 c 1
EndSplineSet
Ligature2: "'liga' Standard Ligatures in Latin lookup 15 subtable" f i
LCarets2: 1 0 
EndChar

StartChar: f_l
Encoding: 65537 -1 77
Width: 501
VWidth: 0
Flags: HW
AnchorPoint: "r;o" 501 200 basechar 0
AnchorPoint: "r;hi" 501 650 basechar 0
AnchorPoint: "r;x" 501 380 basechar 0
AnchorPoint: "r;bl" 501 10 basechar 0
AnchorPoint: "l;o" 0 200 basechar 0
AnchorPoint: "l;x" 0 380 basechar 0
AnchorPoint: "l;bl" 0 10 basechar 0
LayerCount: 3
Fore
SplineSet
165.3828125 28 m 1
 220 28 l 0
 233.521484375 28 236 21.638671875 236 12 c 0
 236 2.802734375 234.84765625 -5 220 -5 c 0
 200.852539062 -5 157.896484375 -3 129 -3 c 0
 104.157226562 -3 76.130859375 -5 46 -5 c 0
 31.54296875 -5 30 0.6611328125 30 12 c 0
 30 21.765625 33.3740234375 28 45 28 c 0
 83.861328125 28 l 1
 86.380859375 34.3955078125 88 60.177734375 88 88 c 0
 88 122.962890625 87 160.896484375 87 172 c 0
 87 232 l 0
 87 266.627929688 86.8046875 331.161132812 85.6181640625 343 c 1
 53 343 l 0
 41.4140625 343 36 345.596679688 36 359 c 0
 36 371.854492188 39.9443359375 375 50 375 c 0
 77 375 l 0
 85.2890625 375 86 374.358398438 86 384 c 0
 86 432.919921875 85 427.927734375 85 481 c 0
 85 586.01953125 141.961914062 681 266 681 c 0
 288.686523438 681 317.075195312 672.845703125 341.52734375 658.58203125 c 1
 351.372070312 652.67578125 352.798828125 652.001953125 366.576171875 653.969726562 c 0
 387.620117188 656.9765625 402.856445312 661 407 661 c 0
 416.640625 661 417 654.291992188 417 642.966796875 c 1
 412.999023438 461.903320312 413 389.021484375 413 295 c 0
 413 266.994140625 413.288085938 52.2421875 416.282226562 28 c 1
 462 28 l 0
 475.521484375 28 478 21.638671875 478 12 c 0
 478 2.802734375 476.84765625 -5 462 -5 c 0
 442.8359375 -5 406.887695312 -3 378 -3 c 0
 353.145507812 -3 320.122070312 -5 290 -5 c 0
 275.54296875 -5 274 0.6611328125 274 12 c 0
 274 21.765625 277.374023438 28 289 28 c 0
 334.326171875 28 l 1
 336.834960938 38.1748046875 337 88.080078125 337 110 c 0
 337 329 l 0
 337 345.380859375 336.84375 344 326 344 c 0
 176 344 l 0
 161.1171875 344 160 342.904296875 160 335 c 0
 160 109 l 0
 160 65.6416015625 161.796875 32.4853515625 165.3828125 28 c 1
337 392 m 0
 337 459.986328125 336.001953125 500.895507812 335 548.96875 c 1
 335 566.184570312 329.805664062 568.860351562 322.4921875 580.353515625 c 1
 300.641601562 612.608398438 296.814453125 653 246 653 c 0
 167.467773438 653 158 559.879882812 158 467 c 0
 158 389 l 0
 158 375.032226562 156.614257812 375 176 375 c 0
 324 375 l 0
 335.762695312 375 337 374.7421875 337 392 c 0
EndSplineSet
Layer: 2
SplineSet
184.159179688 50 m 1
 225 50 l 0
 251.633789062 50 258 26.96875 258 12 c 0
 258 -1.3388671875 248.939453125 -17 225 -17 c 0
 205.026367188 -17 162.303710938 -15 134 -15 c 0
 110.064453125 -15 81.861328125 -17 51 -17 c 0
 29.1357421875 -17 18 -4.123046875 18 12 c 0
 18 27.349609375 24.84765625 50 50 50 c 0
 74.572265625 50 l 1
 75.7578125 62.94140625 76 72.65625 76 88 c 0
 76 122.75 75 160.315429688 75 172 c 0
 75 232 l 0
 75 253.799804688 74.8056640625 279.020507812 74.5419921875 293 c 1
 58 293 l 0
 41.0537109375 293 24 302.41015625 24 326 c 0
 24 345.930664062 36.2958984375 359 55 359 c 0
 73.9697265625 359 l 1
 73.60546875 404.833007812 71 429.607421875 71 481 c 0
 71 589.849609375 135.859375 693 271 693 c 0
 297.40625 693 328.090820312 684.227539062 354.932617188 669.0390625 c 0
 355.500976562 668.717773438 l 1
 356.0390625 668.348632812 l 0
 358.732421875 666.498046875 361.381835938 664.360351562 361.381835938 664.360351562 c 1
 364.112304688 664.944335938 365.232421875 665.208007812 369.028320312 665.829101562 c 1
 389.8359375 668.780273438 402.264648438 673 412 673 c 0
 436.172851562 673 439 651.625 439 642.66796875 c 1
 434.9921875 461.35546875 435 362.115234375 435 268 c 0
 435 245.470703125 435.646484375 95.4658203125 437.216796875 50 c 1
 467 50 l 0
 493.633789062 50 500 26.96875 500 12 c 0
 500 -1.3388671875 490.939453125 -17 467 -17 c 0
 446.919921875 -17 411.240234375 -15 383 -15 c 0
 358.983398438 -15 325.8046875 -17 295 -17 c 0
 273.135742188 -17 262 -4.123046875 262 12 c 0
 262 27.349609375 268.84765625 50 294 50 c 0
 324.001953125 50 l 1
 325.04296875 70.2373046875 325 94.61328125 325 110 c 0
 325 299.421875 l 1
 305.603515625 300.661132812 197.559570312 300.036132812 182 300.000976562 c 1
 182 109 l 0
 182 84.681640625 183.202148438 61.1787109375 184.159179688 50 c 1
325 365 m 1
 325 432.900390625 324.0078125 500.349609375 323 548.6875 c 1
 323 560.845703125 323.984375 552.885742188 313.525390625 567.858398438 c 0
 286.450195312 606.6015625 289.674804688 631 251 631 c 0
 191.955078125 631 180 562.076171875 180 467 c 0
 180 365 l 1
 325 365 l 1
EndSplineSet
Ligature2: "'liga' Standard Ligatures in Latin lookup 15 subtable" f l
LCarets2: 1 0 
EndChar

StartChar: f_f
Encoding: 65538 -1 78
Width: 558
VWidth: 0
Flags: HW
AnchorPoint: "r;o" 558 200 basechar 0
AnchorPoint: "r;hi" 558 650 basechar 0
AnchorPoint: "r;x" 558 380 basechar 0
AnchorPoint: "r;bl" 558 10 basechar 0
AnchorPoint: "l;o" 0 200 basechar 0
AnchorPoint: "l;x" 0 380 basechar 0
AnchorPoint: "l;bl" 0 10 basechar 0
LayerCount: 3
Fore
SplineSet
374.587890625 623.788085938 m 0
 399.033203125 659.436523438 431.127929688 681 489 681 c 0
 536.7265625 681 581 655.453125 581 611 c 0
 581 585.668945312 545.458984375 561 530 561 c 0
 520.701171875 561 515.2265625 563.002929688 514.026367188 572.603515625 c 0
 507.89453125 618.591796875 503.865234375 653 470 653 c 0
 415.528320312 653 413 592.129882812 413 519 c 0
 413 389 l 0
 413 374.7734375 410.741210938 375 430 375 c 0
 546 375 l 0
 550.701171875 375 556 372.453125 556 367 c 0
 556 362.739257812 553.3359375 344 545 344 c 0
 430 344 l 0
 415.435546875 344 416 343.451171875 416 335 c 0
 416 169 l 0
 416 102.2109375 418.876953125 35.7119140625 423.696289062 28 c 1
 489 28 l 0
 502.521484375 28 505 21.638671875 505 12 c 0
 505 2.802734375 503.84765625 -5 489 -5 c 0
 469.877929688 -5 411.912109375 -3 383 -3 c 0
 358.169921875 -3 335.14453125 -5 305 -5 c 0
 290.54296875 -5 289 0.6611328125 289 12 c 0
 289 21.765625 292.374023438 28 304 28 c 0
 339.403320312 28 l 1
 341.2734375 35.6005859375 342 60.654296875 342 88 c 0
 342 122.962890625 341 160.896484375 341 172 c 0
 341 232 l 0
 341 276.969726562 340 318.913085938 340 334 c 0
 340 343.3125 339.611328125 344 325 344 c 0
 176 344 l 0
 161.435546875 344 162 343.451171875 162 335 c 0
 162 169 l 0
 162 102.2109375 164.876953125 35.7119140625 169.696289062 28 c 1
 225 28 l 0
 238.521484375 28 241 21.638671875 241 12 c 0
 241 2.802734375 239.84765625 -5 225 -5 c 0
 205.862304688 -5 157.90234375 -3 129 -3 c 0
 104.169921875 -3 81.14453125 -5 51 -5 c 0
 36.54296875 -5 35 0.6611328125 35 12 c 0
 35 21.765625 38.3740234375 28 50 28 c 0
 85.4033203125 28 l 1
 87.2734375 35.6005859375 88 60.654296875 88 88 c 0
 88 122.962890625 87 160.896484375 87 172 c 0
 87 232 l 0
 87 266.627929688 86.8046875 331.161132812 85.6181640625 343 c 1
 53 343 l 0
 41.4140625 343 36 345.596679688 36 359 c 0
 36 371.854492188 39.9443359375 375 50 375 c 0
 79 375 l 0
 86.833984375 375 86 373.592773438 86 384 c 0
 86 461.668945312 88.60546875 599.727539062 193.716796875 648.711914062 c 1
 219.033203125 660.86328125 244.506835938 667 269 667 c 0
 305.80078125 667 340.439453125 652.779296875 368.948242188 625.288085938 c 0
 373.0078125 622.329101562 l 1
 373.168945312 622.393554688 373.680664062 622.65234375 374.587890625 623.788085938 c 0
343.99609375 562.760742188 m 0
 333.852539062 570.875976562 325.640625 579.061523438 319.38671875 590.525390625 c 0
 305.381835938 614.53515625 290.206054688 638 257 638 c 0
 160.76953125 638 159 501.231445312 159 425 c 0
 159 386 l 0
 159 375.51171875 158.381835938 375 176 375 c 0
 323 375 l 0
 339.681640625 375 338 374.327148438 338 385 c 0
 338 423.918945312 337 423.895507812 337 464 c 0
 337 518.022460938 346 555.231445312 346 558 c 0
 346 560.233398438 345.603515625 561.153320312 343.99609375 562.760742188 c 0
EndSplineSet
Layer: 2
SplineSet
309.588867188 579.6171875 m 1
 295.95703125 601.739257812 285.463867188 616 262 616 c 0
 177.451171875 616 183.079101562 481.135742188 180.087890625 365 c 1
 325.451171875 365 l 1
 326.397460938 380.650390625 325 453.765625 325 464 c 0
 325 504.200195312 330.098632812 536.796875 332.530273438 550.689453125 c 1
 320.703125 561.404296875 316.135742188 567.03515625 309.588867188 579.6171875 c 1
502.139648438 569.944335938 m 1
 495.3515625 618.047851562 491.486328125 631 475 631 c 0
 440.266601562 631 435 595.443359375 435 519 c 0
 435 365 l 1
 551 365 l 0
 559.504882812 365 578 359.513671875 578 340.05078125 c 1
 578 340.05078125 580.166015625 300 550 300 c 0
 438 300 l 1
 438 169 l 0
 438 121.224609375 440.290039062 70.240234375 442.41796875 50 c 1
 494 50 l 0
 520.633789062 50 527 26.96875 527 12 c 0
 527 -1.3388671875 517.939453125 -17 494 -17 c 0
 474.193359375 -17 416.412109375 -15 388 -15 c 0
 364.15234375 -15 340.939453125 -17 310 -17 c 0
 288.135742188 -17 277 -4.123046875 277 12 c 0
 277 27.349609375 283.84765625 50 309 50 c 0
 329.216796875 50 l 1
 329.89453125 61.7021484375 330 72.736328125 330 88 c 0
 330 122.75 329 160.315429688 329 172 c 0
 329 232 l 0
 329 270.217773438 328.287109375 287.73046875 328.065429688 300 c 1
 184 300 l 1
 184 169 l 0
 184 121.224609375 186.290039062 70.240234375 188.41796875 50 c 1
 230 50 l 0
 256.633789062 50 263 26.96875 263 12 c 0
 263 -1.3388671875 253.939453125 -17 230 -17 c 0
 210.088867188 -17 162.345703125 -15 134 -15 c 0
 110.15234375 -15 86.939453125 -17 56 -17 c 0
 34.1357421875 -17 23 -4.123046875 23 12 c 0
 23 27.349609375 29.84765625 50 55 50 c 0
 75.216796875 50 l 1
 75.89453125 61.7021484375 76 72.736328125 76 88 c 0
 76 122.75 75 160.315429688 75 172 c 0
 75 232 l 0
 75 253.799804688 74.8056640625 279.020507812 74.5419921875 293 c 1
 58 293 l 0
 41.0537109375 293 24 302.41015625 24 326 c 0
 24 345.930664062 36.2958984375 359 55 359 c 0
 74.0048828125 359 l 1
 74.171875 472.984375 77.7646484375 606.8671875 191.536132812 659.588867188 c 0
 218.805664062 672.225585938 246.698242188 679 274 679 c 0
 313.038085938 679 349.5703125 663.57421875 378.055664062 640.364257812 c 1
 400.208007812 655.583007812 455.936523438 693 494 693 c 0
 544.91796875 693 603 667.005859375 603 611 c 0
 603 571.58984375 560.424804688 539 535 539 c 0
 519.639648438 539 504.205078125 548.052734375 502.139648438 569.944335938 c 1
EndSplineSet
Ligature2: "'liga' Standard Ligatures in Latin lookup 15 subtable" f f
LCarets2: 1 0 
EndChar

